{"glyphs":{"0":{"ha":747,"x_min":39,"x_max":708,"o":"m 39 473 q 67 658 39 570 q 140 810 94 747 q 247 912 185 874 q 377 949 309 949 q 506 917 446 949 q 611 825 566 885 q 682 674 656 766 q 708 473 708 583 q 682 287 708 375 q 611 134 655 198 q 505 33 566 71 q 377 -5 444 -5 q 272 16 322 -5 q 179 76 222 36 q 106 173 137 117 q 57 306 75 229 q 39 473 39 383 m 237 458 q 244 326 237 389 q 264 215 252 263 q 295 132 277 167 q 335 78 313 96 q 380 59 356 59 q 441 94 415 59 q 482 190 467 128 q 504 328 496 252 q 511 498 511 405 q 476 782 511 678 q 380 886 441 886 q 315 853 343 886 q 271 761 288 820 q 245 627 254 703 q 237 458 237 551 z "},"1":{"ha":747,"x_min":137,"x_max":610,"o":"m 137 806 q 140 825 137 824 q 302 896 214 857 q 438 956 391 935 q 488 977 486 977 l 491 977 q 502 966 496 977 q 509 948 507 956 q 495 805 495 904 l 495 220 q 495 173 495 189 q 497 137 496 158 q 500 102 498 116 q 507 77 503 88 q 605 50 515 57 q 610 22 610 42 q 605 -6 610 1 q 397 5 501 5 q 189 -6 292 5 q 183 22 184 1 q 189 50 183 42 q 286 77 278 57 q 296 129 294 98 q 298 220 298 159 l 298 732 q 291 797 298 781 q 266 812 285 812 q 216 801 254 812 q 157 778 178 790 q 142 791 148 782 q 137 806 137 800 z "},"2":{"ha":747,"x_min":45,"x_max":702,"o":"m 45 27 q 126 115 68 53 q 210 208 183 177 q 281 296 237 239 q 361 412 324 353 q 450 682 450 551 q 435 752 450 719 q 398 807 421 785 q 346 843 376 830 q 286 857 316 857 q 229 847 256 857 q 182 822 201 838 q 149 792 162 806 q 124 764 135 779 q 113 749 113 750 q 91 760 104 749 q 79 785 79 770 q 104 828 88 805 q 149 877 121 850 q 210 925 177 904 q 289 961 243 947 q 382 975 334 975 q 466 965 427 975 q 539 932 506 954 q 596 881 572 911 q 634 809 621 850 q 647 720 647 768 q 532 456 647 591 q 246 155 378 274 l 507 155 q 541 159 525 155 q 567 170 556 163 q 589 186 578 176 q 607 206 600 197 q 622 230 614 215 q 634 253 630 245 q 644 277 637 262 q 646 282 646 280 q 648 286 647 283 q 650 290 649 288 q 671 301 654 301 q 702 292 692 301 q 682 220 696 267 q 654 131 668 172 q 626 47 640 89 q 610 0 612 5 l 58 0 q 45 27 45 15 z "},"3":{"ha":747,"x_min":59,"x_max":688,"o":"m 59 113 q 64 140 59 126 q 79 166 70 155 q 104 185 89 178 q 138 193 119 193 q 152 192 145 193 q 164 187 158 191 q 176 181 171 184 q 188 172 181 178 q 198 163 195 166 q 209 153 201 161 q 218 142 216 144 q 227 132 220 140 q 235 121 235 123 q 343 55 293 55 q 450 111 413 55 q 486 271 486 167 q 467 378 486 328 q 408 458 447 427 q 321 489 370 489 q 237 475 288 489 q 228 492 232 481 q 223 512 223 503 q 225 526 223 521 q 281 538 254 530 q 340 561 309 547 q 395 594 372 576 q 433 638 418 612 q 448 696 448 665 q 438 761 448 730 q 411 814 429 791 q 366 850 393 837 q 305 863 338 863 q 258 856 282 863 q 215 839 233 848 q 179 817 196 829 q 153 797 162 805 q 140 784 144 789 q 127 800 132 786 q 121 827 121 814 q 241 932 169 889 q 398 975 313 975 q 450 970 422 975 q 509 950 477 964 q 567 915 541 936 q 609 859 592 894 q 626 781 626 824 q 612 711 626 745 q 579 654 599 677 q 536 611 560 631 q 494 581 511 591 q 462 565 476 571 q 490 561 474 564 q 528 550 506 557 q 571 530 550 542 q 614 500 593 519 q 652 459 635 482 q 678 404 668 437 q 688 334 688 372 q 665 217 688 272 q 602 121 642 161 q 510 50 562 80 q 399 6 458 20 q 283 -9 341 -9 q 160 8 215 -9 q 77 47 104 26 q 64 78 70 56 q 59 113 59 100 z "},"4":{"ha":747,"x_min":32,"x_max":715,"o":"m 32 302 q 307 647 130 425 q 555 957 484 869 q 565 968 562 965 q 574 975 568 972 q 585 979 579 979 q 609 963 593 979 q 626 936 626 948 l 626 368 l 694 368 q 709 348 703 368 q 715 296 715 328 q 712 278 715 286 q 705 267 709 270 l 702 264 l 626 264 l 626 6 q 523 -7 586 -7 q 435 12 435 -7 l 435 264 l 49 264 q 32 302 32 273 m 162 368 l 163 368 l 163 368 l 164 368 l 165 368 l 165 368 l 166 368 l 167 368 l 168 368 l 168 368 l 169 368 l 170 368 l 170 368 l 171 368 l 172 368 l 172 368 l 173 368 l 174 368 l 174 368 l 175 368 l 176 368 l 176 368 l 177 368 l 178 368 l 178 368 l 179 368 l 180 368 l 180 368 l 181 368 l 182 368 l 182 368 l 183 368 l 184 368 l 184 368 l 185 368 l 186 368 l 186 368 l 187 368 l 188 368 l 189 368 l 189 368 l 190 368 l 191 368 l 191 368 l 192 368 l 193 368 l 193 368 l 194 368 l 195 368 l 195 368 l 196 368 l 197 368 l 197 368 l 198 368 l 199 368 l 199 368 l 200 368 l 201 368 l 201 368 l 202 368 l 203 368 l 203 368 l 204 368 l 205 368 l 205 368 l 206 368 l 207 368 l 208 368 l 208 368 l 209 368 l 210 368 l 210 368 l 211 368 l 212 368 l 212 368 l 213 368 l 214 368 l 214 368 l 215 368 l 216 368 l 216 368 l 217 368 l 218 368 l 218 368 l 219 368 l 220 368 l 220 368 l 221 368 l 222 368 l 222 368 l 223 368 l 224 368 l 224 368 l 225 368 l 226 368 l 227 368 l 227 368 l 228 368 l 229 368 l 229 368 l 230 368 l 231 368 l 231 368 l 232 368 l 233 368 l 233 368 l 234 368 l 235 368 l 235 368 l 236 368 l 237 368 l 237 368 l 238 368 l 239 368 l 239 368 l 240 368 l 241 368 l 241 368 l 242 368 l 243 368 l 243 368 l 244 368 l 245 368 l 245 368 l 246 368 l 247 368 l 248 368 l 248 368 l 249 368 l 250 368 l 250 368 l 251 368 l 252 368 l 252 368 l 253 368 l 254 368 l 254 368 l 256 368 l 256 368 l 257 368 l 258 368 l 258 368 l 259 368 l 260 368 l 260 368 l 261 368 l 262 368 l 262 368 l 263 368 l 264 368 l 264 368 l 265 368 l 266 368 l 267 368 l 267 368 l 268 368 l 269 368 l 270 368 l 271 368 l 271 368 l 272 368 l 273 368 l 273 368 l 274 368 l 275 368 l 275 368 l 276 368 l 277 368 l 278 368 l 279 368 l 279 368 l 280 368 l 281 368 l 281 368 l 282 368 l 283 368 l 283 368 l 284 368 l 286 368 l 286 368 l 287 368 l 288 368 l 288 368 l 289 368 l 290 368 l 290 368 l 291 368 l 292 368 l 293 368 l 294 368 l 294 368 l 295 368 l 296 368 l 296 368 l 297 368 l 298 368 l 299 368 l 300 368 l 300 368 l 301 368 l 302 368 l 302 368 l 304 368 l 304 368 l 305 368 l 306 368 l 307 368 l 307 368 l 308 368 l 309 368 l 310 368 l 311 368 l 311 368 l 312 368 l 313 368 l 313 368 l 315 368 l 315 368 l 316 368 l 317 368 l 317 368 l 318 368 l 319 368 l 320 368 l 321 368 l 321 368 l 322 368 l 323 368 l 323 368 l 325 368 l 326 368 l 326 368 l 327 368 l 328 368 l 328 368 l 330 368 l 330 368 l 331 368 l 332 368 l 332 368 l 333 368 l 334 368 l 335 368 l 336 368 l 336 368 l 337 368 l 338 368 l 339 368 l 340 368 l 340 368 l 341 368 l 342 368 l 343 368 l 344 368 l 345 368 l 345 368 l 346 368 l 347 368 l 348 368 l 349 368 l 349 368 l 350 368 l 351 368 l 351 368 l 353 368 l 353 368 l 354 368 l 355 368 l 355 368 l 357 368 l 357 368 l 358 368 l 359 368 l 359 368 l 360 368 l 361 368 l 362 368 l 363 368 l 363 368 l 364 368 l 366 368 l 366 368 l 367 368 l 368 368 l 368 368 l 369 368 l 370 368 l 371 368 l 372 368 l 372 368 l 373 368 l 374 368 l 375 368 l 376 368 l 376 368 l 377 368 l 378 368 l 378 368 l 380 368 l 380 368 l 381 368 l 382 368 l 382 368 l 383 368 l 385 368 l 385 368 l 386 368 l 387 368 l 387 368 l 388 368 l 389 368 l 390 368 l 391 368 l 391 368 l 392 368 l 393 368 l 394 368 l 395 368 l 395 368 l 396 368 l 397 368 l 397 368 l 398 368 l 399 368 l 400 368 l 401 368 l 401 368 l 402 368 l 403 368 l 404 368 l 405 368 l 406 368 l 406 368 l 407 368 l 408 368 l 408 368 l 409 368 l 410 368 l 410 368 l 412 368 l 412 368 l 413 368 l 414 368 l 414 368 l 415 368 l 416 368 l 416 368 l 417 368 l 418 368 l 419 368 l 420 368 l 420 368 l 421 368 l 422 368 l 422 368 l 423 368 l 424 368 l 425 368 l 425 368 l 426 368 l 427 368 l 427 368 l 428 368 l 435 368 l 435 708 q 277 508 372 628 q 163 368 182 387 l 162 368 z "},"5":{"ha":747,"x_min":64,"x_max":684,"o":"m 64 113 q 85 168 64 143 q 143 193 106 193 q 169 187 156 193 q 195 170 182 182 q 216 150 208 158 q 236 126 224 141 q 240 121 239 123 q 347 55 297 55 q 425 80 393 55 q 473 154 457 106 q 489 271 489 202 q 469 364 489 320 q 417 437 448 408 q 350 482 386 465 q 279 498 313 498 q 204 493 237 498 q 163 486 171 488 q 140 477 155 483 q 129 488 134 477 q 125 507 125 499 q 163 709 127 511 q 210 964 200 907 l 480 964 q 620 981 542 964 q 624 980 621 981 q 628 979 627 979 q 632 977 629 978 q 636 975 635 976 q 638 971 637 973 q 640 966 640 969 q 641 960 641 964 q 629 916 641 948 q 604 854 617 884 q 583 814 590 825 q 355 802 488 805 q 255 800 307 800 l 219 623 q 380 643 304 643 q 490 619 435 643 q 588 556 545 595 q 657 462 630 517 q 684 349 684 408 q 661 230 684 287 q 599 131 638 174 q 510 56 560 87 q 401 7 459 24 q 286 -9 344 -9 q 164 8 219 -9 q 82 47 109 26 q 69 77 74 56 q 64 113 64 98 z "},"6":{"ha":747,"x_min":58,"x_max":690,"o":"m 58 368 q 73 489 58 429 q 113 601 87 549 q 169 695 139 652 q 234 777 199 739 q 334 864 281 825 q 439 925 388 902 q 536 961 491 948 q 623 980 581 975 q 635 941 640 967 q 470 845 541 902 q 355 722 399 788 q 286 577 311 656 q 327 597 305 589 q 371 610 349 606 q 410 615 392 615 q 497 605 456 615 q 573 573 537 595 q 634 516 609 550 q 675 430 660 481 q 690 315 690 378 q 672 213 690 262 q 623 123 654 163 q 551 54 591 84 q 463 7 510 24 q 368 -9 415 -9 q 248 22 305 -9 q 149 105 190 54 q 82 226 107 157 q 58 368 58 295 m 258 336 q 262 257 258 295 q 275 182 266 219 q 299 117 285 144 q 335 72 313 89 q 386 55 358 55 q 459 116 430 55 q 489 277 489 176 q 487 331 489 305 q 479 382 484 357 q 466 429 474 408 q 447 468 458 450 q 420 499 435 486 q 386 518 406 511 q 343 526 366 526 q 304 518 326 526 q 267 496 281 511 q 258 336 258 417 z "},"7":{"ha":747,"x_min":49,"x_max":699,"o":"m 49 690 q 82 828 55 716 q 115 966 109 939 l 553 968 q 608 969 576 968 q 663 972 640 970 q 690 974 687 974 q 699 951 699 974 q 669 878 699 939 q 659 859 663 865 l 246 -12 q 219 -17 240 -17 q 204 -15 214 -17 q 182 -9 195 -13 q 161 2 170 -5 q 152 20 152 9 q 334 342 199 88 q 574 814 469 595 l 222 814 q 182 806 200 814 q 153 786 164 798 q 131 756 141 775 q 116 723 121 736 q 103 686 111 709 q 102 685 103 686 q 101 683 101 684 q 100 682 100 683 q 98 681 99 681 q 95 680 96 680 q 91 679 93 679 q 85 677 88 678 q 70 679 78 677 q 57 683 62 680 q 49 690 52 686 z "},"8":{"ha":747,"x_min":55,"x_max":692,"o":"m 55 233 q 72 317 55 277 q 118 386 90 357 q 180 434 146 414 q 249 465 213 454 q 246 473 254 467 q 224 491 240 477 q 198 513 209 504 q 171 538 187 522 q 143 569 155 555 q 119 603 132 583 q 98 643 106 623 q 84 687 90 663 q 79 739 79 712 q 104 829 79 787 q 172 901 130 872 q 265 945 213 929 q 371 962 317 962 q 454 953 413 962 q 531 926 494 944 q 594 882 567 908 q 637 821 621 857 q 653 743 653 785 q 647 697 653 720 q 629 655 640 675 q 602 618 617 635 q 567 586 586 601 q 528 559 548 571 q 486 538 508 547 q 484 534 484 536 q 486 530 484 531 q 529 502 507 517 q 582 458 551 486 q 636 400 613 430 q 676 332 659 371 q 692 254 692 292 q 680 178 692 214 q 644 113 667 142 q 590 61 621 85 q 524 23 559 38 q 448 -1 488 7 q 368 -9 408 -9 q 275 -2 319 -9 q 191 23 232 5 q 120 68 150 41 q 73 138 90 96 q 55 233 55 180 m 255 237 q 262 172 255 203 q 283 114 269 140 q 322 71 297 87 q 380 55 347 55 q 428 65 406 55 q 464 92 450 75 q 485 131 477 109 q 492 179 492 153 q 485 228 492 203 q 467 272 477 252 q 440 312 457 291 q 410 347 423 333 q 378 377 397 360 q 349 400 358 393 q 325 418 340 407 q 310 425 314 425 q 307 426 309 425 q 304 426 305 426 q 304 424 304 425 q 255 237 255 364 m 273 778 q 280 729 273 753 q 299 686 288 705 q 325 650 311 667 q 354 621 338 634 q 381 600 370 608 q 404 587 393 592 q 422 578 419 578 q 431 583 431 578 q 465 739 465 633 q 459 792 465 765 q 441 844 453 820 q 411 884 430 869 q 368 899 391 899 q 299 864 326 899 q 273 778 273 829 z "},"9":{"ha":747,"x_min":58,"x_max":690,"o":"m 58 656 q 85 781 58 721 q 158 885 113 842 q 262 954 203 928 q 380 980 320 980 q 500 949 442 980 q 599 866 557 918 q 665 745 640 814 q 690 603 690 676 q 675 482 690 543 q 634 370 660 422 q 578 275 608 318 q 513 195 549 232 q 413 107 467 145 q 308 45 359 68 q 212 9 256 22 q 125 -9 167 -3 q 113 31 107 4 q 277 126 206 69 q 392 249 348 182 q 462 393 437 315 q 398 366 432 376 q 337 355 364 355 q 265 362 299 355 q 199 384 231 370 q 141 423 167 399 q 97 480 116 448 q 68 557 78 513 q 58 656 58 602 m 258 694 q 266 601 258 644 q 290 522 273 557 q 336 465 307 486 q 404 445 365 445 q 444 452 421 445 q 480 474 466 460 q 489 635 489 518 q 483 733 489 686 q 462 823 476 781 q 422 891 448 865 q 361 916 396 916 q 288 856 317 916 q 258 694 258 795 z "},"\u0000":{"ha":1389,"x_min":0,"x_max":0,"o":""},"\r":{"ha":1389,"x_min":0,"x_max":0,"o":""}," ":{"ha":323,"x_min":0,"x_max":0,"o":""},"!":{"ha":410,"x_min":90,"x_max":317,"o":"m 90 100 q 123 178 90 146 q 203 211 157 211 q 284 176 251 211 q 317 96 317 142 q 284 17 317 50 q 205 -17 252 -17 q 123 17 157 -17 q 90 100 90 52 m 109 873 q 138 947 109 920 q 210 975 167 975 q 276 947 248 975 q 304 872 304 919 q 280 642 304 842 q 240 336 256 443 q 235 322 237 328 q 229 311 233 317 q 221 302 226 306 q 210 296 216 298 q 192 304 203 296 q 175 322 181 311 q 151 491 165 376 q 122 721 136 605 q 109 873 109 838 z "},"\"":{"ha":503,"x_min":55,"x_max":439,"o":"m 55 937 q 62 978 55 956 q 80 1019 68 1000 q 110 1051 92 1038 q 149 1063 128 1063 q 168 1061 159 1063 q 182 1054 176 1059 q 196 1039 189 1048 q 187 881 196 1000 q 170 690 178 761 q 161 677 167 684 q 148 665 155 671 q 134 654 140 659 q 119 667 123 654 q 70 842 85 781 q 55 937 55 903 m 298 937 q 304 978 298 956 q 323 1019 311 1000 q 353 1051 335 1038 q 392 1063 372 1063 q 418 1058 408 1063 q 439 1039 429 1053 q 430 881 439 1000 q 413 690 421 761 q 397 671 408 682 q 377 654 387 661 q 361 667 366 654 q 313 842 328 781 q 298 937 298 903 z "},"#":{"ha":722,"x_min":70,"x_max":654,"o":"m 77 225 q 72 250 70 229 q 84 297 74 271 q 103 327 94 323 l 599 327 q 604 283 613 327 q 580 227 595 239 q 577 225 578 225 l 77 225 m 117 559 q 142 616 127 606 q 144 616 143 616 l 640 616 q 646 573 654 616 q 623 517 637 529 q 620 515 621 515 l 120 515 q 117 559 107 515 m 147 41 l 267 787 q 280 802 271 798 q 311 806 290 806 q 331 802 324 806 l 210 55 q 202 47 209 52 q 185 39 196 42 q 164 35 175 35 q 157 36 160 35 q 152 37 153 36 q 149 39 150 38 q 148 41 148 40 l 147 41 m 392 41 l 512 787 q 525 802 515 798 q 556 806 535 806 q 576 802 569 806 l 456 55 q 451 49 455 52 q 440 42 446 45 q 425 37 434 39 q 409 35 416 35 q 398 37 402 35 q 393 39 393 38 l 392 41 z "},"$":{"ha":787,"x_min":82,"x_max":711,"o":"m 82 271 q 94 279 85 275 q 112 287 103 284 q 125 290 121 290 q 143 278 141 290 q 160 223 147 254 q 194 162 172 193 q 242 104 216 130 q 305 62 269 79 q 378 45 341 45 q 414 49 397 45 q 452 62 432 52 q 486 87 471 72 q 510 129 500 102 q 519 189 519 155 q 513 230 519 209 q 497 267 507 250 q 471 301 487 283 q 440 332 454 319 q 405 361 426 345 q 370 386 384 376 q 335 408 356 395 q 305 429 315 422 q 283 443 298 433 q 251 465 262 458 q 220 487 239 473 q 190 510 200 501 q 163 535 179 519 q 139 563 148 550 q 120 593 131 575 q 105 628 110 610 q 96 666 100 645 q 93 711 93 688 q 120 815 93 766 q 191 899 147 865 q 291 954 235 933 q 403 974 347 974 q 451 971 427 974 q 501 964 476 969 q 547 955 526 960 q 597 944 567 951 q 647 932 627 937 q 663 691 653 874 q 647 684 656 684 q 643 684 647 684 q 634 683 638 684 q 625 684 630 683 q 615 685 619 684 q 607 688 610 686 q 603 692 604 690 q 592 738 600 714 q 573 786 585 762 q 544 834 561 811 q 507 874 527 857 q 463 902 488 892 q 410 913 437 913 q 367 907 387 913 q 327 887 346 901 q 297 847 308 873 q 286 787 286 822 q 496 549 286 682 q 534 526 510 540 q 572 503 557 512 q 607 479 586 494 q 641 450 628 463 q 669 415 654 436 q 692 372 684 395 q 705 319 700 350 q 711 254 711 289 q 684 145 711 196 q 612 59 656 94 q 510 5 568 24 q 393 -15 453 -15 q 117 23 283 -15 q 96 148 106 66 q 82 271 85 231 m 264 -47 l 437 1015 q 445 1015 441 1015 q 455 1014 449 1015 q 466 1013 460 1014 q 477 1012 471 1013 q 487 1010 483 1011 q 494 1007 492 1008 q 496 1002 496 1005 l 323 -61 q 286 -58 307 -61 q 264 -47 264 -54 z "},"%":{"ha":1042,"x_min":59,"x_max":986,"o":"m 59 740 q 90 857 59 803 q 176 942 121 910 q 296 974 231 974 q 467 909 400 974 q 534 747 534 845 q 504 630 534 684 q 418 544 473 576 q 298 512 363 512 q 174 542 229 512 q 89 624 119 572 q 59 740 59 676 m 77 -12 l 861 960 q 922 980 884 980 q 939 975 932 980 q 947 964 947 970 l 163 -7 q 138 -23 157 -15 q 100 -31 119 -31 q 92 -30 96 -31 q 86 -27 88 -28 q 82 -23 83 -25 q 79 -19 80 -21 q 78 -16 79 -18 q 77 -13 77 -14 l 77 -12 m 203 760 q 210 691 203 725 q 228 626 216 656 q 261 577 240 596 q 309 559 281 559 q 340 566 326 559 q 363 586 354 573 q 377 615 372 600 q 386 650 383 630 q 390 687 389 671 q 391 724 391 704 q 384 794 391 760 q 366 860 378 829 q 332 909 353 890 q 284 928 311 928 q 259 924 271 928 q 240 912 248 920 q 226 894 232 904 q 216 871 220 884 q 210 845 212 858 q 205 817 207 833 q 204 788 204 800 q 203 760 203 775 m 511 228 q 542 345 511 291 q 627 430 572 398 q 747 462 682 462 q 919 397 852 462 q 986 235 986 333 q 955 118 986 172 q 869 32 924 64 q 749 0 814 0 q 577 65 644 0 q 511 228 511 131 m 654 248 q 661 179 654 213 q 679 114 667 144 q 712 65 691 84 q 760 47 733 47 q 791 54 777 47 q 814 74 805 61 q 828 103 823 87 q 837 138 834 118 q 841 175 840 159 q 842 213 842 192 q 835 282 842 248 q 817 348 829 317 q 783 397 804 378 q 735 416 762 416 q 704 409 718 416 q 681 389 690 402 q 667 360 673 375 q 659 323 661 345 q 655 286 656 302 q 654 248 654 269 z "},"&":{"ha":1057,"x_min":85,"x_max":1036,"o":"m 85 237 q 92 304 85 272 q 110 359 100 336 q 138 407 120 383 q 171 446 157 431 q 210 479 185 460 q 247 506 234 497 q 284 530 260 514 q 298 538 294 535 q 277 566 295 543 q 253 603 260 590 q 233 640 245 616 q 216 690 221 664 q 211 745 211 715 q 228 839 211 795 q 276 913 245 882 q 351 962 307 945 q 448 980 395 980 q 586 958 524 980 q 682 896 647 937 q 717 804 717 856 q 703 729 717 764 q 668 668 690 694 q 617 622 646 643 q 559 586 587 600 q 501 562 532 572 q 606 420 522 534 q 714 275 690 307 q 730 294 719 280 q 748 315 742 307 q 765 335 755 323 q 782 356 776 348 q 794 373 788 363 q 804 388 801 382 q 806 398 806 394 q 791 419 806 414 q 754 425 776 425 q 732 425 733 425 q 728 452 728 432 q 734 474 728 472 l 837 473 q 1031 477 893 471 q 1036 454 1036 475 q 1028 427 1035 433 q 1011 426 1027 427 q 981 423 996 425 q 950 416 967 421 q 924 404 932 412 q 894 374 916 398 q 848 322 871 350 q 797 264 824 294 q 757 220 770 234 q 766 209 757 220 q 783 189 775 198 q 804 166 791 180 q 828 144 817 153 q 850 128 838 135 q 869 121 861 121 q 890 126 879 121 q 909 137 901 131 q 927 154 918 144 q 943 171 937 165 q 956 189 948 178 q 966 202 964 200 q 980 198 973 202 q 994 189 987 195 q 1004 175 1000 182 q 989 149 1002 168 q 952 103 975 130 q 904 53 930 77 q 846 12 878 29 q 789 -5 815 -5 q 734 3 759 -5 q 689 26 710 10 q 655 55 668 42 q 621 91 642 68 q 360 -6 519 -6 q 296 1 328 -6 q 233 23 263 9 q 175 58 202 37 q 129 105 149 79 q 97 166 109 132 q 85 237 85 200 m 283 334 q 288 283 283 309 q 303 232 293 257 q 331 184 314 206 q 370 145 348 162 q 420 119 391 129 q 483 109 450 109 q 527 115 507 109 q 558 127 547 121 q 581 144 568 134 q 340 475 467 298 q 283 334 283 426 m 387 799 q 395 744 387 771 q 416 691 402 716 q 438 651 429 666 q 462 618 448 637 q 561 779 561 670 q 556 823 561 800 q 543 870 552 846 q 516 909 534 894 q 474 925 498 925 q 411 890 435 925 q 387 799 387 854 z "},"'":{"ha":275,"x_min":50,"x_max":219,"o":"m 50 952 q 82 1042 50 1004 q 161 1080 114 1080 q 219 1046 203 1080 q 216 1005 218 1040 q 212 956 213 969 q 208 910 210 943 q 203 858 205 877 q 198 810 201 838 q 191 759 195 783 q 184 714 188 736 q 168 698 179 707 q 144 685 156 690 q 126 694 133 685 q 112 732 121 706 q 96 772 102 758 q 82 810 91 787 q 69 849 74 833 q 59 885 64 865 q 52 921 54 904 q 50 952 50 938 z "},"(":{"ha":441,"x_min":50,"x_max":428,"o":"m 50 463 q 61 607 50 538 q 91 733 72 677 q 135 841 110 790 q 189 933 159 892 q 248 1007 218 974 q 309 1066 278 1041 q 365 1107 339 1090 q 413 1135 391 1124 q 423 1115 418 1132 q 427 1094 428 1098 q 382 1042 407 1076 q 328 950 357 1008 q 275 823 298 892 q 235 658 251 753 q 219 463 219 563 q 235 269 219 363 q 275 104 251 174 q 328 -23 298 35 q 382 -116 357 -82 q 427 -167 407 -150 q 426 -178 428 -170 q 420 -197 424 -187 q 413 -208 416 -206 q 357 -176 387 -196 q 292 -124 328 -157 q 222 -51 256 -91 q 157 44 189 -11 q 102 160 125 99 q 64 300 79 222 q 50 463 50 379 z "},")":{"ha":441,"x_min":14,"x_max":392,"o":"m 15 -167 q 51 -126 31 -153 q 95 -59 71 -100 q 142 36 119 -19 q 182 155 164 92 q 212 299 201 218 q 223 463 223 379 q 207 658 223 563 q 167 823 191 753 q 114 950 143 892 q 60 1042 84 1008 q 15 1094 35 1076 q 19 1115 14 1098 q 29 1135 24 1132 q 77 1107 52 1124 q 134 1066 103 1090 q 194 1007 164 1041 q 253 933 224 974 q 307 841 282 892 q 351 733 332 790 q 381 607 370 677 q 392 463 392 538 q 378 300 392 379 q 340 160 363 222 q 285 44 317 99 q 220 -51 253 -11 q 151 -124 186 -91 q 85 -176 115 -157 q 29 -208 55 -196 q 19 -188 24 -205 q 15 -167 14 -171 z "},"*":{"ha":669,"x_min":50,"x_max":610,"o":"m 52 696 q 55 730 50 713 q 76 761 61 747 q 114 779 92 774 q 161 782 138 785 q 201 771 185 779 q 239 759 217 764 q 279 757 260 754 q 299 766 298 758 q 293 783 300 770 q 269 813 283 799 q 240 837 254 827 q 210 863 227 846 q 181 901 193 880 q 172 962 164 932 q 202 1004 180 991 q 227 1011 214 1010 q 254 1008 240 1012 q 280 995 267 1005 q 301 970 292 985 q 317 926 313 949 q 320 885 321 902 q 320 846 318 867 q 330 806 321 824 q 345 790 337 791 q 359 796 353 790 q 384 838 375 814 q 405 889 393 862 q 436 939 416 916 q 472 963 451 956 q 511 965 493 969 q 541 951 529 962 q 561 903 560 932 q 539 846 562 875 q 502 817 523 828 q 464 802 481 806 q 426 790 446 799 q 392 768 406 782 q 381 749 381 756 q 393 736 381 742 q 441 726 415 727 q 497 722 468 724 q 555 708 526 720 q 598 665 586 695 q 599 610 610 634 q 559 577 587 587 q 498 581 532 568 q 465 601 479 588 q 442 626 451 613 q 424 651 433 639 q 404 676 415 664 q 378 696 392 688 q 377 696 378 696 q 373 699 376 697 q 367 701 370 700 q 361 702 364 701 q 357 701 359 702 q 351 688 353 698 q 355 640 349 665 q 369 586 362 614 q 372 527 376 558 q 344 473 369 494 q 295 456 319 453 q 249 484 268 460 q 234 541 231 507 q 247 587 237 566 q 269 622 258 608 q 292 653 281 635 q 307 691 303 672 q 304 713 309 707 q 290 714 302 716 q 245 695 267 709 q 198 666 223 681 q 143 644 173 651 q 83 654 110 637 q 52 696 57 671 z "},"+":{"ha":823,"x_min":47,"x_max":777,"o":"m 47 354 q 51 385 47 364 q 62 418 54 406 l 365 418 l 366 720 q 398 733 377 729 q 430 736 419 736 q 454 723 454 736 l 453 418 l 762 418 q 773 411 769 418 q 777 397 777 404 q 755 330 777 356 l 454 330 l 454 29 q 431 19 446 23 q 404 14 416 15 q 382 12 391 12 q 371 16 376 12 q 366 24 366 20 l 366 330 l 56 330 q 47 354 47 330 z "},",":{"ha":340,"x_min":29,"x_max":269,"o":"m 29 -202 q 58 -179 42 -194 q 93 -143 75 -164 q 124 -95 112 -122 q 137 -41 137 -67 q 132 -20 137 -29 q 118 -3 126 -10 q 100 13 110 3 q 83 33 91 22 q 69 62 75 43 q 64 103 64 80 q 67 124 64 112 q 78 152 70 136 q 99 180 86 168 q 133 202 111 193 q 181 211 154 211 q 248 187 214 211 q 256 167 252 178 q 263 142 260 155 q 267 116 266 130 q 269 88 269 102 q 263 27 269 58 q 246 -31 257 -3 q 220 -84 235 -58 q 187 -133 205 -111 q 149 -176 169 -156 q 106 -211 128 -195 q 61 -239 83 -227 q 49 -232 55 -237 q 38 -222 43 -227 q 32 -211 34 -216 q 29 -202 29 -205 z "},"-":{"ha":570,"x_min":85,"x_max":485,"o":"m 85 319 q 108 406 85 357 q 474 424 424 422 q 482 421 479 424 q 485 410 485 418 q 478 365 485 391 q 462 319 471 339 q 96 302 431 317 q 87 306 90 302 q 85 319 85 309 z "},".":{"ha":355,"x_min":64,"x_max":292,"o":"m 64 100 q 97 178 64 146 q 178 211 131 211 q 258 176 225 211 q 292 96 292 142 q 259 17 292 50 q 179 -17 226 -17 q 98 17 132 -17 q 64 100 64 52 z "},"/":{"ha":641,"x_min":44,"x_max":597,"o":"m 44 -43 l 494 1122 q 519 1145 500 1135 q 568 1156 538 1156 q 597 1144 594 1156 l 147 -21 q 125 -43 144 -33 q 71 -53 106 -53 q 54 -51 61 -53 q 46 -45 47 -48 l 44 -43 z "},":":{"ha":397,"x_min":85,"x_max":313,"o":"m 85 100 q 119 178 85 146 q 199 211 153 211 q 279 176 246 211 q 313 96 313 142 q 280 17 313 50 q 201 -17 247 -17 q 119 17 153 -17 q 85 100 85 52 m 85 544 q 119 622 85 589 q 199 654 153 654 q 279 620 246 654 q 313 539 313 585 q 280 460 313 494 q 201 427 247 427 q 119 461 153 427 q 85 544 85 495 z "},";":{"ha":385,"x_min":59,"x_max":299,"o":"m 59 -202 q 89 -179 73 -194 q 124 -143 105 -164 q 155 -95 142 -122 q 167 -41 167 -67 q 159 -17 167 -28 q 141 3 152 -6 q 120 24 131 13 q 102 56 109 35 q 94 103 94 76 q 96 120 94 111 q 103 142 98 130 q 118 166 109 155 q 139 189 127 178 q 170 205 151 199 q 211 211 189 211 q 278 187 245 211 q 287 167 283 178 q 293 142 290 155 q 298 116 296 130 q 299 88 299 102 q 288 4 299 46 q 257 -74 277 -38 q 210 -142 237 -110 q 154 -198 184 -174 q 91 -239 123 -222 q 69 -222 79 -235 q 59 -202 59 -210 m 75 545 q 109 624 75 591 q 190 656 143 656 q 267 624 235 656 q 298 545 298 591 q 267 463 298 498 q 190 427 235 427 q 109 463 143 427 q 75 545 75 499 z "},"<":{"ha":751,"x_min":45,"x_max":675,"o":"m 45 330 q 73 366 45 353 l 640 650 q 647 653 646 653 q 653 644 650 653 q 663 614 657 634 q 673 567 668 593 q 672 559 673 563 q 670 554 671 555 l 669 553 l 185 317 l 670 77 q 675 68 675 76 q 666 17 675 57 q 650 -23 656 -23 q 643 -20 648 -23 l 73 269 q 45 330 45 283 z "},"=":{"ha":849,"x_min":100,"x_max":754,"o":"m 108 203 q 101 225 100 207 q 112 267 102 243 q 132 293 122 290 l 745 293 q 753 272 754 290 q 744 232 753 254 q 724 203 735 209 l 108 203 m 108 422 q 101 444 100 425 q 112 486 102 463 q 132 512 122 509 l 745 512 q 753 491 754 509 q 744 450 753 473 q 724 422 735 427 l 108 422 z "},">":{"ha":751,"x_min":77,"x_max":707,"o":"m 77 68 l 82 77 l 567 317 l 83 553 q 82 554 83 553 q 79 559 81 555 q 79 567 78 563 q 85 597 82 583 q 92 621 89 611 q 97 639 94 631 q 102 650 100 646 q 105 653 104 653 q 113 650 106 653 l 679 366 q 707 330 707 353 q 679 269 707 283 l 109 -20 q 102 -23 103 -23 q 86 17 96 -23 q 77 68 77 57 z "},"?":{"ha":606,"x_min":82,"x_max":555,"o":"m 82 887 q 90 928 82 906 q 105 957 97 950 q 241 983 150 983 q 280 979 258 983 q 333 967 303 976 q 393 944 363 958 q 453 909 423 931 q 505 861 482 888 q 541 797 527 834 q 555 715 555 759 q 551 674 555 694 q 539 637 547 654 q 523 607 531 621 q 501 579 515 593 q 476 555 487 565 q 448 533 466 545 q 420 515 430 522 q 390 497 410 509 q 363 480 371 485 q 331 461 355 475 q 294 438 307 447 q 264 416 281 430 q 239 389 248 402 q 234 378 235 385 q 231 364 232 372 q 231 350 231 356 q 231 336 231 345 q 231 325 231 328 q 221 308 229 317 q 208 298 214 298 q 190 304 200 298 q 173 316 179 310 q 153 384 163 340 q 143 468 143 427 q 151 516 143 493 q 170 556 159 540 q 198 590 180 573 q 230 617 216 607 q 264 641 244 627 q 425 808 425 747 q 416 841 425 825 q 388 869 408 857 q 343 881 369 881 q 311 871 328 881 q 279 848 294 862 q 247 820 263 834 q 213 797 231 806 q 176 787 194 787 q 109 817 135 787 q 82 887 82 848 m 102 100 q 134 179 102 147 q 211 211 167 211 q 292 179 259 211 q 325 100 325 147 q 294 18 325 53 q 217 -17 262 -17 q 137 17 173 -17 q 102 100 102 51 z "},"@":{"ha":1165,"x_min":70,"x_max":1112,"o":"m 70 251 q 91 400 70 325 q 149 546 111 476 q 242 676 186 615 q 363 782 297 737 q 510 852 429 826 q 677 878 591 878 q 813 862 751 878 q 923 817 876 846 q 1006 748 970 788 q 1065 659 1042 708 q 1100 555 1088 610 q 1112 441 1112 500 q 1084 272 1112 355 q 1011 127 1057 189 q 904 27 966 66 q 777 -11 842 -11 q 722 -3 747 -11 q 674 20 696 5 q 640 61 652 35 q 627 120 627 87 q 633 164 627 148 q 600 113 622 141 q 550 58 578 85 q 486 11 522 30 q 418 -7 450 -7 q 373 -3 393 -7 q 333 14 353 1 q 300 47 313 26 q 279 102 287 68 q 271 182 271 136 q 290 296 271 237 q 343 408 310 355 q 423 511 376 462 q 520 595 469 559 q 628 652 571 631 q 736 673 684 673 q 829 667 778 673 q 903 653 881 661 l 817 193 q 812 155 812 175 q 812 144 812 153 q 812 131 812 136 q 813 118 812 127 q 817 104 814 109 q 823 94 819 100 q 833 86 827 89 q 848 83 839 83 q 897 101 870 83 q 950 151 924 119 q 997 225 976 184 q 1032 321 1019 267 q 1045 430 1045 375 q 1033 549 1045 493 q 991 655 1020 605 q 921 740 963 705 q 817 797 880 776 q 677 817 755 817 q 531 794 602 817 q 401 731 459 771 q 294 637 343 691 q 213 521 245 583 q 161 392 180 459 q 143 258 143 324 q 159 134 143 194 q 204 27 176 75 q 270 -56 233 -20 q 348 -117 306 -92 q 397 -141 373 -132 q 433 -152 421 -150 q 465 -158 444 -155 q 444 -178 465 -167 q 404 -189 422 -189 q 336 -175 371 -189 q 235 -116 283 -155 q 151 -23 188 -77 q 92 102 113 31 q 70 251 70 173 m 457 225 q 474 164 457 184 q 518 143 490 143 q 612 218 566 143 q 682 416 657 292 l 713 571 q 701 584 705 580 q 689 589 696 587 q 673 591 683 591 q 586 558 627 591 q 517 473 545 526 q 473 356 490 421 q 457 225 457 290 z "},"A":{"ha":1025,"x_min":-20,"x_max":1036,"o":"m -20 18 q -20 26 -20 22 q -17 49 -20 39 q 40 65 0 49 q 90 97 79 81 q 143 203 115 140 l 467 948 q 493 985 474 965 q 523 1006 511 1006 q 542 1002 532 1006 q 555 995 552 999 l 866 225 q 889 165 876 200 q 909 115 902 130 q 936 79 918 94 q 974 59 954 64 q 1007 52 995 54 q 1028 50 1019 50 q 1035 19 1034 39 q 1036 12 1035 16 q 1031 -6 1036 -3 q 943 0 1018 -5 q 828 6 867 6 q 754 4 797 6 q 662 -2 711 1 q 599 -6 612 -5 q 593 25 593 -1 q 599 50 593 50 q 647 58 621 50 q 688 77 673 65 q 702 103 702 89 q 679 167 702 109 q 633 279 656 225 l 610 334 q 600 340 605 340 q 454 342 571 342 q 296 340 349 342 q 286 333 290 340 q 231 205 248 248 q 208 142 219 176 q 197 102 197 109 q 214 77 197 88 q 252 61 230 66 q 291 53 274 56 q 315 50 308 50 q 320 20 321 41 q 316 -6 320 -1 q 152 6 210 6 q 118 5 135 6 q 91 4 101 5 q 62 2 81 4 q 38 0 43 1 q 11 -3 33 -1 q -14 -6 -11 -6 q -20 18 -18 -1 m 319 425 q 322 419 319 419 q 448 415 368 415 q 570 418 523 415 q 572 420 571 418 q 574 423 573 422 l 574 425 l 448 723 l 319 425 z "},"B":{"ha":940,"x_min":52,"x_max":887,"o":"m 52 25 q 58 52 52 43 q 155 77 148 58 q 165 129 163 98 q 167 220 167 159 l 167 779 q 166 841 167 821 q 163 884 166 861 q 155 922 161 907 q 151 928 154 925 q 142 933 147 931 q 131 937 136 935 q 118 940 125 939 q 104 942 110 941 q 90 944 98 943 q 77 945 81 945 q 66 946 73 945 q 58 947 59 946 q 52 973 52 954 q 53 975 53 975 q 58 1002 53 996 q 275 998 126 998 q 382 1000 304 998 q 507 1002 460 1002 q 594 995 551 1002 q 676 968 636 987 q 747 923 717 950 q 796 855 777 897 q 814 762 814 814 q 801 696 814 728 q 768 642 787 664 q 725 601 749 619 q 683 572 701 582 q 650 556 665 562 q 641 549 641 553 l 643 547 q 697 532 667 544 q 762 498 728 521 q 823 447 795 476 q 869 378 851 418 q 887 292 887 337 q 844 154 887 218 q 728 45 800 89 q 656 15 696 26 q 578 0 617 3 q 496 -5 540 -3 q 453 -5 475 -5 q 412 -5 432 -5 l 58 -5 q 52 25 52 3 m 380 165 q 392 77 380 96 q 488 59 405 59 q 531 65 510 59 q 574 87 553 72 q 612 126 596 103 q 638 186 629 149 q 648 267 648 222 q 643 336 648 303 q 623 400 637 368 q 588 454 609 431 q 534 491 567 477 q 458 505 500 505 l 380 505 l 380 165 m 380 564 l 458 564 q 553 610 517 564 q 589 740 589 656 q 463 942 589 942 q 437 941 448 942 q 415 939 427 941 q 397 933 404 937 q 387 924 390 930 q 380 831 380 905 l 380 564 z "},"C":{"ha":1023,"x_min":61,"x_max":979,"o":"m 61 489 q 103 694 61 597 q 215 861 144 791 q 383 972 286 931 q 587 1013 480 1013 q 750 1005 663 1013 q 903 985 836 998 q 928 875 903 984 q 954 755 954 766 q 948 745 954 751 q 932 736 942 740 q 914 732 923 732 q 893 739 899 732 q 885 764 890 751 q 871 796 880 778 q 850 831 863 814 q 821 865 838 848 q 783 897 805 883 q 734 923 760 911 q 673 942 708 935 q 600 948 639 948 q 487 925 538 948 q 403 864 437 903 q 347 772 370 825 q 314 660 324 719 q 304 534 304 600 q 312 417 304 474 q 337 306 321 359 q 381 207 354 252 q 444 128 408 161 q 527 75 479 94 q 631 56 574 56 q 819 121 748 56 q 874 193 848 147 q 911 268 900 239 q 925 310 922 297 q 979 292 958 310 q 955 168 979 270 q 916 61 931 66 q 841 34 866 43 q 769 13 815 26 q 678 -5 723 0 q 583 -11 633 -11 q 381 27 477 -11 q 215 131 286 66 q 103 290 144 197 q 61 489 61 384 z "},"D":{"ha":1156,"x_min":52,"x_max":1090,"o":"m 52 25 q 58 52 52 43 q 155 77 148 58 q 165 129 163 98 q 167 220 167 159 l 167 779 q 166 841 167 821 q 163 884 166 861 q 155 922 161 907 q 151 928 154 925 q 142 933 147 931 q 131 937 136 935 q 118 940 125 939 q 104 942 110 941 q 90 944 98 943 q 77 945 81 945 q 66 946 73 945 q 58 947 59 946 q 52 973 52 954 q 53 975 53 975 q 58 1002 53 996 q 275 998 126 998 q 394 1000 311 998 q 507 1002 477 1002 q 747 969 639 1002 q 931 873 854 936 q 1049 718 1007 811 q 1090 511 1090 625 q 1060 321 1090 406 q 976 175 1030 235 q 847 75 922 115 q 685 15 772 34 q 496 -5 597 -5 l 58 -5 q 52 25 52 3 m 380 214 q 392 94 380 125 q 428 69 399 79 q 488 59 456 59 q 761 165 673 59 q 849 494 849 271 q 821 689 849 603 q 741 830 792 775 q 619 913 689 885 q 463 942 549 942 q 437 941 448 942 q 415 939 427 941 q 397 933 404 937 q 387 924 390 930 q 380 831 380 905 l 380 214 z "},"E":{"ha":914,"x_min":52,"x_max":881,"o":"m 52 25 q 58 52 52 43 q 155 77 148 58 q 165 129 163 98 q 167 220 167 159 l 167 779 q 166 841 167 821 q 163 884 166 861 q 155 922 161 907 q 151 928 154 925 q 142 933 147 931 q 131 937 136 935 q 118 940 125 939 q 104 942 110 941 q 90 944 98 943 q 77 945 81 945 q 66 946 73 945 q 58 947 59 946 q 52 973 52 954 q 53 975 53 975 q 58 1002 53 996 q 275 998 126 998 q 526 1003 312 998 q 768 1008 741 1008 q 781 937 773 975 q 799 851 788 899 q 812 784 809 804 q 804 780 810 782 q 790 777 798 778 q 778 777 783 777 q 753 789 758 777 q 727 848 740 824 q 695 896 714 873 q 649 930 675 919 q 589 942 623 942 l 463 942 q 437 941 448 942 q 415 939 427 941 q 397 933 404 937 q 387 924 390 930 q 380 831 380 905 l 380 559 q 400 547 380 552 q 445 543 420 543 l 526 543 q 581 546 561 543 q 617 563 602 550 q 641 595 632 576 q 659 648 650 614 q 677 661 662 661 q 707 653 699 661 l 707 361 q 679 355 701 355 q 658 368 661 355 q 639 422 650 401 q 621 450 628 444 q 605 460 614 456 q 489 471 579 471 q 380 450 380 471 l 380 214 q 392 94 380 125 q 413 77 396 84 q 449 67 429 70 q 491 64 469 64 l 591 64 q 732 114 682 64 q 814 258 777 158 q 836 267 817 267 q 848 267 841 267 q 862 264 856 266 q 874 261 869 263 q 881 258 880 260 q 863 208 878 249 q 842 148 848 167 q 825 96 836 129 q 808 40 814 64 q 799 -3 802 16 q 58 -5 117 -3 q 52 25 52 3 z "},"F":{"ha":833,"x_min":52,"x_max":812,"o":"m 52 24 q 58 50 52 42 q 155 77 147 57 q 165 129 163 98 q 167 220 167 159 l 167 779 q 166 841 167 821 q 163 884 166 861 q 155 922 161 907 q 151 928 154 925 q 142 933 147 931 q 131 937 136 935 q 118 940 125 939 q 104 942 110 941 q 90 944 98 943 q 77 945 81 945 q 66 946 73 945 q 58 947 59 946 q 52 973 52 954 q 53 975 53 975 q 58 1002 53 996 q 275 998 126 998 q 526 1003 312 998 q 768 1008 741 1008 q 781 937 773 975 q 799 851 788 899 q 812 784 809 804 q 804 780 810 782 q 790 777 798 778 q 778 777 783 777 q 753 789 758 777 q 727 848 740 824 q 695 896 714 873 q 649 930 675 919 q 589 942 623 942 l 463 942 q 437 941 448 942 q 415 939 427 941 q 397 933 404 937 q 387 924 390 930 q 380 831 380 905 l 380 553 q 400 541 380 546 q 445 536 420 536 l 526 536 q 581 540 561 536 q 617 557 602 544 q 641 589 632 570 q 659 643 650 608 q 677 654 662 654 q 707 647 699 654 l 707 355 q 679 349 701 349 q 658 361 661 349 q 639 416 650 395 q 621 444 628 437 q 605 454 614 450 q 489 465 579 465 q 380 444 380 465 l 380 220 q 380 173 380 189 q 381 137 380 158 q 385 102 382 116 q 392 77 387 88 q 503 50 399 58 q 508 22 508 42 q 503 -6 508 1 q 272 5 399 5 q 58 -6 161 5 q 52 24 52 1 z "},"G":{"ha":1097,"x_min":61,"x_max":1072,"o":"m 61 489 q 103 691 61 594 q 215 858 144 787 q 383 971 286 928 q 587 1013 480 1013 q 750 1005 663 1013 q 903 985 836 998 q 928 875 903 984 q 954 755 954 766 q 948 745 954 751 q 932 736 942 740 q 914 732 923 732 q 893 739 899 732 q 884 769 889 753 q 867 806 878 784 q 840 846 855 827 q 802 884 825 865 q 752 917 779 903 q 686 939 724 930 q 603 948 647 948 q 486 924 538 948 q 400 861 434 901 q 345 767 367 822 q 313 653 322 712 q 304 527 304 593 q 316 387 304 455 q 356 258 329 319 q 420 153 382 198 q 510 81 457 107 q 626 55 564 55 q 745 79 690 55 q 758 102 758 86 l 758 278 q 758 292 758 281 q 758 304 758 302 q 758 315 758 307 q 756 328 758 323 q 754 340 755 332 q 751 355 753 347 q 738 374 747 366 q 716 387 728 382 q 690 393 705 391 q 667 396 675 395 q 650 397 658 397 q 644 422 644 397 q 648 453 643 447 q 722 449 675 452 q 808 445 769 447 q 881 444 846 444 q 919 444 899 444 q 958 446 939 445 q 994 448 977 447 q 1032 450 1011 449 q 1068 453 1053 452 q 1070 439 1069 447 q 1072 424 1072 431 q 1071 411 1072 417 q 1069 400 1070 404 q 1066 397 1067 397 q 1044 394 1060 397 q 1011 387 1029 391 q 986 377 994 382 q 979 368 983 374 q 974 353 976 361 q 969 333 971 344 q 968 311 968 322 l 968 149 q 972 124 968 141 q 977 105 977 108 q 924 65 977 85 q 847 38 876 47 q 772 15 819 28 q 680 -5 726 1 q 583 -11 633 -11 q 381 27 477 -11 q 214 131 285 66 q 102 290 144 197 q 61 489 61 384 z "},"H":{"ha":1125,"x_min":52,"x_max":1074,"o":"m 52 24 q 58 50 52 42 q 155 77 147 57 q 165 129 163 98 q 167 220 167 159 l 167 779 q 166 841 167 821 q 163 884 166 861 q 155 922 161 907 q 58 949 147 943 q 52 976 52 957 q 53 978 53 977 q 58 1006 53 998 q 275 995 161 995 q 489 1006 385 995 q 494 978 494 998 q 489 949 494 958 q 392 922 400 943 q 382 871 384 901 q 380 779 380 840 l 380 564 q 380 561 380 562 q 382 559 381 560 l 382 559 q 438 557 401 559 q 506 555 475 556 q 567 555 536 555 q 745 559 581 555 q 747 565 747 562 l 746 779 q 746 826 746 811 q 744 863 745 842 q 741 897 743 884 q 734 922 738 911 q 637 949 726 943 q 631 978 631 958 q 637 1006 631 998 q 854 995 740 995 q 1068 1006 964 995 q 1073 978 1073 998 q 1074 976 1073 977 q 1068 949 1074 958 q 970 922 979 943 q 960 871 962 901 q 958 779 958 840 l 958 220 q 959 182 958 195 q 959 151 959 170 q 961 121 960 132 q 965 98 962 111 q 970 77 967 86 q 1068 50 979 57 q 1074 24 1074 43 q 1073 22 1073 22 q 1068 -6 1073 1 q 850 5 964 5 q 637 -6 740 5 q 631 22 631 1 q 637 50 631 42 q 734 77 726 57 q 744 129 742 98 q 746 220 746 159 l 746 471 l 743 479 q 567 481 631 481 q 381 475 391 481 l 380 469 l 380 220 q 380 173 380 189 q 381 137 380 158 q 385 102 382 116 q 392 77 387 88 q 489 50 400 57 q 494 22 494 42 q 489 -6 494 1 q 272 5 385 5 q 58 -6 161 5 q 52 24 52 1 z "},"I":{"ha":547,"x_min":52,"x_max":494,"o":"m 52 24 q 58 50 52 42 q 155 77 147 57 q 165 129 163 98 q 167 220 167 159 l 167 779 q 166 841 167 821 q 163 884 166 861 q 155 922 161 907 q 58 949 147 943 q 52 976 52 957 q 53 978 53 977 q 58 1006 53 998 q 275 995 161 995 q 489 1006 385 995 q 494 978 494 998 q 494 976 494 977 q 489 949 494 958 q 392 922 400 943 q 382 871 384 901 q 380 779 380 840 l 380 220 q 380 173 380 189 q 381 137 380 158 q 385 102 382 116 q 392 77 387 88 q 489 50 400 57 q 494 24 494 43 q 494 22 494 22 q 489 -6 494 1 q 272 5 385 5 q 58 -6 161 5 q 52 24 52 1 z "},"J":{"ha":524,"x_min":-190,"x_max":486,"o":"m -190 -239 q -162 -168 -190 -199 q -99 -137 -135 -137 q -12 -187 -59 -137 q 0 -199 -9 -190 q 13 -212 9 -209 q 24 -222 16 -216 q 36 -231 31 -229 q 47 -236 41 -234 q 59 -239 54 -239 q 85 -233 73 -239 q 106 -216 97 -228 q 123 -191 115 -204 q 135 -155 130 -177 q 144 -112 140 -132 q 151 -60 149 -92 q 155 -2 153 -28 q 157 62 156 23 q 158 131 157 102 q 158 205 158 160 l 158 779 q 158 841 158 821 q 155 884 157 861 q 146 922 152 907 q 49 949 138 943 q 44 978 43 958 q 49 1006 44 998 q 266 995 153 995 q 480 1006 376 995 q 486 976 486 998 q 480 949 486 957 q 382 922 391 943 q 374 884 377 907 q 371 841 372 861 q 371 779 371 821 l 371 217 q 339 -14 371 89 q 250 -187 308 -117 q 108 -294 191 -257 q -79 -331 24 -331 q -111 -327 -93 -331 q -144 -316 -129 -322 q -165 -304 -159 -309 q -170 -297 -167 -302 q -175 -289 -174 -292 q -179 -281 -176 -287 q -184 -272 -182 -276 q -187 -263 -185 -269 q -189 -251 -189 -257 q -190 -239 -190 -245 z "},"K":{"ha":1092,"x_min":52,"x_max":1112,"o":"m 52 24 q 58 50 52 42 q 155 77 147 57 q 165 129 163 98 q 167 220 167 159 l 167 779 q 166 841 167 821 q 163 884 166 861 q 155 922 161 907 q 58 949 147 943 q 52 976 52 957 q 53 978 53 977 q 58 1006 53 998 q 275 995 161 995 q 489 1006 385 995 q 494 978 494 998 q 489 949 494 958 q 392 922 400 943 q 382 871 384 901 q 380 779 380 840 l 380 512 q 538 650 487 597 q 586 699 554 667 q 630 743 617 730 q 663 779 642 756 q 701 821 684 801 q 735 866 717 841 q 751 916 751 886 q 741 935 751 927 q 715 946 731 943 q 688 950 700 949 q 665 951 677 951 q 659 978 660 960 q 663 1006 659 996 q 723 1002 680 1004 q 800 997 765 999 q 860 995 835 995 q 1048 1006 950 995 q 1051 979 1052 998 q 1045 952 1050 959 q 1027 950 1035 951 q 995 944 1019 949 q 953 932 972 939 q 912 913 935 926 q 873 886 889 901 q 588 591 702 711 q 583 567 576 578 l 857 197 q 925 127 888 157 q 990 83 962 98 q 1047 61 1019 69 q 1088 52 1076 53 q 1109 50 1101 50 q 1112 28 1112 42 q 1112 19 1112 24 q 1109 -6 1111 -2 q 910 -12 1021 -12 q 830 -2 868 -12 q 764 26 792 8 q 714 62 735 43 q 677 102 693 81 q 609 194 661 125 q 496 344 558 262 q 410 458 435 426 q 395 465 404 465 q 380 456 385 465 l 380 220 q 380 173 380 189 q 381 137 380 158 q 385 102 382 116 q 392 77 387 88 q 489 50 400 57 q 494 22 494 42 q 489 -6 494 1 q 272 5 385 5 q 58 -6 161 5 q 52 24 52 1 z "},"L":{"ha":879,"x_min":52,"x_max":881,"o":"m 52 25 q 58 52 52 43 q 155 77 148 58 q 165 129 163 98 q 167 220 167 159 l 167 779 q 166 841 167 821 q 163 884 166 861 q 155 922 161 907 q 58 949 147 943 q 52 976 52 957 q 53 978 53 977 q 58 1006 53 998 q 275 995 161 995 q 489 1006 385 995 q 494 978 494 998 q 489 949 494 958 q 392 922 400 943 q 382 871 384 901 q 380 779 380 840 l 380 214 q 392 94 380 125 q 413 77 396 84 q 449 67 429 70 q 491 64 469 64 l 591 64 q 732 114 682 64 q 814 258 777 158 q 836 267 817 267 q 848 267 841 267 q 862 264 856 266 q 874 261 869 263 q 881 258 880 260 q 863 208 878 249 q 842 148 848 167 q 825 96 836 129 q 808 40 814 64 q 799 -3 802 16 l 275 -3 q 178 -3 228 -3 q 97 -4 129 -4 q 58 -5 64 -5 q 52 25 52 3 z "},"M":{"ha":1377,"x_min":25,"x_max":1339,"o":"m 25 22 q 29 49 25 39 q 55 52 37 49 q 94 61 72 55 q 134 78 115 67 q 158 103 152 90 q 169 163 162 113 q 176 237 175 214 q 186 458 180 315 q 196 732 191 601 q 202 882 201 864 q 195 916 202 905 q 151 939 186 928 q 96 949 117 949 q 91 981 90 960 q 96 1006 92 1002 q 171 1000 121 1004 q 260 996 220 996 q 346 1001 290 996 q 419 1006 401 1005 q 707 361 531 759 q 713 359 711 359 q 716 362 713 359 q 719 368 719 366 q 898 829 833 648 q 921 901 909 859 q 941 972 934 943 l 948 1000 q 1023 997 958 998 q 1112 995 1088 995 q 1206 1000 1142 995 q 1290 1006 1271 1005 q 1298 979 1295 1000 q 1296 948 1301 958 q 1255 943 1282 948 q 1217 931 1227 938 q 1199 910 1204 922 q 1196 869 1194 898 q 1201 708 1197 829 q 1210 451 1205 587 q 1218 231 1215 315 q 1219 212 1219 228 q 1220 192 1220 196 q 1221 174 1221 188 q 1223 155 1222 160 q 1224 139 1223 150 q 1227 121 1225 127 q 1230 106 1228 115 q 1234 91 1232 98 q 1238 77 1236 84 q 1279 57 1244 64 q 1334 50 1314 50 q 1339 23 1337 41 q 1339 15 1339 19 q 1337 -6 1339 3 q 1247 0 1324 -5 q 1131 6 1169 6 q 1057 4 1099 6 q 965 -2 1014 1 q 892 -6 917 -5 q 886 20 887 -1 q 888 50 885 41 q 949 58 911 50 q 995 79 986 65 q 1004 104 1000 87 q 1007 132 1007 120 q 1006 225 1007 197 l 990 755 q 980 795 990 795 q 972 784 977 795 l 705 61 q 692 38 702 53 q 667 11 682 24 q 640 -3 652 -3 q 626 0 635 -3 l 288 795 q 280 564 283 673 q 274 382 276 455 q 267 203 271 309 q 267 193 267 198 q 269 144 267 172 q 273 99 271 107 q 332 64 279 79 q 406 50 385 50 q 411 24 410 41 q 409 -6 412 6 q 325 0 391 -5 q 220 6 259 6 q 119 1 181 6 q 31 -6 57 -5 q 25 22 25 2 z "},"N":{"ha":1154,"x_min":45,"x_max":1126,"o":"m 45 14 q 45 23 45 18 q 45 39 45 33 q 49 50 47 50 q 117 61 73 50 q 170 90 162 72 q 179 126 175 100 q 186 183 184 152 q 189 243 189 214 l 189 781 q 181 858 189 818 q 161 918 174 898 q 116 940 152 930 q 61 949 80 949 q 54 975 55 949 q 58 1006 52 1000 q 94 1003 71 1005 q 135 999 117 1001 q 179 996 153 998 q 229 995 205 995 q 395 1006 310 995 q 473 886 415 964 q 587 738 530 808 q 739 552 644 668 q 882 377 835 437 q 886 439 886 387 l 886 723 q 881 838 886 774 q 869 918 876 902 q 835 938 863 930 q 784 948 807 946 q 746 951 760 951 q 743 962 744 951 q 742 987 741 973 q 746 1007 743 1001 q 833 1000 773 1006 q 931 995 892 995 q 1038 1001 970 995 q 1122 1007 1105 1006 q 1126 979 1126 998 q 1120 949 1126 960 q 1083 948 1105 949 q 1030 938 1061 946 q 994 914 999 929 q 983 836 988 899 q 979 728 979 772 l 979 211 q 985 -1 979 157 q 947 -7 979 -7 q 899 27 926 -7 l 281 789 l 281 239 q 286 153 281 199 q 298 91 292 108 q 319 73 301 81 q 360 60 338 64 q 399 54 382 56 q 422 52 416 52 q 429 22 429 41 q 425 -6 429 3 q 340 0 408 -5 q 234 6 273 6 q 135 1 195 6 q 49 -6 76 -5 q 45 14 45 0 z "},"O":{"ha":1154,"x_min":61,"x_max":1094,"o":"m 81 362 q 71 395 81 362 q 61 498 61 429 q 81 635 61 568 q 135 758 100 702 q 219 862 170 814 q 325 943 268 910 q 446 995 381 976 q 577 1013 511 1013 q 708 995 643 1013 q 830 943 773 976 q 936 862 887 910 q 1019 758 985 814 q 1074 635 1054 702 q 1094 498 1094 568 q 1074 362 1094 429 q 1019 239 1054 295 q 936 135 985 182 q 830 55 887 87 q 708 3 773 22 q 577 -15 643 -15 q 446 3 511 -15 q 325 55 381 22 q 219 135 268 87 q 135 239 170 182 q 81 362 100 295 m 304 551 q 311 433 304 491 q 333 318 318 376 q 372 213 347 261 q 429 129 397 165 q 508 71 462 92 q 609 50 554 50 q 690 66 653 50 q 752 112 726 83 q 798 178 778 140 q 828 260 817 215 q 845 351 840 305 q 850 444 850 396 q 843 562 850 503 q 821 677 836 620 q 780 783 806 734 q 722 869 755 831 q 642 927 689 906 q 541 948 595 948 q 461 931 497 948 q 400 886 425 915 q 355 819 374 857 q 325 736 336 781 q 309 645 314 690 q 304 551 304 600 z "},"P":{"ha":888,"x_min":52,"x_max":859,"o":"m 52 24 q 58 50 52 42 q 155 77 147 57 q 165 129 163 98 q 167 220 167 159 l 167 779 q 166 841 167 821 q 163 884 166 861 q 155 922 161 907 q 151 928 154 925 q 142 933 147 931 q 131 937 136 935 q 118 940 125 939 q 104 942 110 941 q 90 944 98 943 q 77 945 81 945 q 66 946 73 945 q 58 947 59 946 q 52 973 52 954 q 53 975 53 975 q 58 1002 53 996 q 275 998 126 998 q 382 1000 304 998 q 509 1002 461 1002 q 644 984 581 1002 q 755 933 707 966 q 831 847 803 899 q 859 732 859 795 q 832 609 859 666 q 763 515 806 553 q 666 457 720 478 q 553 436 611 436 q 488 448 517 436 q 448 471 460 460 q 443 481 446 474 q 439 495 440 488 q 437 509 437 503 q 442 519 437 519 q 505 513 463 513 q 596 568 560 513 q 632 711 632 623 q 620 798 632 756 q 586 871 608 840 q 532 923 564 903 q 463 942 500 942 q 437 941 448 942 q 415 939 427 941 q 397 933 404 937 q 387 924 390 930 q 380 831 380 905 l 380 220 q 380 173 380 189 q 381 137 380 158 q 385 102 382 116 q 392 77 387 88 q 489 50 400 57 q 494 22 494 42 q 489 -6 494 1 q 272 5 385 5 q 58 -6 161 5 q 52 24 52 1 z "},"Q":{"ha":1154,"x_min":61,"x_max":1217,"o":"m 61 498 q 81 635 61 568 q 135 758 100 702 q 219 862 170 814 q 325 943 268 910 q 446 995 381 976 q 577 1013 511 1013 q 708 995 643 1013 q 830 943 773 976 q 936 862 887 910 q 1019 758 985 814 q 1074 635 1054 702 q 1094 498 1094 568 q 1065 336 1094 415 q 988 194 1037 256 q 873 83 939 131 q 732 11 807 36 q 805 -28 765 -5 q 868 -63 845 -50 q 924 -88 892 -75 q 991 -107 956 -101 q 1071 -113 1026 -113 q 1112 -111 1092 -113 q 1144 -106 1132 -109 q 1166 -102 1156 -104 q 1179 -100 1176 -100 q 1190 -103 1183 -100 q 1203 -110 1197 -105 q 1214 -120 1210 -115 l 1217 -127 q 1060 -190 1149 -163 q 905 -217 971 -217 q 811 -200 859 -217 q 722 -155 764 -182 q 639 -99 680 -127 q 550 -42 598 -70 q 457 0 501 -14 q 303 69 376 22 q 177 180 231 116 q 92 328 123 245 q 61 498 61 410 m 304 551 q 311 433 304 491 q 333 318 318 376 q 372 213 347 261 q 429 129 397 165 q 508 71 462 92 q 609 50 554 50 q 690 66 653 50 q 752 112 726 83 q 798 178 778 140 q 828 260 817 215 q 845 351 840 305 q 850 444 850 396 q 843 562 850 503 q 821 677 836 620 q 780 783 806 734 q 722 869 755 831 q 642 927 689 906 q 541 948 595 948 q 461 931 497 948 q 400 886 425 915 q 355 819 374 857 q 325 736 336 781 q 309 645 314 690 q 304 551 304 600 z "},"R":{"ha":1053,"x_min":52,"x_max":1111,"o":"m 52 24 q 58 50 52 42 q 155 77 147 57 q 165 129 163 98 q 167 220 167 159 l 167 779 q 166 841 167 821 q 163 884 166 861 q 155 922 161 907 q 151 928 154 925 q 142 933 147 931 q 131 937 136 935 q 118 940 125 939 q 104 942 110 941 q 90 944 98 943 q 77 945 81 945 q 66 946 73 945 q 58 947 59 946 q 52 973 52 954 q 53 975 53 975 q 58 1002 53 996 q 275 998 126 998 q 382 1000 304 998 q 509 1002 461 1002 q 641 985 581 1002 q 746 933 701 967 q 817 846 791 899 q 842 726 842 793 q 834 674 842 701 q 813 626 827 648 q 783 583 800 604 q 747 545 766 562 q 708 515 728 528 q 669 493 688 502 q 635 480 651 484 q 739 343 684 414 q 825 235 794 273 l 855 197 q 924 127 887 157 q 989 83 960 98 q 1046 61 1017 69 q 1087 52 1075 53 q 1107 50 1099 50 q 1111 28 1111 42 q 1111 19 1111 24 q 1107 -6 1109 -2 q 909 -12 1019 -12 q 829 -2 867 -12 q 762 26 791 8 q 712 62 733 43 q 676 102 692 81 l 430 431 q 403 454 414 454 l 380 454 l 380 220 q 380 173 380 189 q 381 137 380 158 q 385 102 382 116 q 392 77 387 88 q 489 50 400 57 q 494 22 494 42 q 489 -6 494 1 q 272 5 385 5 q 58 -6 161 5 q 52 24 52 1 m 380 513 l 450 513 q 566 569 517 513 q 615 711 615 625 q 611 781 615 749 q 597 844 608 813 q 571 896 587 875 q 527 929 554 916 q 463 942 500 942 q 437 941 448 942 q 415 939 427 941 q 397 933 404 937 q 387 924 390 930 q 380 831 380 905 l 380 513 z "},"S":{"ha":791,"x_min":71,"x_max":728,"o":"m 71 283 q 83 292 74 287 q 102 300 93 297 q 115 304 111 304 q 135 292 133 304 q 153 235 140 266 q 189 171 166 203 q 239 111 212 138 q 305 66 267 83 q 381 49 342 49 q 437 57 412 49 q 484 82 463 65 q 517 127 505 98 q 529 196 529 157 q 522 236 529 216 q 505 273 514 256 q 477 309 496 289 q 445 340 458 328 q 408 372 433 353 q 372 398 382 391 q 335 423 361 406 q 304 444 309 441 q 289 453 299 447 q 254 477 266 469 q 221 501 242 486 q 188 526 199 516 q 160 553 177 536 q 133 584 142 570 q 113 616 124 597 q 96 654 101 635 q 86 695 90 672 q 82 743 82 718 q 111 851 82 800 q 185 939 139 903 q 289 997 231 975 q 406 1018 347 1018 q 473 1014 437 1018 q 530 1004 508 1009 q 596 989 552 1000 q 661 975 641 979 q 677 723 670 880 q 661 714 671 714 q 615 724 618 714 q 601 781 612 751 q 572 842 591 811 q 531 898 554 873 q 478 938 509 922 q 413 954 447 954 q 368 947 389 954 q 327 926 347 941 q 296 885 307 912 q 284 822 284 859 q 292 782 284 802 q 311 744 300 761 q 342 706 322 726 q 378 671 362 686 q 421 637 395 657 q 463 607 447 618 q 505 578 478 597 q 528 564 512 574 q 586 524 566 538 q 638 480 606 509 q 686 424 670 451 q 715 355 702 397 q 728 266 728 314 q 700 152 728 205 q 625 62 671 98 q 519 6 578 26 q 397 -15 459 -15 q 108 24 277 -15 q 86 157 98 70 q 71 283 74 243 z "},"T":{"ha":963,"x_min":12,"x_max":951,"o":"m 12 743 l 53 1023 q 71 1027 62 1027 q 92 1022 79 1027 q 119 1013 105 1018 q 163 1003 134 1007 q 229 998 192 998 l 734 998 q 801 1003 771 998 q 844 1013 830 1007 q 871 1022 858 1018 q 892 1027 884 1027 q 910 1023 901 1027 l 951 743 q 932 736 947 739 q 907 732 918 732 q 892 740 894 732 q 833 873 880 816 q 729 931 786 931 l 588 931 l 588 220 q 588 173 588 189 q 590 137 589 158 q 593 102 591 116 q 600 77 595 88 q 697 50 608 57 q 702 22 703 42 q 697 -6 702 1 q 480 5 593 5 q 266 -6 370 5 q 261 22 261 1 q 266 50 260 42 q 363 77 355 57 q 373 129 371 98 q 375 220 375 159 l 375 931 l 234 931 q 130 873 177 931 q 71 740 83 816 q 56 732 69 732 q 31 736 46 732 q 12 743 16 739 z "},"U":{"ha":1109,"x_min":28,"x_max":1108,"o":"m 33 1006 q 251 995 137 995 q 465 1006 361 995 q 470 978 470 998 q 465 949 470 958 q 368 922 376 943 q 357 871 359 901 q 355 779 355 840 l 355 501 q 362 354 355 411 q 393 241 370 297 q 625 96 456 96 q 697 109 662 96 q 764 151 732 122 q 819 223 795 180 q 857 329 842 265 q 871 469 871 392 l 871 728 q 864 835 871 779 q 849 913 858 891 q 735 949 837 941 q 730 978 730 958 q 735 1006 730 998 q 925 995 860 995 q 1024 1000 964 995 q 1103 1006 1085 1005 q 1108 978 1108 998 q 1108 976 1108 977 q 1103 949 1108 958 q 1094 949 1102 949 q 1081 948 1086 948 q 1066 946 1076 947 q 1050 944 1057 945 q 1034 941 1043 943 q 1017 936 1024 939 q 1004 930 1010 934 q 992 923 997 927 q 986 913 988 918 q 971 836 977 891 q 964 729 964 780 l 964 435 q 942 269 964 344 q 881 143 920 195 q 789 55 842 91 q 676 3 736 20 q 549 -14 615 -14 q 365 20 449 -14 q 228 120 281 54 q 179 206 198 157 q 152 316 161 254 q 143 457 143 378 l 143 779 q 142 841 143 821 q 139 884 142 861 q 131 922 136 907 q 33 949 123 943 q 28 976 28 957 q 33 1006 28 998 z "},"V":{"ha":1039,"x_min":-10,"x_max":1066,"o":"m -5 1006 q 213 995 99 995 q 427 1006 323 995 q 432 978 432 998 q 427 949 432 958 q 419 949 427 949 q 407 948 411 948 q 394 946 403 947 q 380 944 385 945 q 367 941 374 943 q 354 936 359 939 q 344 929 349 932 q 337 920 339 925 q 334 909 334 915 q 371 795 334 880 l 597 283 q 798 791 783 749 q 805 811 800 797 q 812 834 810 826 q 819 855 815 842 q 825 877 823 868 q 829 895 827 885 q 831 913 831 905 q 709 949 831 940 q 704 978 704 958 q 709 1006 705 998 q 742 1003 720 1005 q 773 1000 764 1001 q 800 998 782 1000 q 829 996 817 997 q 857 995 840 996 q 890 995 873 995 q 947 997 920 995 q 1006 1002 975 999 q 1061 1006 1037 1004 q 1066 978 1066 998 q 1066 976 1066 977 q 1061 949 1066 958 q 1049 949 1059 949 q 1034 947 1040 948 q 1016 946 1027 947 q 997 943 1005 945 q 980 938 989 941 q 964 931 971 935 q 954 922 958 927 q 947 911 950 917 q 939 899 943 906 q 932 887 935 892 q 926 873 930 882 q 919 860 922 865 q 912 844 917 854 q 906 829 907 833 q 899 812 904 825 q 892 796 893 800 q 719 381 821 622 q 577 45 616 140 q 557 18 572 33 q 528 -7 543 3 q 505 -17 513 -17 q 495 -14 498 -17 q 488 -5 492 -12 q 483 5 485 2 l 152 774 q 99 899 119 854 q 67 929 90 917 q 28 945 45 941 q -5 949 11 948 q -10 976 -10 957 q -5 1006 -10 998 z "},"W":{"ha":1444,"x_min":-9,"x_max":1466,"o":"m -9 978 q -3 1006 -8 998 q 214 995 100 995 q 429 1006 325 995 q 434 978 433 998 q 429 949 434 958 q 420 949 428 949 q 409 948 412 948 q 396 946 405 947 q 381 944 387 945 q 368 941 376 943 q 355 936 360 939 q 345 929 350 932 q 338 920 340 925 q 336 909 336 915 q 338 892 336 901 q 344 870 340 883 q 352 847 349 857 q 362 820 355 838 q 372 795 370 802 l 521 381 q 723 949 687 851 q 745 989 732 972 q 770 1006 758 1006 q 789 981 780 1006 l 1048 325 q 1197 791 1182 743 q 1203 811 1199 798 q 1211 833 1208 825 q 1217 855 1213 842 q 1222 877 1220 867 q 1226 896 1225 886 q 1227 913 1227 905 q 1109 949 1227 941 q 1104 978 1103 958 q 1109 1006 1104 998 q 1142 1003 1120 1005 q 1173 1000 1164 1001 q 1199 998 1181 1000 q 1228 996 1217 997 q 1256 995 1240 996 q 1290 995 1273 995 q 1384 1000 1328 995 q 1460 1006 1440 1004 q 1466 976 1466 998 q 1460 949 1466 958 q 1449 949 1459 949 q 1433 947 1439 948 q 1416 946 1427 947 q 1396 943 1404 945 q 1379 938 1388 941 q 1364 931 1371 935 q 1354 922 1357 927 q 1291 796 1314 870 q 1212 557 1249 667 q 1122 295 1175 448 q 1042 61 1069 142 q 1029 33 1037 47 q 1014 8 1022 19 q 997 -10 1005 -3 q 981 -17 988 -17 q 966 -12 972 -17 q 952 5 960 -6 l 702 635 q 509 67 583 285 q 484 14 500 44 q 456 -17 467 -17 q 444 -13 450 -17 q 435 -6 438 -9 q 427 5 432 -3 l 153 774 q 138 816 146 795 q 115 868 130 837 l 100 899 q 69 929 92 917 q 29 945 46 941 q -3 949 12 948 q -9 975 -9 958 q -9 978 -9 976 z "},"X":{"ha":1078,"x_min":-14,"x_max":1086,"o":"m -7 -6 q -14 21 -14 1 q -7 50 -14 42 q 18 52 3 50 q 60 60 33 54 q 114 81 87 66 q 158 120 141 97 l 429 489 l 216 816 q 199 841 211 823 q 181 869 187 859 q 164 892 174 879 q 147 914 155 905 q 134 926 140 922 q 84 943 119 937 q 31 949 50 949 q 24 975 24 949 q 31 1006 24 1000 q 103 1002 52 1005 q 194 998 155 1000 q 267 996 234 996 q 337 998 301 996 q 426 1002 373 999 q 486 1006 479 1005 q 489 974 489 999 q 483 949 488 949 q 432 941 460 949 q 403 918 404 932 q 415 884 403 903 l 583 629 q 655 718 604 656 q 738 822 706 780 q 781 887 770 865 q 785 903 785 897 q 768 926 785 915 q 725 943 751 937 q 673 949 699 949 q 667 975 667 949 q 671 1006 666 1000 q 873 995 764 995 q 1056 1006 979 995 q 1059 974 1059 998 q 1055 949 1059 949 q 1030 947 1044 949 q 990 939 1017 945 q 936 914 964 932 q 884 869 907 896 l 625 561 q 817 274 722 414 q 930 115 913 134 q 984 76 949 92 q 1041 55 1018 60 q 1080 50 1065 50 q 1086 19 1086 39 q 1080 -6 1086 3 q 837 3 898 3 q 699 -1 787 3 q 597 -6 611 -5 q 593 25 591 -1 q 600 50 594 50 q 652 62 620 50 q 685 93 685 75 q 681 109 685 102 l 479 415 q 453 381 476 412 q 406 319 429 350 q 355 251 383 289 q 304 180 328 213 q 269 126 281 146 q 257 100 257 106 q 260 89 257 94 q 268 79 262 83 q 279 71 273 75 q 294 64 286 67 q 312 59 302 62 q 330 55 321 57 q 349 52 339 54 q 367 51 358 51 q 382 50 375 50 q 390 24 389 42 q 387 -6 391 6 q 187 3 237 3 q 119 1 152 3 q 48 -3 86 0 q -7 -6 11 -5 z "},"Y":{"ha":947,"x_min":-1,"x_max":970,"o":"m 5 1006 q 222 995 109 995 q 436 1006 332 995 q 441 978 441 998 q 436 949 441 958 q 428 949 435 949 q 416 948 420 948 q 404 946 412 947 q 389 944 395 945 q 376 941 384 943 q 363 936 368 939 q 353 929 358 932 q 346 920 348 925 q 343 909 343 915 q 354 884 343 903 l 536 549 q 537 549 536 549 q 601 648 544 549 q 728 878 661 753 q 735 913 735 893 q 623 949 735 941 q 617 978 617 958 q 623 1006 618 998 q 668 1002 637 1004 q 711 998 699 999 q 746 996 723 997 q 795 995 770 995 q 889 1000 833 995 q 964 1006 945 1004 q 970 978 969 998 q 970 976 970 977 q 964 949 970 957 q 955 949 964 949 q 942 948 946 948 q 927 946 937 947 q 909 943 916 945 q 893 938 903 941 q 876 932 883 935 q 863 923 869 928 q 852 911 857 918 q 713 690 822 867 q 576 453 605 513 q 567 424 567 431 l 567 220 q 567 159 567 179 q 570 115 568 139 q 578 77 573 92 q 676 50 587 57 q 681 22 682 42 q 676 -6 681 1 q 458 5 572 5 q 245 -6 349 5 q 240 22 240 1 q 245 50 239 42 q 342 77 334 57 q 352 129 350 98 q 354 220 354 159 l 354 431 q 347 462 354 447 q 282 588 330 499 q 195 746 234 676 l 155 816 q 108 899 130 863 q 75 929 98 917 q 35 944 52 941 q 5 949 18 948 q -1 976 -1 957 q 5 1006 -1 998 z "},"Z":{"ha":972,"x_min":30,"x_max":932,"o":"m 31 33 l 632 926 l 354 926 q 309 923 330 926 q 272 914 288 920 q 241 899 256 909 q 216 880 226 888 q 195 857 205 872 q 179 832 185 842 q 165 804 173 822 q 154 775 157 785 q 143 745 150 765 q 134 720 137 728 q 114 711 131 711 q 70 719 77 711 q 87 805 75 748 q 109 912 99 863 q 125 1006 118 962 q 218 998 140 1002 q 323 995 296 995 l 536 996 q 888 1012 704 998 q 899 992 893 1010 q 904 962 904 973 q 755 734 903 956 q 460 291 607 511 l 313 71 l 641 71 q 785 125 732 71 q 808 150 798 137 q 828 178 818 162 q 847 213 838 193 q 866 258 857 233 q 887 267 868 267 q 914 264 899 267 q 932 258 929 262 q 905 174 924 228 q 871 75 886 121 q 850 1 857 30 l 70 0 q 50 7 61 0 q 34 22 39 14 q 30 31 30 28 q 31 33 30 33 z "},"[":{"ha":469,"x_min":114,"x_max":463,"o":"m 114 -151 l 114 1135 q 121 1158 114 1148 q 143 1170 129 1168 q 454 1194 329 1170 q 460 1191 457 1194 q 463 1180 463 1187 q 457 1155 463 1167 q 448 1141 452 1143 q 396 1123 428 1131 q 326 1108 365 1115 q 277 1100 286 1102 l 277 -115 q 326 -124 286 -117 q 396 -139 365 -131 q 448 -157 428 -146 q 457 -171 452 -158 q 463 -196 463 -183 q 460 -206 463 -202 q 454 -210 457 -210 q 143 -185 329 -185 q 121 -174 129 -184 q 114 -151 114 -164 z "},"\\":{"ha":636,"x_min":41,"x_max":593,"o":"m 41 1147 q 70 1156 48 1156 q 127 1132 119 1156 q 555 57 127 1132 q 593 -39 593 -37 q 578 -50 591 -45 q 550 -55 565 -55 q 524 -48 538 -55 q 505 -27 511 -41 q 262 587 414 199 q 41 1147 109 975 z "},"]":{"ha":469,"x_min":6,"x_max":355,"o":"m 6 -196 q 12 -171 6 -183 q 21 -157 18 -158 q 73 -139 41 -146 q 144 -124 105 -131 q 193 -115 183 -117 l 193 1100 q 144 1108 183 1102 q 73 1123 105 1115 q 21 1141 41 1131 q 12 1155 18 1143 q 6 1180 6 1167 q 9 1191 6 1187 q 15 1194 12 1194 q 327 1170 140 1170 q 348 1158 340 1168 q 355 1135 355 1148 l 355 -151 q 348 -174 355 -164 q 327 -185 340 -184 q 15 -210 140 -185 q 12 -208 14 -210 q 8 -203 9 -207 q 6 -196 6 -200 z "},"^":{"ha":593,"x_min":58,"x_max":506,"o":"m 58 664 q 101 732 81 701 q 141 798 121 764 q 174 855 161 832 q 213 923 187 878 q 254 995 238 968 q 267 1011 259 1005 q 283 1017 275 1017 q 298 1011 290 1017 q 313 995 307 1005 q 375 885 336 955 q 441 769 414 816 q 506 664 469 722 q 496 645 506 652 q 477 637 487 637 q 389 725 438 673 q 311 811 340 777 l 283 844 q 88 637 176 718 q 68 645 78 637 q 58 664 58 652 z "},"_":{"ha":749,"x_min":12,"x_max":723,"o":"m 12 -50 q 35 20 20 20 l 717 20 q 723 12 723 20 q 708 -56 723 -1 q 704 -63 707 -60 q 701 -65 702 -65 l 699 -65 l 23 -65 q 20 -65 22 -65 q 15 -61 18 -64 q 12 -50 12 -57 z "},"`":{"ha":378,"x_min":67,"x_max":330,"o":"m 67 1000 q 84 1028 67 1013 q 137 1044 102 1044 q 168 1040 153 1044 q 189 1030 182 1036 q 249 950 214 1000 q 307 862 283 899 q 330 821 330 825 q 320 803 330 813 q 304 793 311 793 q 274 808 299 793 q 214 849 248 824 q 146 901 179 873 q 90 956 113 928 q 67 1000 67 983 z "},"a":{"ha":717,"x_min":47,"x_max":696,"o":"m 47 173 q 71 250 47 216 q 126 295 95 285 q 203 322 151 302 q 317 366 254 342 q 407 401 380 391 l 407 433 l 407 473 q 381 578 407 532 q 317 625 356 625 q 301 623 309 625 q 288 617 294 621 q 276 610 281 614 q 266 599 271 606 q 257 586 261 592 q 250 571 254 581 q 244 555 247 562 q 239 536 241 547 q 234 517 236 525 q 229 496 232 509 q 202 449 223 467 q 144 430 182 430 q 89 451 113 430 q 65 503 65 472 q 87 565 65 528 q 122 592 96 575 q 188 631 149 610 q 279 667 227 652 q 377 682 330 682 q 491 653 439 682 q 574 570 543 623 q 605 450 605 517 l 605 165 q 610 132 605 146 q 623 110 614 117 q 641 103 631 103 q 656 105 648 103 q 668 110 664 108 q 679 115 673 112 l 685 119 q 693 108 690 117 q 696 93 696 100 q 690 70 696 80 q 654 40 674 55 q 598 8 633 24 q 533 -9 562 -9 q 463 15 497 -9 q 418 67 429 38 q 340 19 399 50 q 246 -12 281 -12 q 166 4 204 -12 q 103 47 129 20 q 62 106 77 73 q 47 173 47 140 m 252 189 q 262 146 253 165 q 284 117 271 127 q 314 100 298 106 q 345 94 330 94 q 389 106 370 94 q 407 126 407 117 l 407 339 q 363 319 402 336 q 307 290 325 302 q 264 244 278 271 q 252 194 252 219 q 252 189 252 191 z "},"b":{"ha":823,"x_min":-3,"x_max":777,"o":"m -3 982 q 1 996 -1 994 q 96 1008 49 1001 q 178 1024 144 1016 q 238 1039 212 1032 q 279 1051 264 1046 q 295 1056 294 1056 q 309 1045 301 1055 q 317 1030 316 1036 q 301 876 301 962 l 301 631 q 301 623 301 626 q 302 615 301 621 q 304 610 302 610 q 310 610 307 610 q 348 638 326 623 q 403 667 370 652 q 460 682 437 682 q 545 671 504 682 q 621 640 586 660 q 684 590 655 620 q 734 526 713 561 q 765 447 754 490 q 777 359 777 404 q 753 227 777 288 q 690 123 730 166 q 598 48 650 79 q 487 3 545 18 q 369 -12 429 -12 q 296 -3 335 -12 q 225 14 256 5 q 178 23 193 23 q 121 12 146 23 q 101 27 117 12 q 85 50 85 43 q 103 231 103 97 l 103 848 q 93 920 103 895 q 82 930 90 926 q 62 938 73 935 q 39 944 52 941 q 17 947 27 946 q 1 948 7 948 q -3 959 -1 948 q -3 972 -3 965 q -3 982 -3 977 m 301 149 q 328 82 301 109 q 401 55 355 55 q 484 93 448 55 q 539 185 521 130 q 557 298 557 240 q 548 406 557 359 q 524 484 539 453 q 486 534 508 514 q 438 562 463 553 q 385 570 414 570 q 305 536 336 570 q 301 523 301 532 l 301 149 z "},"c":{"ha":679,"x_min":47,"x_max":646,"o":"m 47 304 q 68 414 47 359 q 126 517 89 469 q 213 601 164 564 q 322 660 262 638 q 444 681 382 681 q 541 672 500 681 q 597 653 581 663 q 611 636 606 643 q 622 614 616 629 q 627 581 627 599 q 617 536 627 557 q 586 501 607 515 q 539 486 566 486 q 517 490 528 486 q 496 503 506 494 q 479 518 486 512 q 463 537 473 524 q 448 555 452 551 q 401 589 429 576 q 345 602 373 602 q 288 568 313 602 q 251 487 263 534 q 239 392 239 440 q 252 281 239 330 q 288 202 266 233 q 338 151 309 171 q 397 122 368 130 q 457 114 427 114 q 627 190 558 114 q 640 179 635 188 q 646 163 646 170 q 641 134 646 140 q 616 102 632 119 q 574 64 600 85 q 517 26 547 43 q 447 -2 488 9 q 366 -14 407 -14 q 244 8 302 -14 q 143 70 186 31 q 73 171 99 110 q 47 304 47 231 z "},"d":{"ha":831,"x_min":49,"x_max":799,"o":"m 49 304 q 63 406 49 357 q 103 491 78 454 q 162 559 128 528 q 232 612 195 591 q 307 648 269 633 q 381 670 346 663 q 447 677 416 677 q 507 675 483 677 q 515 709 515 675 l 515 848 q 514 874 515 866 q 512 896 514 883 q 505 920 509 908 q 490 932 502 927 q 463 941 477 938 q 434 946 448 944 q 413 948 421 948 q 409 959 410 948 q 409 982 408 970 q 413 996 410 994 q 508 1008 460 1001 q 589 1024 555 1016 q 650 1039 623 1032 q 691 1051 676 1046 q 707 1056 706 1056 q 720 1045 713 1055 q 729 1030 728 1036 q 713 876 713 962 l 713 164 q 713 147 713 153 q 714 133 713 141 q 718 118 715 124 q 726 106 721 112 q 795 91 740 91 q 799 72 799 87 q 790 43 799 56 q 690 25 751 39 q 582 0 629 12 q 529 -11 536 -11 q 524 -8 526 -11 q 519 -1 522 -5 q 516 11 517 3 q 515 26 515 18 l 515 50 q 515 53 515 52 q 514 56 515 54 q 513 58 514 58 q 511 58 512 58 q 481 39 497 48 q 439 17 466 30 q 382 -4 413 4 q 323 -12 352 -12 q 219 12 269 -12 q 131 78 169 37 q 71 179 94 120 q 49 304 49 238 m 264 369 q 283 222 264 286 q 336 121 301 157 q 418 85 372 85 q 481 105 448 85 q 515 141 515 125 l 515 532 q 509 549 515 540 q 491 568 503 559 q 466 584 480 576 q 433 596 452 591 q 397 600 415 600 q 335 582 361 600 q 294 530 309 563 q 272 457 279 497 q 264 369 264 416 z "},"e":{"ha":699,"x_min":49,"x_max":652,"o":"m 49 304 q 77 443 49 374 q 151 564 105 512 q 260 647 197 615 q 386 679 322 679 q 490 664 443 679 q 566 624 536 648 q 615 568 595 600 q 644 507 635 537 q 652 450 652 477 q 640 406 652 425 q 610 386 628 387 q 246 368 474 374 q 262 260 246 307 q 301 186 278 213 q 355 142 324 159 q 410 120 385 125 q 458 114 435 114 q 629 190 559 114 q 642 179 636 188 q 647 163 647 170 q 643 134 647 140 q 617 102 633 119 q 575 64 602 85 q 519 26 549 43 q 449 -2 489 9 q 368 -14 409 -14 q 269 0 317 -14 q 182 41 222 14 q 112 106 142 68 q 65 195 82 144 q 49 304 49 245 m 248 429 q 255 429 250 429 q 337 433 275 429 q 444 441 416 438 q 463 465 463 442 q 458 518 463 492 q 443 567 453 544 q 414 603 433 589 q 371 616 395 616 q 323 602 345 616 q 288 565 302 587 q 265 517 275 543 q 252 468 256 490 q 248 429 248 446 z "},"f":{"ha":539,"x_min":35,"x_max":621,"o":"m 35 599 q 83 650 55 626 l 151 650 l 151 673 q 172 793 151 733 q 228 900 193 852 q 305 984 263 947 q 389 1041 347 1021 q 465 1061 431 1061 q 562 1045 509 1061 q 583 1034 574 1039 q 601 1019 591 1028 q 616 999 611 1010 q 621 975 621 988 q 600 903 621 935 q 544 871 579 871 q 512 877 528 871 q 488 890 497 884 q 465 910 479 897 q 444 928 450 924 q 382 951 416 951 q 351 915 364 951 q 337 827 337 879 q 343 650 337 745 l 521 650 q 528 644 525 650 q 530 631 530 637 q 525 613 530 624 q 511 593 519 603 q 495 578 503 584 l 348 578 l 348 220 q 348 173 348 189 q 350 137 349 158 q 353 102 351 116 q 360 77 355 88 q 457 50 368 57 q 462 22 463 42 q 457 -6 462 1 q 249 5 353 5 q 41 -6 144 5 q 36 22 36 1 q 41 50 35 42 q 138 77 130 57 q 149 129 146 98 q 151 220 151 159 l 151 578 l 43 578 q 35 599 35 582 z "},"g":{"ha":726,"x_min":37,"x_max":713,"o":"m 37 -157 q 76 -74 37 -115 q 165 -9 116 -33 q 101 46 127 1 q 75 140 75 91 q 114 191 75 159 q 201 251 153 224 q 97 329 136 277 q 59 447 59 382 q 95 561 59 509 q 195 643 132 613 q 334 673 258 673 q 496 635 441 673 q 506 631 501 631 l 696 648 q 707 643 701 647 q 713 632 713 638 q 706 610 713 627 q 691 577 700 594 q 675 556 682 561 q 589 565 646 559 q 581 561 581 565 q 605 512 598 536 q 612 454 612 487 q 576 339 612 392 q 477 256 541 287 q 337 225 414 225 q 258 233 299 225 q 222 185 222 203 q 233 165 222 174 q 260 152 243 157 q 295 147 276 147 q 495 146 469 147 q 570 131 535 144 q 627 99 604 117 q 666 58 650 80 q 690 15 682 35 q 697 -21 697 -5 q 675 -124 697 -75 q 613 -210 652 -173 q 523 -275 574 -247 q 412 -317 471 -302 q 290 -331 352 -331 q 107 -282 178 -331 q 37 -157 37 -234 m 203 -88 q 254 -204 203 -162 q 386 -246 304 -246 q 450 -240 421 -246 q 497 -224 478 -235 q 530 -202 516 -214 q 551 -175 544 -190 q 562 -147 559 -160 q 565 -120 565 -134 q 517 -47 565 -73 q 395 -21 470 -21 l 228 -21 q 203 -88 203 -49 m 243 467 q 249 401 243 433 q 267 342 255 370 q 301 298 279 315 q 351 281 323 281 q 425 354 412 281 q 429 433 429 378 q 424 497 429 467 q 407 556 418 528 q 375 600 396 584 q 327 616 355 616 q 288 607 304 616 q 263 584 271 597 q 250 548 254 570 q 244 509 245 526 q 243 467 243 492 z "},"h":{"ha":885,"x_min":19,"x_max":879,"o":"m 19 24 q 24 50 19 42 q 121 77 114 57 q 132 129 130 98 q 134 220 134 159 l 134 848 q 123 920 134 895 q 85 940 118 932 q 32 948 52 948 q 27 959 29 948 q 27 982 26 970 q 32 996 28 994 q 101 1005 66 1000 q 164 1015 136 1010 q 217 1026 192 1021 q 262 1037 243 1032 q 295 1047 281 1042 q 316 1054 309 1051 q 325 1056 324 1056 q 339 1045 332 1055 q 348 1030 347 1036 q 331 875 331 936 l 331 565 q 333 556 331 557 q 343 564 336 556 q 444 641 378 604 q 557 677 509 677 q 633 668 601 677 q 688 637 665 659 q 726 589 711 616 q 749 518 741 561 q 761 429 758 476 q 764 319 764 382 l 764 220 q 764 182 764 195 q 765 151 764 170 q 767 121 766 132 q 770 98 768 111 q 777 77 772 86 q 873 50 784 57 q 879 24 879 43 q 879 22 879 22 q 873 -6 879 1 q 665 5 770 5 q 475 -6 579 5 q 470 22 471 1 q 475 50 470 42 q 555 77 546 56 q 563 115 560 92 q 566 159 566 139 q 567 220 567 179 l 567 340 q 562 420 567 385 q 546 488 557 456 q 514 537 535 519 q 465 555 494 555 q 404 540 436 555 q 351 505 372 525 q 331 469 331 484 l 331 220 q 332 163 331 183 q 335 117 332 143 q 343 77 338 92 q 430 50 351 56 q 435 22 435 42 q 430 -6 435 1 q 233 5 326 5 q 24 -6 128 5 q 19 24 19 1 z "},"i":{"ha":478,"x_min":39,"x_max":455,"o":"m 39 24 q 44 50 39 42 q 141 77 134 57 q 151 129 149 98 q 153 220 153 159 l 153 395 q 153 430 153 409 q 149 480 152 450 q 140 519 145 509 q 97 542 132 534 q 44 550 62 550 q 40 575 40 553 q 45 597 40 597 q 208 628 125 604 q 342 677 291 652 q 358 666 349 675 q 368 652 368 656 q 359 612 364 643 q 353 565 353 581 q 351 469 351 532 l 351 220 q 351 163 351 183 q 355 117 352 143 q 363 77 357 92 q 450 50 371 56 q 455 24 455 43 q 454 22 454 22 q 450 -6 454 1 q 252 5 346 5 q 44 -6 148 5 q 39 24 39 1 m 127 936 q 159 1013 127 981 q 237 1045 191 1045 q 315 1013 283 1045 q 348 936 348 981 q 315 859 348 890 q 237 827 283 827 q 194 835 214 827 q 160 858 174 844 q 136 893 145 873 q 127 936 127 913 z "},"j":{"ha":434,"x_min":-18,"x_max":349,"o":"m -18 -305 q -17 -295 -18 -296 q -6 -289 -12 -292 q 16 -271 0 -285 q 46 -238 32 -256 q 77 -188 60 -220 q 106 -117 94 -155 q 127 -23 119 -79 q 135 97 135 33 l 135 395 q 134 430 135 409 q 130 480 134 450 q 121 519 127 509 q 79 542 114 534 q 26 550 43 550 q 22 575 22 553 q 27 597 22 597 q 190 628 106 604 q 323 677 273 652 q 340 666 331 675 q 349 652 349 656 q 341 612 346 643 q 334 565 336 581 q 333 469 333 532 l 333 182 q 260 -155 333 -49 q 174 -245 227 -203 q 76 -309 121 -288 q 3 -331 30 -331 q -12 -319 -5 -326 q -18 -305 -18 -312 m 142 856 q 126 873 142 856 q 109 936 109 889 q 142 1016 109 983 q 222 1048 175 1048 q 301 1016 269 1048 q 334 936 334 983 q 301 856 334 889 q 222 823 269 823 q 142 856 175 823 z "},"k":{"ha":896,"x_min":19,"x_max":896,"o":"m 19 24 q 24 50 19 42 q 121 77 114 57 q 132 129 130 98 q 134 220 134 159 l 134 848 q 123 920 134 895 q 85 940 118 932 q 32 948 52 948 q 27 959 29 948 q 27 982 26 970 q 32 996 28 994 q 101 1005 66 1000 q 164 1015 136 1010 q 217 1026 192 1021 q 262 1037 243 1032 q 295 1047 281 1042 q 316 1054 309 1051 q 325 1056 324 1056 q 339 1045 332 1055 q 348 1030 347 1036 q 331 875 331 936 l 330 359 q 444 436 370 372 q 509 494 484 471 q 550 534 535 517 q 571 562 566 551 q 577 582 577 573 q 542 604 577 594 q 480 615 507 614 q 477 645 476 625 q 483 667 477 665 q 682 661 618 661 q 732 662 707 661 q 792 665 758 663 q 850 669 826 667 q 855 638 857 657 q 846 615 853 618 q 795 607 821 613 q 742 591 769 602 q 696 568 715 581 q 653 533 682 558 q 578 464 625 507 q 495 389 531 420 q 622 247 557 316 q 711 149 686 178 q 758 103 735 122 q 796 76 780 85 q 831 61 812 66 q 862 56 850 56 q 892 55 873 55 q 896 36 896 47 q 895 18 896 25 q 892 9 893 12 q 854 0 880 5 q 798 -6 829 -4 q 739 -9 766 -9 q 620 15 674 -9 q 530 81 566 39 q 351 286 425 193 q 343 295 348 290 q 335 302 338 300 l 331 305 l 331 220 q 332 159 331 179 q 335 115 332 139 q 343 77 338 92 q 441 50 351 57 q 446 22 446 42 q 441 -6 446 1 q 233 5 337 5 q 24 -6 128 5 q 19 24 19 1 z "},"l":{"ha":465,"x_min":19,"x_max":446,"o":"m 19 24 q 24 50 19 42 q 121 77 114 57 q 132 129 130 98 q 134 220 134 159 l 134 848 q 123 920 134 895 q 85 940 118 932 q 32 948 52 948 q 27 959 29 948 q 27 982 26 970 q 32 996 28 994 q 101 1005 66 1000 q 164 1015 136 1010 q 217 1026 192 1021 q 262 1037 243 1032 q 295 1047 281 1042 q 316 1054 309 1051 q 325 1056 324 1056 q 339 1045 332 1055 q 348 1030 347 1036 q 331 875 331 936 l 331 220 q 332 159 331 179 q 335 115 332 139 q 343 77 338 92 q 441 50 351 57 q 446 24 446 43 q 446 22 446 22 q 441 -6 446 1 q 233 5 337 5 q 24 -6 128 5 q 19 24 19 1 z "},"m":{"ha":1341,"x_min":39,"x_max":1335,"o":"m 39 24 q 44 50 39 42 q 141 77 134 57 q 151 129 149 98 q 153 220 153 159 l 153 395 q 153 430 153 409 q 149 480 152 450 q 140 519 145 509 q 97 542 132 534 q 44 550 62 550 q 40 575 40 553 q 45 597 40 597 q 208 628 125 604 q 342 677 291 652 q 358 666 349 675 q 368 652 368 656 q 363 633 366 648 q 358 604 360 619 q 354 577 355 589 q 353 565 352 566 q 354 556 353 557 q 365 564 357 556 q 464 641 400 604 q 577 677 528 677 q 694 648 651 677 q 764 547 737 618 q 890 638 817 598 q 1013 677 963 677 q 1089 668 1057 677 q 1144 637 1121 659 q 1181 589 1166 616 q 1205 518 1196 561 q 1217 429 1213 476 q 1220 319 1220 382 l 1220 220 q 1220 189 1220 199 q 1220 161 1220 178 q 1221 135 1221 144 q 1223 114 1222 125 q 1227 94 1225 102 q 1232 77 1229 85 q 1329 50 1240 57 q 1335 24 1335 43 q 1335 22 1335 22 q 1329 -6 1335 1 q 1121 5 1225 5 q 931 -6 1035 5 q 926 22 926 1 q 931 50 926 42 q 1010 77 1002 56 q 1021 129 1019 98 q 1023 220 1023 159 l 1023 340 q 1018 420 1023 385 q 1002 488 1013 456 q 970 537 991 519 q 921 555 949 555 q 858 540 892 555 q 801 506 823 526 q 778 471 778 486 l 778 462 q 784 319 784 377 l 784 220 q 784 182 784 195 q 785 151 784 170 q 787 121 785 132 q 790 98 788 111 q 796 77 793 86 q 890 50 804 57 q 896 22 896 42 q 890 -6 895 1 q 685 5 787 5 q 492 -6 596 5 q 487 22 488 1 q 492 50 487 42 q 574 77 566 56 q 585 129 583 98 q 587 220 587 159 l 587 340 q 582 420 587 385 q 566 488 577 456 q 534 537 555 519 q 485 555 513 555 q 424 540 456 555 q 371 505 392 525 q 351 469 351 484 l 351 220 q 351 163 351 183 q 355 117 352 143 q 363 77 357 92 q 450 50 371 56 q 455 22 455 42 q 450 -6 454 1 q 252 5 346 5 q 44 -6 148 5 q 39 24 39 1 z "},"n":{"ha":905,"x_min":39,"x_max":899,"o":"m 39 24 q 44 50 39 42 q 141 77 134 57 q 151 129 149 98 q 153 220 153 159 l 153 395 q 153 430 153 409 q 149 480 152 450 q 140 519 145 509 q 97 542 132 534 q 44 550 62 550 q 40 575 40 553 q 45 597 40 597 q 208 628 125 604 q 342 677 291 652 q 358 668 349 677 q 368 652 368 658 q 365 638 367 648 q 361 616 363 628 q 357 593 359 604 q 354 573 355 581 q 353 565 353 566 q 354 556 353 557 q 365 564 357 556 q 464 641 400 604 q 577 677 528 677 q 653 668 621 677 q 708 637 685 659 q 745 589 730 616 q 769 518 760 561 q 781 429 777 476 q 784 319 784 382 l 784 220 q 784 182 784 195 q 785 151 784 170 q 787 121 785 132 q 790 98 788 111 q 796 77 793 86 q 893 50 804 57 q 899 24 899 43 q 898 22 898 22 q 893 -6 898 1 q 685 5 789 5 q 495 -6 599 5 q 490 22 490 1 q 495 50 490 42 q 574 77 566 56 q 585 129 583 98 q 587 220 587 159 l 587 340 q 582 420 587 385 q 566 488 577 456 q 534 537 555 519 q 485 555 513 555 q 424 540 456 555 q 371 505 392 525 q 351 469 351 484 l 351 220 q 351 163 351 183 q 355 117 352 143 q 363 77 357 92 q 450 50 371 56 q 455 22 455 42 q 450 -6 454 1 q 252 5 346 5 q 44 -6 148 5 q 39 24 39 1 z "},"o":{"ha":808,"x_min":49,"x_max":760,"o":"m 49 330 q 76 465 49 400 q 151 576 104 529 q 264 651 198 623 q 403 679 330 679 q 547 653 480 679 q 660 583 613 627 q 733 476 707 538 q 760 342 760 413 q 732 206 760 271 q 658 94 705 141 q 545 18 611 46 q 406 -11 479 -11 q 261 16 328 -11 q 148 87 194 42 q 75 196 101 133 q 49 330 49 258 m 264 360 q 270 277 264 319 q 288 194 275 235 q 318 123 300 154 q 362 72 336 92 q 420 53 389 53 q 468 64 448 53 q 502 95 489 75 q 524 139 515 115 q 536 193 532 162 q 542 250 541 224 q 544 307 544 275 q 534 413 544 360 q 507 512 525 465 q 457 588 488 559 q 386 616 425 616 q 339 606 359 616 q 305 574 318 595 q 284 531 292 554 q 271 475 275 507 q 266 418 267 444 q 264 360 264 392 z "},"p":{"ha":840,"x_min":14,"x_max":791,"o":"m 14 -302 q 20 -275 14 -283 q 117 -248 109 -268 q 127 -196 125 -227 q 129 -105 129 -165 l 129 395 q 128 430 129 409 q 124 480 127 450 q 115 519 121 509 q 73 542 108 534 q 20 550 37 550 q 16 575 16 553 q 21 597 16 597 q 183 628 100 604 q 317 677 267 652 q 334 666 325 675 q 343 652 343 656 q 339 641 343 651 q 332 621 334 631 q 330 600 330 611 q 334 590 330 589 q 336 591 335 590 q 416 655 372 629 q 494 681 460 681 q 617 654 561 681 q 712 581 674 627 q 770 477 749 536 q 791 355 791 419 q 769 228 791 288 q 708 125 746 168 q 623 51 671 82 q 522 3 574 19 q 419 -12 470 -12 q 380 -9 401 -12 q 346 -2 359 -5 q 331 1 333 1 q 328 -3 328 1 q 327 -23 327 -7 l 327 -105 q 327 -166 327 -146 q 330 -210 328 -186 q 339 -248 333 -233 q 436 -275 347 -268 q 441 -304 441 -283 q 436 -331 441 -324 q 228 -321 332 -321 q 20 -331 123 -321 q 14 -302 14 -323 m 327 146 q 357 79 327 102 q 430 55 387 55 q 464 63 446 55 q 502 92 482 72 q 537 139 522 111 q 563 209 553 166 q 572 302 572 252 q 564 411 572 363 q 538 494 556 458 q 487 550 519 531 q 410 570 455 570 q 380 566 394 570 q 356 557 366 562 q 340 545 347 551 q 330 534 333 539 q 327 527 327 530 l 327 146 z "},"q":{"ha":811,"x_min":49,"x_max":823,"o":"m 49 292 q 61 388 49 342 q 96 473 73 435 q 148 544 118 511 q 215 601 178 576 q 291 643 251 625 q 372 669 330 660 q 456 677 414 677 q 550 660 486 677 q 635 643 614 643 q 652 644 644 643 q 666 646 660 644 q 675 648 671 647 q 684 651 679 649 q 690 653 688 653 q 712 636 697 650 q 726 615 726 623 q 708 442 708 572 l 708 -105 q 708 -166 708 -146 q 711 -210 709 -186 q 720 -248 714 -233 q 817 -275 728 -268 q 823 -302 823 -283 q 817 -331 823 -323 q 609 -321 713 -321 q 401 -331 505 -321 q 396 -304 396 -324 q 401 -275 395 -283 q 498 -248 490 -268 q 509 -196 507 -227 q 511 -105 511 -165 l 511 26 q 510 34 511 31 q 509 42 510 37 q 507 47 509 47 q 501 45 505 47 q 426 8 477 28 q 328 -12 375 -12 q 188 29 253 -12 q 86 141 123 71 q 49 292 49 211 m 264 369 q 269 291 264 330 q 286 215 274 253 q 314 149 297 177 q 358 102 331 120 q 419 85 385 85 q 467 93 444 85 q 500 110 489 101 q 511 121 511 118 l 511 523 q 504 541 511 529 q 484 566 497 553 q 448 589 471 579 q 398 599 425 599 q 343 585 368 599 q 305 549 319 571 q 281 496 290 527 q 268 434 271 465 q 264 369 264 404 z "},"r":{"ha":682,"x_min":39,"x_max":664,"o":"m 39 24 q 44 50 39 42 q 141 77 134 57 q 151 129 149 98 q 153 220 153 159 l 153 395 q 153 430 153 409 q 149 480 152 450 q 140 519 145 509 q 97 542 132 534 q 44 550 62 550 q 40 575 40 553 q 45 597 40 597 q 208 628 125 604 q 342 677 291 652 q 358 666 349 675 q 368 652 368 656 q 358 595 364 643 q 353 532 353 548 q 354 527 353 528 q 358 525 356 525 q 361 527 361 526 q 386 568 374 550 q 416 608 398 587 q 454 645 435 630 q 498 669 473 659 q 551 679 524 679 q 647 653 619 679 q 658 623 652 645 q 664 578 664 601 q 637 498 664 537 q 572 458 610 458 q 557 461 565 458 q 543 468 550 463 q 531 476 536 473 q 518 487 526 480 q 507 496 511 494 q 498 506 505 499 q 488 515 491 512 q 479 522 485 517 q 466 527 473 526 q 453 529 460 529 q 411 514 431 529 q 378 479 391 499 q 358 438 366 458 q 351 406 351 418 l 351 220 q 351 163 351 183 q 355 117 352 143 q 363 77 357 92 q 475 50 370 58 q 480 22 481 42 q 475 -6 480 1 q 252 5 372 5 q 44 -6 148 5 q 39 24 39 1 z "},"s":{"ha":613,"x_min":58,"x_max":557,"o":"m 58 471 q 76 551 58 515 q 122 611 94 587 q 189 650 151 634 q 264 674 227 667 q 340 681 302 681 q 400 676 372 681 q 465 663 428 672 q 511 652 502 654 q 520 605 515 633 q 531 549 526 576 q 539 497 536 521 q 543 465 543 474 q 540 460 543 463 q 533 457 537 458 q 524 455 528 456 q 515 454 519 454 q 486 467 505 454 q 474 509 481 489 q 453 550 467 528 q 423 586 440 571 q 381 610 406 601 q 325 620 356 620 q 280 611 300 620 q 250 583 261 602 q 239 538 239 564 q 246 503 239 519 q 263 475 253 486 q 291 453 273 465 q 323 435 309 441 q 359 418 336 429 q 393 403 382 408 q 404 397 397 401 q 436 381 425 387 q 467 363 448 375 q 496 342 486 351 q 520 316 507 332 q 541 284 534 300 q 552 245 547 268 q 557 197 557 223 q 542 118 557 153 q 498 58 526 82 q 432 18 470 34 q 350 -5 393 2 q 258 -12 307 -12 q 219 -10 239 -12 q 177 -3 198 -7 q 141 4 156 1 q 106 13 126 8 q 81 20 87 18 q 73 120 77 43 q 68 217 68 197 q 91 228 68 228 q 111 223 100 228 q 125 213 121 219 q 144 145 131 174 q 174 98 157 115 q 211 68 191 80 q 250 53 231 57 q 289 49 269 49 q 351 73 327 49 q 375 131 375 98 q 368 164 375 149 q 351 191 361 180 q 323 212 340 201 q 291 230 306 223 q 255 248 277 237 q 219 266 233 258 q 156 305 181 287 q 106 347 130 323 q 70 402 82 372 q 58 471 58 433 z "},"t":{"ha":519,"x_min":9,"x_max":505,"o":"m 9 599 q 58 650 28 626 l 125 650 l 125 730 q 221 825 159 760 q 284 892 282 890 q 307 899 296 899 l 309 899 q 322 892 321 899 l 322 650 l 495 650 q 502 644 499 650 q 505 631 505 637 q 499 613 505 624 q 485 593 493 603 q 469 578 477 584 l 322 578 l 322 202 q 342 114 322 142 q 404 87 361 87 q 451 100 427 87 q 485 123 475 114 q 495 102 495 113 q 490 86 495 96 q 483 73 486 75 q 462 53 475 64 q 428 26 450 42 q 378 0 406 10 q 322 -11 349 -11 q 265 -4 292 -11 q 212 19 238 3 q 167 59 186 35 q 136 123 148 84 q 125 211 125 162 l 125 578 l 17 578 q 9 599 9 582 z "},"u":{"ha":859,"x_min":14,"x_max":823,"o":"m 14 575 q 14 579 14 578 q 18 597 14 597 q 181 628 98 604 q 316 677 265 652 q 332 666 323 675 q 340 652 340 656 q 332 612 337 643 q 325 565 326 581 q 325 469 325 565 l 325 333 q 330 225 325 269 q 349 149 336 182 q 386 100 362 116 q 444 85 409 85 q 477 91 459 85 q 508 104 494 96 q 531 123 522 113 q 541 141 541 133 l 541 395 q 537 462 541 419 q 526 520 534 505 q 484 542 518 534 q 431 550 449 550 q 427 575 428 553 q 431 597 426 597 q 594 628 511 604 q 729 677 678 652 q 745 666 736 675 q 753 652 753 656 q 745 612 750 643 q 739 565 739 581 q 738 529 738 550 q 738 489 738 508 q 739 469 739 470 l 739 164 q 739 156 739 163 q 739 148 739 149 q 739 140 739 146 q 739 132 739 134 q 741 125 740 130 q 743 118 741 121 q 746 113 744 116 q 751 106 748 109 q 821 91 764 91 q 823 71 823 88 q 814 43 823 56 q 739 31 784 39 q 657 13 694 22 q 590 -4 621 3 q 553 -11 559 -11 q 544 -1 548 -11 q 541 26 541 9 l 541 50 q 539 57 541 54 q 534 58 538 60 q 505 40 522 50 q 460 19 488 31 q 396 0 432 7 q 322 -7 359 -7 q 245 7 279 -7 q 190 47 212 22 q 154 107 168 72 q 134 181 140 142 q 127 264 127 220 l 127 395 q 124 462 127 419 q 112 520 120 505 q 70 542 104 534 q 18 550 36 550 q 14 575 14 553 z "},"v":{"ha":809,"x_min":-5,"x_max":817,"o":"m -5 646 q 0 673 -5 665 q 97 666 31 669 q 205 663 162 663 q 397 673 308 663 q 402 646 402 667 q 397 616 402 624 q 365 612 385 616 q 326 597 345 608 q 307 576 307 587 q 310 553 307 561 l 467 254 q 587 519 536 408 q 603 576 603 553 q 593 595 603 587 q 569 607 583 603 q 538 613 555 611 q 511 616 521 616 q 495 616 502 616 q 489 644 490 623 q 494 673 489 665 q 653 663 574 663 q 811 673 732 663 q 817 644 817 666 q 811 616 817 625 q 786 615 801 616 q 751 608 772 613 q 713 593 731 604 q 688 567 696 582 l 454 68 q 427 20 439 38 q 405 -8 415 1 q 386 -17 395 -17 q 368 -5 380 -17 q 247 246 340 54 q 96 559 154 439 q 75 587 89 575 q 45 605 60 600 q 18 614 29 611 q 0 616 6 616 q -5 642 -5 626 q -5 646 -5 644 z "},"w":{"ha":1198,"x_min":-5,"x_max":1204,"o":"m -5 646 q 0 673 -5 665 q 195 663 92 663 q 303 666 240 663 q 397 673 366 669 q 402 646 402 667 q 397 616 402 624 q 365 612 385 616 q 326 597 345 608 q 307 576 307 587 q 310 553 307 561 l 457 261 q 557 509 557 486 q 544 559 557 532 q 526 582 537 572 q 504 598 515 592 q 480 609 492 605 q 460 615 469 613 q 448 616 452 616 q 441 646 441 627 q 447 673 441 665 q 652 663 500 666 q 843 673 755 663 q 849 646 849 667 q 843 616 849 624 q 788 605 823 616 q 753 576 753 593 q 757 553 753 561 l 884 273 q 987 519 939 409 q 1004 576 1004 562 q 990 598 1004 589 q 954 611 975 607 q 919 615 932 614 q 897 616 905 616 q 890 644 890 623 q 895 673 890 665 q 1055 663 975 663 q 1198 673 1119 663 q 1204 644 1204 666 q 1198 616 1204 625 q 1095 570 1116 616 q 872 67 975 289 q 843 19 859 39 q 815 -9 827 -1 q 796 -17 804 -17 q 778 -5 790 -17 q 609 419 659 301 q 550 279 588 367 q 486 129 513 191 l 458 67 q 431 19 447 39 q 403 -9 415 -1 q 382 -17 391 -17 q 365 -5 377 -17 q 307 117 346 35 q 252 236 269 200 q 206 332 235 271 q 151 446 177 393 q 96 559 125 499 q 74 587 88 575 q 44 605 59 600 q 18 614 29 611 q 0 616 6 616 q -5 642 -5 626 q -5 646 -5 644 z "},"x":{"ha":847,"x_min":7,"x_max":842,"o":"m 7 24 q 12 50 7 43 q 76 64 37 50 q 140 102 115 78 q 249 214 183 144 q 331 302 315 285 q 267 389 303 339 q 199 480 231 439 q 132 568 168 522 q 79 605 113 593 q 27 616 45 616 q 20 646 20 627 q 26 673 20 665 q 235 663 79 667 q 427 673 338 663 q 433 646 433 667 q 427 616 433 624 q 408 615 418 616 q 384 610 397 613 q 362 599 371 606 q 354 583 354 592 q 356 578 354 581 q 363 569 358 575 q 369 562 368 564 l 467 437 q 583 576 583 562 q 573 595 583 587 q 549 607 563 603 q 518 613 536 611 q 491 616 501 616 q 475 616 481 616 q 470 644 470 623 q 474 673 469 665 q 633 663 553 663 q 704 665 663 663 q 774 669 745 667 q 817 673 804 671 q 822 646 822 667 q 817 616 823 625 q 691 568 738 616 q 517 374 631 505 q 621 242 553 327 q 732 100 688 157 q 785 62 752 75 q 834 50 817 50 q 842 22 842 41 q 841 21 841 22 q 836 -6 841 2 q 625 5 783 1 q 431 -6 520 5 q 426 21 426 -1 q 431 50 426 43 q 451 52 439 50 q 474 57 462 54 q 496 67 487 60 q 505 83 505 75 q 503 88 505 85 q 499 93 501 91 q 494 99 497 95 q 489 105 491 103 l 381 237 q 345 198 370 224 q 298 151 319 172 q 267 114 278 129 q 255 91 255 97 q 266 73 255 81 q 290 60 276 64 q 320 54 303 56 q 347 51 337 52 q 363 50 357 50 q 369 23 369 45 q 365 -6 370 2 q 205 5 285 5 q 133 3 176 5 q 57 -2 90 1 q 12 -6 24 -5 q 7 24 7 1 z "},"y":{"ha":811,"x_min":-5,"x_max":817,"o":"m -5 646 q 0 673 -5 665 q 97 666 31 669 q 205 663 162 663 q 397 673 308 663 q 402 646 402 667 q 397 616 402 624 q 365 612 385 616 q 326 597 345 608 q 307 576 307 587 q 310 553 307 561 l 467 254 q 587 519 536 408 q 603 576 603 553 q 593 595 603 587 q 569 607 583 603 q 538 613 555 611 q 511 616 521 616 q 495 616 502 616 q 489 644 490 623 q 494 673 489 665 q 653 663 574 663 q 811 673 732 663 q 817 644 817 666 q 811 616 817 625 q 786 615 801 616 q 751 608 772 613 q 713 593 731 604 q 688 567 696 582 q 437 38 533 238 q 412 -16 428 18 q 388 -68 397 -51 q 366 -112 379 -86 q 337 -160 352 -138 q 304 -205 322 -182 q 200 -302 250 -273 q 111 -331 151 -331 q 37 -307 65 -331 q 9 -251 9 -283 q 44 -179 9 -203 q 126 -175 94 -179 q 191 -159 159 -171 q 247 -123 222 -146 q 295 -61 272 -99 q 305 -43 300 -51 q 314 -27 310 -35 q 321 -14 318 -19 q 328 0 323 -9 q 333 14 332 9 q 340 30 335 18 q 348 47 346 41 l 96 559 q 75 587 89 575 q 45 605 60 600 q 18 614 29 611 q 0 616 6 616 q -5 642 -5 625 q -5 646 -5 644 z "},"z":{"ha":699,"x_min":44,"x_max":659,"o":"m 59 0 q 44 26 44 12 q 50 52 44 39 l 391 578 q 233 581 281 581 q 202 575 216 581 q 177 562 188 570 q 157 541 167 554 q 140 516 146 527 q 127 489 134 505 q 117 463 121 472 q 109 437 114 453 q 97 430 109 433 q 75 427 86 427 q 62 429 68 427 q 56 433 56 431 q 71 534 62 461 q 83 659 81 607 q 228 650 174 650 l 437 650 q 633 663 534 650 q 637 655 635 659 q 638 646 638 650 q 639 639 639 642 q 638 631 639 635 q 638 626 638 627 l 269 70 l 442 70 q 504 85 475 70 q 552 125 533 101 q 584 175 572 149 q 602 223 597 200 q 609 231 603 229 q 621 234 616 234 q 638 230 629 234 q 653 223 648 227 q 659 219 658 220 q 635 138 650 193 q 609 41 620 83 l 599 0 l 59 0 z "},"{":{"ha":452,"x_min":24,"x_max":419,"o":"m 29 451 q 24 468 24 456 q 29 485 24 480 q 122 545 82 501 q 163 644 163 588 q 162 661 163 652 q 160 677 161 670 q 158 693 159 684 q 154 708 156 701 q 150 723 153 714 q 146 736 148 731 q 141 751 144 742 q 137 766 138 760 q 121 860 121 821 q 137 936 121 898 q 178 1005 153 975 q 234 1064 203 1036 q 297 1111 265 1092 q 356 1141 328 1130 q 403 1154 384 1153 q 413 1139 407 1154 q 413 1115 419 1123 q 376 1089 395 1105 q 338 1049 357 1073 q 307 993 319 1025 q 295 925 295 960 q 296 894 295 908 q 300 868 297 880 q 306 848 304 855 q 313 828 308 841 q 319 811 317 816 q 337 697 337 760 q 323 623 337 660 q 287 559 309 587 q 239 511 264 532 q 189 479 213 490 q 149 468 165 468 q 189 457 165 468 q 239 425 213 446 q 287 376 264 404 q 323 313 309 349 q 337 239 337 276 q 319 125 337 176 q 313 107 317 120 q 306 88 308 95 q 300 68 304 81 q 296 42 297 56 q 295 11 295 28 q 307 -57 295 -24 q 338 -113 319 -90 q 376 -153 357 -137 q 413 -179 395 -170 q 416 -191 416 -184 q 413 -203 416 -197 q 407 -214 410 -210 q 403 -219 404 -219 q 345 -201 380 -217 q 271 -158 310 -186 q 199 -95 233 -130 q 143 -14 165 -60 q 121 76 121 31 q 143 191 121 125 q 147 207 144 195 q 152 224 151 219 q 156 239 153 229 q 160 256 159 250 q 162 273 161 263 q 163 292 163 283 q 122 391 163 348 q 29 451 82 435 z "},"|":{"ha":307,"x_min":111,"x_max":193,"o":"m 113 -184 q 112 -184 113 -184 q 112 -182 112 -183 q 112 -178 112 -180 q 113 -175 113 -176 l 113 1150 q 120 1162 111 1159 q 179 1170 146 1170 q 188 1167 185 1170 q 191 1163 191 1165 l 191 1160 l 193 -164 q 160 -179 193 -172 q 120 -187 128 -187 q 115 -186 117 -187 q 113 -184 113 -186 z "},"}":{"ha":454,"x_min":35,"x_max":430,"o":"m 41 -179 q 78 -153 59 -170 q 116 -113 97 -137 q 147 -57 135 -90 q 159 11 159 -24 q 158 37 159 24 q 156 58 157 50 q 152 78 155 66 q 148 92 149 90 q 142 108 146 95 q 137 121 137 121 q 117 239 117 170 q 131 313 117 276 q 168 376 146 349 q 215 425 190 404 q 265 457 241 446 q 305 468 289 468 q 265 479 289 468 q 215 511 241 490 q 168 559 190 532 q 131 623 146 587 q 117 697 117 660 q 118 723 117 711 q 119 744 119 735 q 122 763 120 753 q 125 779 124 773 q 129 793 126 784 q 134 805 132 802 q 138 818 135 808 q 143 829 142 827 q 159 925 159 871 q 147 993 159 960 q 116 1049 135 1025 q 78 1089 97 1073 q 41 1115 59 1105 q 41 1139 35 1123 q 52 1154 47 1154 q 110 1137 75 1153 q 183 1094 144 1122 q 255 1030 222 1065 q 311 950 289 996 q 333 860 333 905 q 315 757 333 817 q 309 739 313 752 q 303 720 305 726 q 299 703 302 715 q 295 684 296 692 q 293 665 294 675 q 292 644 292 654 q 303 588 292 615 q 335 542 315 562 q 377 507 354 522 q 425 485 401 492 q 430 468 430 480 q 425 451 430 456 q 332 391 372 435 q 292 292 292 348 q 311 189 292 248 q 333 76 333 121 q 311 -14 333 31 q 255 -95 289 -60 q 183 -158 222 -130 q 110 -201 144 -186 q 52 -219 75 -217 q 41 -203 47 -219 q 41 -179 35 -187 z "},"~":{"ha":836,"x_min":73,"x_max":772,"o":"m 73 406 q 101 471 73 436 q 173 531 128 506 q 260 556 217 556 q 310 552 285 556 q 363 538 334 548 q 404 523 391 528 q 448 505 417 518 q 468 496 451 503 q 489 488 484 490 q 510 479 494 486 q 533 471 526 473 q 556 465 541 469 q 581 459 570 460 q 605 456 591 457 q 631 454 618 454 q 686 468 658 454 q 732 496 715 481 q 761 526 750 511 q 772 513 769 523 q 744 448 772 484 q 672 388 717 413 q 585 363 628 363 q 555 365 570 363 q 525 370 541 366 q 498 376 510 373 q 470 386 486 380 q 445 395 454 391 q 419 406 436 399 q 397 415 403 412 q 376 423 390 417 q 355 432 363 429 q 334 440 347 435 q 311 448 320 445 q 288 455 301 451 q 264 460 275 458 q 240 463 253 462 q 214 465 227 465 q 158 451 187 465 q 112 423 130 438 q 83 393 94 408 q 73 406 75 396 z "},"":{"ha":323,"x_min":0,"x_max":0,"o":""},"":{"ha":375,"x_min":75,"x_max":302,"o":"m 75 561 q 107 640 75 606 q 187 673 140 673 q 269 639 235 673 q 302 556 302 605 q 287 500 302 526 q 245 460 271 475 q 189 445 219 445 q 131 461 157 445 q 90 504 104 477 q 75 561 75 530 m 88 -216 q 112 14 88 -185 q 152 321 136 214 q 163 347 157 338 q 182 360 170 356 q 200 352 189 360 q 217 334 211 345 q 258 38 233 241 q 283 -217 283 -165 q 254 -291 283 -264 q 182 -319 224 -319 q 116 -291 144 -319 q 88 -216 88 -262 z "},"":{"ha":732,"x_min":65,"x_max":664,"o":"m 65 304 q 91 171 65 231 q 161 70 117 110 q 262 8 205 31 q 385 -14 320 -14 q 466 -2 425 -14 q 536 26 506 9 q 592 64 566 43 q 634 102 618 85 q 659 134 650 119 q 664 163 664 140 q 659 179 664 170 q 646 190 653 188 q 475 114 576 114 q 415 122 445 114 q 357 151 386 130 q 306 202 328 171 q 271 281 284 233 q 257 392 257 330 q 264 464 257 427 q 284 531 271 500 q 318 582 298 562 q 363 602 339 602 q 419 589 391 602 q 467 555 447 576 q 481 537 470 551 q 498 518 492 524 q 514 503 504 512 q 535 490 524 494 q 557 486 546 486 q 621 515 596 486 q 646 581 646 545 q 640 614 646 599 q 630 636 635 629 q 615 653 625 643 q 559 672 600 663 q 462 681 518 681 q 312 648 385 681 q 184 562 238 614 q 98 441 131 509 q 65 304 65 372 m 301 -44 l 427 730 q 462 728 444 730 q 480 719 480 726 l 354 -58 q 322 -54 340 -58 q 301 -44 304 -50 z "},"":{"ha":726,"x_min":68,"x_max":673,"o":"m 70 24 q 75 51 70 37 q 91 79 81 64 q 109 103 101 93 q 130 126 117 113 q 146 143 143 140 q 185 231 172 172 q 197 353 197 290 q 185 434 197 385 q 162 524 174 482 q 151 583 151 566 q 165 683 151 633 q 204 774 180 733 q 262 852 229 816 q 331 913 295 888 q 406 952 368 938 q 480 966 445 966 q 538 958 516 966 q 588 932 561 950 q 597 912 593 928 q 602 884 602 896 q 580 820 602 844 q 527 795 559 795 q 482 805 498 795 q 450 834 465 814 q 435 851 441 845 q 421 866 430 858 q 403 877 412 873 q 385 881 394 881 q 347 867 362 881 q 324 828 332 854 q 313 771 316 802 q 310 697 310 740 q 319 620 310 659 q 340 553 329 581 q 361 492 352 526 q 371 430 371 458 q 359 349 371 390 q 331 277 348 309 q 296 223 313 245 q 263 185 279 200 q 361 208 304 208 q 404 198 380 208 q 447 176 427 188 q 494 153 467 163 q 549 143 522 143 q 594 157 574 143 q 622 181 614 170 q 640 211 630 193 q 641 214 640 213 q 653 213 646 216 q 665 203 661 210 q 673 175 673 195 q 657 136 667 157 q 628 88 646 115 q 587 39 609 61 q 533 3 564 18 q 468 -12 501 -12 q 413 -3 439 -12 q 365 19 387 6 q 321 46 343 33 q 271 68 299 59 q 211 77 242 77 q 179 66 197 77 q 149 44 161 56 q 117 14 136 33 q 94 -9 98 -6 q 78 2 85 -9 q 70 24 70 14 m 71 467 q 71 480 68 470 q 78 502 73 490 q 90 522 83 513 q 102 530 97 530 l 582 530 q 589 508 592 522 q 579 482 587 494 q 567 467 572 470 l 71 467 z "},"":{"ha":855,"x_min":111,"x_max":749,"o":"m 111 234 l 193 311 q 147 467 147 383 q 205 643 147 566 l 126 728 q 130 747 120 734 q 157 772 139 760 q 193 790 176 785 l 272 707 q 427 753 340 753 q 597 691 523 753 l 686 774 q 705 771 692 781 q 731 744 718 762 q 749 708 744 726 l 658 623 q 702 467 702 549 q 652 302 702 376 l 734 214 q 730 195 740 208 q 703 170 721 182 q 667 152 684 157 l 588 235 q 427 182 515 182 q 254 243 329 182 l 173 167 q 154 171 168 161 q 129 198 141 180 q 111 234 116 216 m 289 485 q 310 360 289 416 q 364 274 330 304 q 437 243 398 243 q 527 301 493 243 q 561 447 561 359 q 541 572 561 515 q 488 661 522 629 q 416 692 455 692 q 350 664 379 692 q 304 589 320 636 q 289 485 289 541 z "},"":{"ha":1051,"x_min":41,"x_max":1013,"o":"m 47 920 q 42 949 41 929 q 47 977 42 970 q 264 966 151 966 q 479 977 375 966 q 484 949 484 970 q 479 920 484 929 q 470 920 478 920 q 458 919 463 920 q 446 918 454 919 q 432 916 437 917 q 418 912 426 914 q 405 907 410 909 q 395 900 400 904 q 388 891 391 896 q 386 880 386 886 q 397 855 386 874 l 578 519 q 644 620 584 515 q 770 849 703 725 q 778 884 778 865 q 665 920 778 912 q 660 949 660 929 q 665 977 661 970 q 710 973 680 976 q 753 969 741 970 q 789 967 766 968 q 837 966 812 966 q 931 971 876 966 q 1007 977 987 976 q 1012 949 1012 970 q 1007 920 1013 929 q 998 920 1007 920 q 984 919 989 920 q 969 917 980 918 q 952 914 958 916 q 936 910 945 913 q 919 903 926 907 q 905 894 912 899 q 895 882 899 889 q 750 652 856 825 q 618 422 645 479 q 610 393 610 405 l 609 220 q 609 173 609 189 q 611 137 610 158 q 614 102 612 116 q 621 77 617 88 q 719 50 629 57 q 724 22 724 42 q 719 -6 724 1 q 501 5 615 5 q 287 -6 391 5 q 282 22 282 1 q 287 50 281 42 q 385 77 376 57 q 395 129 393 98 q 397 220 397 159 l 397 401 q 392 425 397 414 q 360 490 383 446 q 310 585 336 535 q 257 680 283 634 q 214 757 231 726 l 197 787 q 151 871 172 834 q 117 900 140 888 q 78 916 95 911 q 47 920 61 920 m 246 227 q 253 262 239 233 q 277 290 267 290 l 757 290 q 764 268 767 281 q 754 242 761 254 q 741 227 747 230 l 246 227 m 246 348 q 253 383 239 355 q 277 412 267 412 l 757 412 q 764 389 767 403 q 754 363 761 375 q 741 348 747 351 l 246 348 z "},"":{"ha":319,"x_min":119,"x_max":201,"o":"m 120 -182 q 120 -181 120 -182 q 120 -178 119 -180 q 120 -175 120 -176 l 120 378 q 127 391 119 387 q 189 398 153 398 q 198 396 195 398 q 201 391 201 393 l 201 389 l 201 -164 q 169 -179 201 -172 q 127 -187 136 -187 q 123 -186 125 -187 q 120 -184 121 -186 q 120 -182 120 -183 m 120 587 q 120 588 120 587 q 120 590 120 589 q 120 594 119 591 q 120 597 120 596 l 120 1150 q 127 1162 119 1159 q 189 1170 153 1170 q 198 1167 195 1170 q 201 1163 201 1165 l 201 1160 l 201 608 q 169 592 201 600 q 127 585 136 585 q 123 585 125 585 q 120 587 121 586 z "},"":{"ha":709,"x_min":55,"x_max":654,"o":"m 55 572 q 71 649 55 607 q 113 730 87 692 q 168 805 138 768 q 223 866 197 841 q 267 904 249 891 q 268 888 267 897 q 268 871 269 879 q 264 857 268 864 q 249 829 260 844 q 230 804 238 814 l 222 795 q 175 728 188 754 q 163 654 163 701 q 173 583 163 618 q 198 521 184 547 q 239 464 213 494 q 284 414 265 433 q 334 366 303 395 q 367 337 345 357 q 403 304 389 317 q 437 272 417 292 q 470 235 458 252 q 495 198 483 218 q 513 157 507 178 q 519 114 519 136 q 496 23 519 68 q 435 -58 473 -22 q 340 -117 396 -94 q 222 -140 283 -140 q 184 -133 207 -140 q 146 -119 161 -126 q 135 -79 135 -100 q 141 -47 135 -61 q 161 -23 146 -33 q 196 -14 175 -14 q 261 -47 228 -14 q 316 -64 278 -64 q 367 -56 342 -64 q 412 -28 392 -47 q 431 18 431 -9 q 417 65 431 38 q 385 117 404 93 q 336 173 366 142 q 286 224 306 204 q 237 269 265 243 q 229 276 235 271 q 201 302 210 293 q 175 327 192 311 q 150 353 159 343 q 127 378 141 363 q 106 406 114 394 q 89 434 99 418 q 74 465 79 450 q 64 498 69 480 q 57 534 59 515 q 55 572 55 553 m 190 739 q 213 829 190 784 q 275 911 236 875 q 370 969 313 947 q 488 992 426 992 q 564 972 517 992 q 574 926 574 951 q 560 883 574 899 q 515 866 546 866 q 489 872 502 866 q 469 882 475 878 q 453 897 463 887 q 393 916 431 916 q 342 908 368 916 q 298 881 317 900 q 278 834 278 861 q 292 787 278 814 q 325 735 307 760 q 374 679 344 711 q 424 628 404 648 q 473 583 444 609 q 480 576 475 581 q 520 539 507 551 q 555 504 533 527 q 589 466 578 481 q 615 427 600 450 q 637 382 630 403 q 649 335 644 361 q 654 279 654 308 q 630 183 654 237 q 570 83 605 130 q 500 0 534 37 q 442 -52 465 -36 q 442 -36 443 -45 q 441 -19 441 -26 q 445 -5 441 -12 q 460 23 450 7 q 479 47 471 38 l 488 56 q 533 123 520 95 q 547 197 547 152 q 536 269 547 234 q 511 331 526 304 q 470 389 496 357 q 425 438 444 420 q 375 486 406 457 q 342 515 365 496 q 306 548 320 535 q 272 580 292 560 q 239 617 252 600 q 215 654 227 634 q 196 696 202 675 q 190 739 190 717 z "},"":{"ha":618,"x_min":45,"x_max":571,"o":"m 45 781 q 75 853 45 824 q 147 882 104 882 q 199 869 176 882 q 237 832 223 856 q 251 781 251 809 q 221 708 251 738 q 147 677 191 677 q 75 707 104 677 q 45 781 45 737 m 365 781 q 378 832 365 809 q 416 869 392 856 q 468 882 439 882 q 508 874 489 882 q 541 853 528 867 q 563 821 555 840 q 571 781 571 802 q 541 708 571 738 q 468 677 511 677 q 395 708 425 677 q 365 781 365 738 z "},"":{"ha":991,"x_min":81,"x_max":911,"o":"m 81 473 q 96 583 81 529 q 137 682 111 637 q 202 766 163 728 q 286 831 240 804 q 385 872 331 857 q 495 887 439 887 q 657 854 580 887 q 790 766 734 821 q 879 634 846 711 q 911 472 911 557 q 879 311 911 388 q 790 179 846 234 q 657 91 734 123 q 495 58 580 58 q 334 91 411 58 q 201 179 257 123 q 113 311 146 235 q 81 473 81 388 m 149 471 q 166 361 149 414 q 216 266 184 309 q 291 192 248 224 q 386 142 333 159 q 495 125 439 125 q 630 152 566 125 q 740 226 694 180 q 814 336 787 272 q 842 471 842 400 q 814 606 842 541 q 740 716 787 670 q 630 790 694 762 q 495 817 566 817 q 360 790 425 817 q 250 716 296 762 q 176 606 203 670 q 149 471 149 541 m 279 463 q 311 582 279 529 q 395 663 343 635 q 506 691 446 691 q 547 687 524 691 q 600 676 570 684 q 638 667 631 669 q 642 650 638 665 q 649 620 646 635 q 656 590 653 604 q 659 572 659 575 q 657 570 659 572 q 651 567 654 568 q 643 565 647 566 q 637 564 640 564 q 627 565 629 564 q 622 584 625 574 q 609 606 618 593 q 588 629 600 619 q 556 645 576 638 q 511 652 536 652 q 454 636 479 652 q 416 594 430 621 q 396 536 403 568 q 389 471 389 505 q 402 379 389 420 q 446 312 416 338 q 518 286 476 286 q 597 311 568 286 q 641 389 623 336 q 670 382 664 389 q 666 356 670 378 q 655 311 661 334 q 644 287 648 288 q 614 276 635 284 q 578 262 593 267 q 542 252 564 257 q 500 248 520 248 q 340 306 401 248 q 279 463 279 364 z "},"":{"ha":587,"x_min":65,"x_max":544,"o":"m 65 501 q 74 538 65 520 q 96 569 83 556 q 123 587 109 581 q 327 661 276 643 l 327 676 l 327 703 q 309 772 327 743 q 263 800 290 800 q 241 796 250 800 q 225 785 231 791 q 214 767 219 779 q 206 745 209 755 q 199 719 203 735 q 179 687 194 699 q 137 675 163 675 q 96 688 113 675 q 79 723 79 702 q 94 767 79 745 q 120 786 100 774 q 168 812 139 798 q 234 836 196 826 q 305 846 271 846 q 389 826 351 846 q 449 769 427 806 q 471 686 471 732 l 471 496 q 479 468 471 477 q 498 458 487 458 q 513 461 505 458 q 526 468 520 465 q 533 473 532 472 q 540 464 536 471 q 544 451 544 456 q 538 433 544 442 q 484 397 519 416 q 419 378 450 378 q 368 393 393 378 q 334 425 342 407 q 307 409 326 420 q 258 388 287 399 q 211 377 229 377 q 108 415 151 377 q 65 501 65 454 m 214 512 q 236 466 215 481 q 283 450 258 450 q 312 458 298 450 q 327 473 327 467 l 327 606 q 310 600 324 605 q 289 593 296 595 q 271 586 282 591 q 252 576 260 581 q 214 512 214 553 z "},"":{"ha":762,"x_min":39,"x_max":694,"o":"m 50 354 q 39 377 39 365 q 50 399 39 389 q 130 450 91 424 q 199 499 169 477 q 257 544 230 522 q 303 582 283 565 q 337 612 323 600 q 360 634 351 625 q 369 643 368 642 q 392 632 378 641 q 410 614 406 624 q 369 562 406 608 q 281 459 331 516 q 207 377 232 401 q 281 295 232 352 q 369 192 331 237 q 410 140 406 146 q 392 121 406 130 q 369 111 378 113 q 360 120 368 111 q 337 141 351 128 q 303 171 323 154 q 257 210 283 189 q 199 254 230 231 q 130 303 169 277 q 50 354 91 330 m 334 354 q 323 377 323 365 q 334 399 323 389 q 414 450 375 424 q 484 499 453 477 q 541 544 514 522 q 587 582 568 565 q 621 612 607 600 q 644 634 635 625 q 653 643 652 642 q 676 632 662 641 q 694 614 690 624 q 653 562 690 608 q 566 459 615 516 q 491 377 516 401 q 533 332 507 361 q 585 272 559 303 q 636 212 612 241 q 676 162 661 182 q 694 140 692 142 q 676 121 690 130 q 653 111 662 113 q 644 120 652 111 q 621 141 635 128 q 587 171 607 154 q 541 210 568 189 q 484 254 514 231 q 414 303 453 277 q 334 354 375 330 z "},"":{"ha":895,"x_min":70,"x_max":790,"o":"m 70 565 q 93 638 77 638 l 790 638 l 790 257 q 774 253 789 256 q 738 246 760 250 q 701 243 715 243 q 689 245 694 243 q 682 251 684 248 l 681 254 l 681 550 l 79 550 q 77 550 78 550 q 75 551 76 551 q 74 553 75 551 q 72 555 73 554 q 71 559 71 557 q 70 565 70 562 z "},"":{"ha":570,"x_min":85,"x_max":485,"o":"m 85 319 q 108 406 85 357 q 474 424 424 422 q 482 421 479 424 q 485 410 485 418 q 478 365 485 391 q 462 319 471 339 q 96 302 431 317 q 87 306 90 302 q 85 319 85 309 z "},"":{"ha":991,"x_min":81,"x_max":911,"o":"m 81 550 q 96 660 81 606 q 137 760 111 714 q 202 843 163 805 q 286 908 240 882 q 385 950 331 935 q 495 964 439 964 q 657 932 580 964 q 790 844 734 899 q 879 711 846 788 q 911 550 911 634 q 879 389 911 465 q 790 256 846 312 q 657 168 734 201 q 495 135 580 135 q 334 168 411 135 q 201 256 257 201 q 113 389 146 312 q 81 550 81 465 m 149 549 q 158 469 149 508 q 184 396 167 430 q 225 332 201 362 q 278 278 248 302 q 343 237 309 254 q 416 211 377 220 q 495 202 455 202 q 630 230 566 202 q 740 303 694 257 q 814 414 787 349 q 842 549 842 478 q 814 683 842 619 q 740 794 787 747 q 630 867 694 840 q 495 895 566 895 q 360 867 425 895 q 250 794 296 840 q 176 683 203 747 q 149 549 149 619 m 309 355 q 306 367 306 358 q 309 380 306 376 q 331 384 317 380 q 348 392 346 387 q 353 448 353 404 l 353 670 q 348 726 353 714 q 309 735 345 735 q 306 749 306 739 q 309 761 306 759 q 399 760 336 760 q 443 760 411 760 q 494 761 474 761 q 593 731 553 761 q 633 648 633 701 q 623 613 633 631 q 598 583 613 595 q 568 562 583 570 q 541 550 553 553 q 560 525 550 538 q 579 502 570 512 q 596 481 588 491 q 612 463 605 471 q 624 449 618 455 q 632 441 629 444 l 635 437 q 676 401 654 415 q 707 384 697 387 q 722 381 717 381 q 723 375 723 380 q 723 367 723 371 q 722 359 722 363 q 722 355 722 355 q 653 353 685 353 q 597 366 620 353 q 553 407 575 379 l 462 530 q 451 539 456 539 l 442 539 l 442 448 q 447 392 442 404 q 464 384 449 387 q 486 380 478 380 q 488 367 488 376 q 486 355 488 358 q 398 360 450 360 q 309 355 345 360 m 442 568 l 467 568 q 518 589 497 568 q 539 644 539 610 q 532 688 539 669 q 510 720 525 708 q 475 732 495 732 q 445 726 448 732 q 442 688 442 719 l 442 568 z "},"":{"ha":712,"x_min":854,"x_max":1206,"o":"m 854 844 q 854 856 854 848 q 857 877 855 864 q 862 898 858 889 q 872 907 866 907 l 1198 907 q 1206 897 1206 907 q 1197 842 1206 874 q 1193 835 1196 838 q 1188 831 1190 832 l 1186 831 l 863 831 q 860 831 862 831 q 856 834 859 831 q 854 844 854 838 z "},"":{"ha":440,"x_min":52,"x_max":389,"o":"m 52 816 q 101 934 52 885 q 220 983 151 983 q 305 961 266 983 q 366 900 344 939 q 389 816 389 861 q 339 696 389 746 q 220 646 290 646 q 101 696 151 646 q 52 816 52 746 m 136 866 q 129 854 136 866 q 123 816 123 843 q 136 766 123 789 q 171 729 149 743 q 220 715 193 715 q 290 745 261 715 q 319 816 319 774 q 290 885 319 857 q 220 914 261 914 q 171 901 193 914 q 136 866 149 888 z "},"":{"ha":884,"x_min":76,"x_max":806,"o":"m 76 38 q 80 68 76 47 q 93 102 85 90 l 793 102 q 803 95 800 102 q 806 81 806 88 q 784 14 806 42 l 85 14 q 76 38 76 14 m 76 489 q 77 504 76 494 q 83 530 79 515 q 93 553 87 545 l 395 553 l 395 855 q 427 868 406 864 q 458 872 448 872 q 483 859 483 872 l 483 553 l 793 553 q 803 546 800 553 q 806 532 806 539 q 784 465 806 493 l 483 465 l 483 164 q 467 157 477 160 q 446 151 456 153 q 427 148 436 149 q 412 147 418 147 q 407 148 410 147 q 403 149 405 149 q 400 151 401 150 q 397 154 398 153 q 395 157 396 155 q 395 159 395 158 l 395 465 l 85 465 q 76 489 76 465 z "},"":{"ha":534,"x_min":58,"x_max":471,"o":"m 58 407 q 122 479 99 453 q 174 540 145 505 q 239 621 203 575 q 294 712 277 671 q 310 798 310 753 q 281 868 310 842 q 213 895 253 895 q 169 884 190 895 q 137 861 148 873 q 115 835 125 849 q 105 821 105 821 q 96 822 101 821 q 86 828 92 823 q 81 842 81 833 q 104 878 88 857 q 145 921 120 898 q 205 960 170 944 q 278 975 241 975 q 407 935 359 975 q 454 817 454 895 q 444 759 454 788 q 414 703 433 730 q 375 656 394 676 q 331 612 357 635 q 187 494 254 543 l 357 494 q 378 498 368 494 q 393 507 387 503 q 407 524 399 512 q 416 540 414 535 q 426 560 419 545 q 433 577 432 575 q 436 581 433 579 q 443 584 439 583 q 450 585 446 585 q 471 581 464 585 q 441 476 464 551 q 413 386 419 401 l 68 386 q 58 407 63 391 z "},"":{"ha":513,"x_min":55,"x_max":462,"o":"m 55 445 q 68 481 55 465 q 103 498 81 498 q 127 492 115 498 q 146 475 138 485 q 164 451 155 466 q 194 423 175 433 q 233 413 214 413 q 301 445 277 413 q 325 538 325 476 q 293 632 325 591 q 216 673 262 673 q 167 669 182 673 q 158 691 158 682 q 161 709 158 703 q 193 715 177 711 q 229 728 210 720 q 262 748 248 736 q 287 778 277 760 q 296 817 296 795 q 271 881 296 856 q 205 905 246 905 q 159 893 182 905 q 124 872 136 882 q 108 855 113 862 q 93 864 100 857 q 87 881 85 871 q 168 947 115 918 q 272 975 220 975 q 308 971 289 975 q 347 957 327 967 q 382 932 367 947 q 408 896 398 918 q 418 848 418 874 q 409 800 418 821 q 389 766 401 779 q 360 744 376 753 q 332 731 344 734 q 307 724 319 727 q 335 720 318 724 q 374 703 352 715 q 416 675 397 692 q 449 632 435 659 q 462 572 462 605 q 445 500 462 534 q 402 444 429 467 q 340 404 375 420 q 268 380 304 387 q 195 372 231 372 q 139 377 165 372 q 95 389 113 382 q 68 404 78 396 q 55 445 55 425 z "},"":{"ha":358,"x_min":43,"x_max":305,"o":"m 43 821 q 66 862 43 825 q 123 950 89 899 q 184 1030 158 1000 q 204 1040 189 1036 q 235 1044 220 1044 q 288 1028 271 1044 q 305 1000 305 1013 q 271 943 305 979 q 193 874 236 906 q 112 817 149 842 q 68 793 75 793 q 52 803 60 793 q 43 821 43 813 z "},"":{"ha":791,"x_min":240,"x_max":951,"o":"m 240 -266 q 253 -2 240 -229 q 278 328 267 226 q 266 453 278 347 q 254 577 254 560 q 258 644 254 626 q 273 668 263 658 q 296 677 283 677 q 364 654 311 677 q 416 616 416 630 q 416 593 416 605 q 413 569 415 581 q 411 548 412 556 q 407 526 410 539 q 403 507 404 512 q 399 486 402 501 q 395 468 395 471 q 378 387 388 433 q 366 334 368 342 q 378 282 370 308 q 399 231 386 257 q 435 189 413 205 q 485 173 457 173 q 569 196 528 173 q 633 255 609 218 q 658 330 658 291 q 651 415 654 357 q 647 500 647 473 q 644 641 647 526 q 655 656 649 648 q 672 671 662 664 q 690 677 682 677 q 760 654 705 677 q 814 616 814 630 q 810 574 814 600 q 801 531 806 549 q 787 477 797 513 q 774 429 778 441 q 756 362 768 404 q 739 296 745 321 q 744 234 738 260 q 758 194 749 208 q 778 171 766 180 q 798 160 789 163 q 817 158 807 158 q 855 166 838 158 q 886 190 873 174 q 907 214 900 205 q 922 239 913 224 q 938 223 928 239 q 949 196 947 207 q 949 181 951 192 q 947 165 948 170 q 823 -6 889 -6 q 761 23 789 -5 q 716 93 732 51 q 692 185 700 134 q 653 86 677 130 q 593 16 629 43 q 517 -12 557 -12 q 460 9 489 -12 q 410 63 432 31 q 373 135 389 96 q 353 208 357 174 q 356 137 353 203 q 363 2 359 72 q 376 -157 367 -67 q 397 -309 385 -247 q 370 -332 389 -320 q 333 -345 351 -345 q 276 -313 312 -345 q 240 -266 240 -281 z "},"":{"ha":803,"x_min":50,"x_max":739,"o":"m 50 713 q 69 822 50 773 q 118 902 88 871 q 188 953 148 932 q 266 982 227 974 q 345 990 305 990 q 427 987 390 990 q 509 985 464 985 q 551 985 530 985 q 590 986 572 985 q 623 987 607 987 q 652 989 640 988 q 673 990 664 990 q 686 991 682 991 l 691 992 q 696 963 697 986 q 690 936 695 939 q 648 927 671 936 q 620 905 625 918 q 615 808 615 890 l 615 523 q 637 527 618 522 q 673 537 656 532 l 690 543 q 693 542 692 543 q 694 540 694 541 q 695 537 695 539 q 696 534 696 535 q 696 530 696 532 q 696 527 696 528 q 691 512 695 522 q 682 494 687 503 q 670 478 676 486 q 661 469 665 471 q 614 454 633 456 l 614 178 q 615 120 614 134 q 621 91 616 106 q 670 62 628 73 q 732 52 711 52 q 739 22 739 41 q 735 -6 739 3 q 677 -2 732 -6 q 582 3 623 1 q 498 5 540 5 q 414 3 457 5 q 325 -2 372 1 q 261 -6 278 -5 q 259 1 260 -3 q 257 11 258 6 q 257 22 257 16 q 258 32 257 27 q 259 41 258 37 q 260 48 259 45 q 261 50 260 50 q 321 61 283 50 q 368 90 359 72 q 371 99 370 94 q 374 111 373 104 q 376 123 375 118 q 376 136 376 127 q 377 149 376 145 q 377 163 377 153 q 377 176 377 174 l 377 436 q 206 467 279 436 q 92 560 133 497 q 50 713 50 623 m 453 179 q 454 113 453 132 q 460 79 455 94 q 495 71 463 71 q 529 77 527 71 q 533 88 531 82 q 535 101 534 94 q 536 113 536 108 q 537 128 537 118 q 538 142 538 138 q 538 157 538 146 q 538 170 538 168 l 538 444 q 453 437 538 444 l 453 179 m 453 506 q 500 508 466 506 q 539 513 535 511 l 539 909 q 495 916 532 916 q 453 907 462 916 l 453 506 z "},"":{"ha":366,"x_min":71,"x_max":295,"o":"m 71 403 q 104 481 71 448 q 184 513 137 513 q 262 481 229 513 q 295 403 295 448 q 263 321 295 356 q 187 287 232 287 q 105 322 140 287 q 71 403 71 357 z "},"":{"ha":689,"x_min":237,"x_max":463,"o":"m 237 -182 q 241 -172 237 -172 q 315 -195 287 -195 q 366 -181 350 -195 q 381 -149 381 -168 q 372 -114 381 -129 q 342 -99 363 -99 q 302 -109 329 -99 q 291 -101 298 -109 q 283 -87 283 -93 q 325 -3 310 -41 l 374 -3 q 354 -38 361 -24 q 387 -35 378 -35 q 440 -57 418 -35 q 463 -109 463 -79 q 424 -201 463 -165 q 316 -237 384 -237 q 273 -229 293 -237 q 243 -213 252 -222 q 240 -204 241 -210 q 238 -192 239 -198 q 237 -182 237 -185 z "},"":{"ha":441,"x_min":59,"x_max":394,"o":"m 65 834 q 62 839 65 834 q 59 853 59 844 q 61 865 59 863 q 167 912 108 884 q 261 957 226 939 q 298 974 297 974 l 299 974 q 313 961 303 974 q 323 943 322 948 q 305 814 305 876 l 305 526 q 309 475 305 501 q 321 442 313 450 q 343 431 326 436 q 373 424 359 426 q 392 422 387 422 q 394 403 394 422 q 392 382 393 384 q 240 389 246 389 q 85 382 231 389 q 81 405 81 387 q 85 422 81 422 q 107 425 92 422 q 137 433 121 428 q 158 444 153 438 q 168 481 163 450 q 173 527 173 512 l 173 777 q 171 805 173 791 q 166 827 170 818 q 157 842 162 837 q 144 848 151 848 q 76 823 130 848 q 65 834 71 825 z "},"":{"ha":616,"x_min":53,"x_max":564,"o":"m 53 608 q 86 724 53 671 q 178 809 120 777 q 307 840 237 840 q 439 811 380 840 q 531 730 498 781 q 564 615 564 678 q 544 525 564 568 q 490 450 524 482 q 409 400 456 418 q 309 381 361 381 q 176 411 235 381 q 85 493 117 441 q 53 608 53 545 m 208 627 q 212 573 208 600 q 224 519 216 546 q 246 473 233 493 q 278 441 259 453 q 321 429 297 429 q 351 434 337 429 q 373 448 364 439 q 389 471 382 457 q 399 498 395 484 q 405 529 403 511 q 408 561 408 547 q 409 593 409 575 q 402 662 409 627 q 382 726 395 696 q 346 776 369 757 q 295 795 323 795 q 264 789 278 795 q 242 774 251 783 q 227 752 233 766 q 217 724 220 738 q 211 692 213 711 q 209 660 209 674 q 208 627 208 646 z "},"":{"ha":762,"x_min":68,"x_max":723,"o":"m 68 140 q 110 192 73 146 q 197 295 147 237 q 272 377 247 352 q 197 459 247 401 q 110 562 147 516 q 68 614 73 608 q 86 632 73 624 q 109 643 100 641 q 119 634 110 642 q 141 612 127 625 q 175 582 155 600 q 222 544 195 565 q 279 499 249 522 q 349 450 310 477 q 429 399 388 424 q 439 377 439 389 q 429 354 439 365 q 349 303 388 330 q 279 254 310 277 q 222 210 249 231 q 175 171 195 189 q 141 141 155 154 q 119 120 127 128 q 109 111 110 111 q 86 121 100 113 q 68 140 73 130 m 353 140 q 371 162 355 142 q 411 212 387 182 q 461 272 435 241 q 514 332 488 303 q 556 377 541 361 q 481 459 531 401 q 394 562 431 516 q 353 614 357 608 q 371 632 357 624 q 393 643 385 641 q 403 634 394 642 q 426 612 412 625 q 459 582 439 600 q 506 544 479 565 q 563 499 533 522 q 633 450 593 477 q 713 399 672 424 q 723 377 723 389 q 713 354 723 365 q 633 303 672 330 q 563 254 593 277 q 506 210 533 231 q 459 171 479 189 q 426 141 439 154 q 403 120 412 128 q 393 111 394 111 q 380 116 389 112 q 364 126 372 119 q 353 140 355 133 z "},"":{"ha":1119,"x_min":49,"x_max":1076,"o":"m 50 865 q 116 893 80 877 q 180 923 151 909 q 234 948 209 937 q 273 967 259 960 q 289 974 288 974 q 313 943 311 948 q 295 814 295 876 l 295 526 q 299 475 295 501 q 310 442 302 450 q 332 431 315 436 q 362 424 349 426 q 381 422 376 422 q 383 403 383 422 q 381 382 382 384 q 229 389 235 389 q 75 382 220 389 q 71 405 71 387 q 75 422 71 422 q 114 429 87 422 q 147 444 140 435 q 158 481 153 450 q 163 527 163 512 l 163 777 q 155 828 163 808 q 134 848 147 848 q 65 823 119 848 q 55 844 60 825 q 50 865 49 863 m 307 -38 l 831 1007 q 886 1039 846 1029 q 898 1039 892 1040 q 908 1035 904 1038 q 913 1028 912 1032 l 389 -17 q 378 -29 387 -22 q 358 -42 370 -36 q 333 -52 345 -49 q 316 -50 323 -54 q 309 -43 310 -47 l 307 -38 m 626 165 q 694 248 658 204 q 765 335 730 292 q 831 416 800 378 q 898 499 862 454 q 958 574 934 544 q 979 587 968 587 q 986 584 981 587 q 996 577 991 581 q 1005 568 1001 574 q 1008 557 1008 563 l 1008 210 l 1046 210 q 1062 140 1076 182 l 1008 140 l 1008 3 q 937 -5 978 -5 q 894 -1 911 -5 q 876 7 876 2 l 876 140 l 644 140 q 636 145 640 141 q 629 154 632 149 q 626 165 626 160 m 721 210 l 722 210 l 722 210 l 723 210 l 724 210 l 724 210 l 725 210 l 726 210 l 726 210 l 727 210 l 728 210 l 728 210 l 729 210 l 730 210 l 730 210 l 731 210 l 732 210 l 732 210 l 733 210 l 734 210 l 734 210 l 735 210 l 736 210 l 736 210 l 737 210 l 738 210 l 739 210 l 739 210 l 740 210 l 741 210 l 741 210 l 742 210 l 743 210 l 743 210 l 744 210 l 745 210 l 745 210 l 746 210 l 747 210 l 747 210 l 748 210 l 749 210 l 749 210 l 750 210 l 751 210 l 751 210 l 752 210 l 753 210 l 753 210 l 754 210 l 755 210 l 755 210 l 756 210 l 757 210 l 758 210 l 758 210 l 759 210 l 760 210 l 760 210 l 761 210 l 762 210 l 762 210 l 763 210 l 764 210 l 764 210 l 765 210 l 766 210 l 766 210 l 767 210 l 768 210 l 768 210 l 769 210 l 770 210 l 770 210 l 771 210 l 772 210 l 772 210 l 773 210 l 774 210 l 774 210 l 775 210 l 776 210 l 777 210 l 777 210 l 778 210 l 779 210 l 779 210 l 780 210 l 781 210 l 781 210 l 782 210 l 783 210 l 783 210 l 784 210 l 785 210 l 785 210 l 786 210 l 787 210 l 787 210 l 788 210 l 789 210 l 790 210 l 791 210 l 791 210 l 792 210 l 793 210 l 793 210 l 794 210 l 795 210 l 795 210 l 796 210 l 797 210 l 798 210 l 799 210 l 800 210 l 800 210 l 801 210 l 802 210 l 802 210 l 803 210 l 804 210 l 804 210 l 805 210 l 806 210 l 807 210 l 808 210 l 808 210 l 809 210 l 810 210 l 810 210 l 811 210 l 812 210 l 813 210 l 814 210 l 814 210 l 815 210 l 816 210 l 817 210 l 817 210 l 819 210 l 819 210 l 820 210 l 821 210 l 821 210 l 822 210 l 823 210 l 823 210 l 825 210 l 825 210 l 826 210 l 827 210 l 827 210 l 828 210 l 829 210 l 830 210 l 831 210 l 831 210 l 832 210 l 833 210 l 833 210 l 834 210 l 836 210 l 836 210 l 837 210 l 838 210 l 838 210 l 839 210 l 840 210 l 840 210 l 842 210 l 842 210 l 843 210 l 844 210 l 844 210 l 845 210 l 846 210 l 847 210 l 848 210 l 848 210 l 849 210 l 850 210 l 850 210 l 851 210 l 852 210 l 853 210 l 854 210 l 854 210 l 855 210 l 856 210 l 857 210 l 857 210 l 858 210 l 859 210 l 859 210 l 861 210 l 861 210 l 862 210 l 863 210 l 863 210 l 864 210 l 865 210 l 865 210 l 866 210 l 867 210 l 867 210 l 868 210 l 869 210 l 870 210 l 876 210 l 876 398 q 793 297 857 376 q 722 210 729 218 l 721 210 z "},"":{"ha":1136,"x_min":50,"x_max":1084,"o":"m 52 865 q 98 885 73 873 q 146 906 123 896 q 190 926 168 916 q 229 945 212 937 q 260 960 247 954 q 282 970 274 966 q 290 974 290 974 q 315 943 311 952 q 296 814 296 876 l 296 526 q 297 503 296 515 q 300 478 298 490 q 305 455 302 465 q 311 442 308 446 q 346 428 319 433 q 382 422 372 422 q 385 403 385 422 q 382 382 384 384 q 231 389 237 389 q 76 382 222 389 q 73 405 73 387 q 76 422 73 422 q 98 425 83 422 q 128 433 113 428 q 149 444 144 438 q 159 481 154 450 q 164 527 164 512 l 164 777 q 156 828 164 808 q 135 848 149 848 q 67 823 120 848 q 55 841 61 825 q 52 865 50 857 m 275 -38 l 799 1007 q 854 1039 814 1029 q 871 1038 863 1041 q 881 1028 880 1034 l 357 -17 q 346 -29 355 -22 q 326 -42 338 -36 q 301 -52 313 -49 q 284 -50 291 -54 q 276 -43 278 -47 l 275 -38 m 671 18 q 766 125 732 85 q 852 233 801 166 q 907 323 891 283 q 924 409 924 364 q 895 479 924 452 q 827 506 867 506 q 783 495 804 506 q 750 472 762 484 q 729 446 739 460 q 719 431 719 431 q 713 432 716 431 q 705 435 709 433 q 697 442 701 437 q 694 453 694 446 q 718 489 702 469 q 759 532 734 509 q 819 571 783 555 q 892 587 854 587 q 1021 546 973 587 q 1068 429 1068 505 q 1058 370 1068 399 q 1027 314 1047 341 q 989 267 1008 288 q 945 223 970 247 q 800 105 867 154 l 970 105 q 991 110 981 105 q 1007 119 1001 114 q 1020 135 1013 123 q 1030 151 1027 146 q 1039 171 1033 156 q 1046 189 1046 186 q 1053 194 1048 191 q 1063 196 1059 196 q 1084 191 1078 196 q 1055 87 1078 161 q 1027 -3 1033 13 l 682 -3 q 671 18 677 2 z "},"":{"ha":1124,"x_min":52,"x_max":1080,"o":"m 52 445 q 65 481 52 465 q 100 498 78 498 q 132 486 118 498 q 161 451 146 473 q 170 440 165 445 q 180 431 174 435 q 192 423 186 427 q 204 418 198 420 q 217 414 210 416 q 229 413 223 413 q 298 445 273 413 q 322 538 322 476 q 290 632 322 591 q 213 673 258 673 q 164 669 179 673 q 155 691 155 682 q 158 709 155 703 q 191 715 174 711 q 226 728 207 720 q 259 748 245 736 q 283 778 274 760 q 293 817 293 795 q 268 881 293 856 q 202 905 243 905 q 156 893 180 905 q 121 872 132 882 q 105 855 111 862 q 90 864 98 857 q 83 881 81 871 q 164 947 112 918 q 269 975 217 975 q 305 971 286 975 q 344 957 324 967 q 379 932 363 947 q 405 896 395 918 q 415 848 415 874 q 410 812 415 829 q 398 784 406 795 q 381 762 391 772 q 362 747 372 753 q 340 736 352 741 q 320 729 329 731 q 304 724 312 726 q 326 721 313 724 q 357 710 339 717 q 393 691 376 703 q 425 663 410 678 q 449 623 440 647 q 458 572 458 600 q 447 511 458 540 q 416 460 435 482 q 370 422 396 439 q 313 394 343 405 q 253 378 283 383 q 191 372 222 372 q 136 377 163 372 q 93 389 110 382 q 65 404 75 396 q 52 445 52 425 m 327 -38 l 850 1007 q 905 1039 866 1029 q 918 1039 912 1040 q 928 1035 924 1038 q 932 1028 932 1032 l 409 -17 q 388 -36 405 -25 q 353 -52 371 -47 q 336 -50 342 -54 q 328 -43 330 -47 l 327 -38 m 631 165 q 699 248 663 204 q 769 335 734 292 q 835 416 804 378 q 902 499 866 454 q 963 574 939 544 q 983 587 972 587 q 1001 577 989 587 q 1013 557 1013 568 l 1013 210 l 1051 210 q 1066 140 1080 182 l 1013 140 l 1013 3 q 942 -5 983 -5 q 899 -1 916 -5 q 881 7 881 2 l 881 140 l 648 140 q 641 145 645 141 q 634 154 637 149 q 631 165 631 160 m 726 210 l 726 210 l 727 210 l 728 210 l 728 210 l 729 210 l 730 210 l 730 210 l 731 210 l 732 210 l 732 210 l 733 210 l 734 210 l 734 210 l 735 210 l 736 210 l 736 210 l 737 210 l 738 210 l 739 210 l 739 210 l 740 210 l 741 210 l 741 210 l 742 210 l 743 210 l 743 210 l 744 210 l 745 210 l 745 210 l 746 210 l 747 210 l 747 210 l 748 210 l 749 210 l 749 210 l 750 210 l 751 210 l 751 210 l 752 210 l 753 210 l 753 210 l 754 210 l 755 210 l 755 210 l 756 210 l 757 210 l 758 210 l 758 210 l 759 210 l 760 210 l 760 210 l 761 210 l 762 210 l 762 210 l 763 210 l 764 210 l 764 210 l 765 210 l 766 210 l 766 210 l 767 210 l 768 210 l 768 210 l 769 210 l 770 210 l 770 210 l 771 210 l 772 210 l 772 210 l 773 210 l 774 210 l 774 210 l 775 210 l 776 210 l 777 210 l 777 210 l 778 210 l 779 210 l 779 210 l 780 210 l 781 210 l 781 210 l 782 210 l 783 210 l 784 210 l 785 210 l 785 210 l 786 210 l 787 210 l 787 210 l 788 210 l 789 210 l 789 210 l 790 210 l 791 210 l 791 210 l 792 210 l 793 210 l 793 210 l 794 210 l 795 210 l 795 210 l 796 210 l 798 210 l 798 210 l 799 210 l 800 210 l 800 210 l 801 210 l 802 210 l 802 210 l 803 210 l 804 210 l 804 210 l 806 210 l 806 210 l 807 210 l 808 210 l 808 210 l 809 210 l 810 210 l 810 210 l 811 210 l 812 210 l 813 210 l 814 210 l 814 210 l 815 210 l 816 210 l 817 210 l 817 210 l 818 210 l 819 210 l 820 210 l 821 210 l 821 210 l 822 210 l 823 210 l 823 210 l 824 210 l 825 210 l 826 210 l 827 210 l 827 210 l 828 210 l 829 210 l 829 210 l 831 210 l 831 210 l 832 210 l 833 210 l 833 210 l 834 210 l 835 210 l 836 210 l 837 210 l 838 210 l 838 210 l 839 210 l 840 210 l 840 210 l 842 210 l 842 210 l 843 210 l 844 210 l 844 210 l 845 210 l 846 210 l 846 210 l 848 210 l 848 210 l 849 210 l 850 210 l 850 210 l 851 210 l 852 210 l 853 210 l 854 210 l 854 210 l 855 210 l 856 210 l 857 210 l 857 210 l 858 210 l 859 210 l 860 210 l 861 210 l 861 210 l 862 210 l 863 210 l 863 210 l 864 210 l 865 210 l 865 210 l 866 210 l 867 210 l 868 210 l 869 210 l 869 210 l 870 210 l 871 210 l 871 210 l 872 210 l 873 210 l 873 210 l 874 210 l 881 210 l 881 398 q 798 297 862 376 q 726 210 734 218 l 726 210 z "},"":{"ha":589,"x_min":49,"x_max":521,"o":"m 49 -58 q 52 -16 49 -36 q 64 20 56 3 q 80 51 72 37 q 102 79 88 65 q 127 102 117 93 q 155 124 137 112 q 183 143 173 136 q 213 161 193 149 q 240 178 232 173 q 266 193 249 183 q 295 210 283 203 q 321 228 307 218 q 346 248 335 237 q 365 269 357 258 q 369 280 368 273 q 372 294 371 286 q 373 308 372 302 q 373 322 373 313 q 372 333 372 330 q 382 350 375 340 q 395 360 390 360 q 408 357 401 360 q 421 349 416 353 q 430 342 427 345 q 439 316 434 332 q 449 280 444 300 q 457 236 454 260 q 460 190 460 212 q 453 141 460 165 q 434 101 445 118 q 405 68 423 85 q 373 41 387 51 q 339 17 359 31 q 178 -151 178 -90 q 186 -183 178 -168 q 215 -211 195 -199 q 260 -223 234 -223 q 292 -214 275 -223 q 324 -190 309 -204 q 356 -162 340 -176 q 391 -139 372 -149 q 427 -129 410 -129 q 495 -159 469 -129 q 521 -229 521 -190 q 514 -270 521 -248 q 498 -299 507 -292 q 361 -325 453 -325 q 322 -321 345 -325 q 270 -309 300 -318 q 210 -287 239 -300 q 150 -252 180 -273 q 98 -203 121 -230 q 62 -139 76 -176 q 49 -58 49 -101 m 278 557 q 310 640 278 605 q 386 675 341 675 q 466 641 430 675 q 501 557 501 607 q 469 479 501 511 q 392 447 436 447 q 334 461 361 447 q 293 502 308 476 q 278 557 278 527 z "},"":{"ha":1025,"x_min":-21,"x_max":1036,"o":"m -14 -6 q -20 17 -18 -1 q -17 49 -21 36 q 40 65 0 49 q 90 97 79 81 q 143 203 115 140 l 467 948 q 493 985 474 965 q 523 1006 511 1006 q 542 1002 532 1006 q 555 995 552 999 l 866 225 q 889 165 876 200 q 909 115 902 130 q 936 79 918 94 q 974 59 954 64 q 1007 52 995 54 q 1028 50 1019 50 q 1035 19 1034 40 q 1031 -6 1036 -1 q 943 0 1018 -5 q 828 6 867 6 q 754 4 797 6 q 662 -2 711 1 q 599 -6 612 -5 q 593 25 593 -1 q 599 50 593 50 q 647 58 621 50 q 688 77 673 65 q 702 103 702 89 q 679 167 702 109 q 633 279 656 225 l 610 334 q 600 340 605 340 q 454 342 571 342 q 296 340 349 342 q 286 333 290 340 q 231 205 248 248 q 208 142 219 176 q 197 102 197 109 q 214 77 197 88 q 252 61 230 66 q 291 53 274 56 q 315 50 308 50 q 320 20 321 41 q 316 -6 320 -1 q 152 6 210 6 q 118 5 135 6 q 91 4 101 5 q 62 2 81 4 q 38 0 43 1 q 11 -3 33 -1 q -14 -6 -11 -6 m 287 1262 q 296 1289 287 1278 q 320 1307 306 1301 q 347 1317 334 1314 q 372 1320 361 1320 q 399 1314 387 1320 q 515 1211 449 1276 q 582 1137 582 1145 q 575 1117 582 1128 q 561 1106 568 1106 q 524 1117 554 1106 q 455 1145 494 1127 q 377 1183 415 1163 q 313 1225 340 1203 q 287 1262 287 1246 m 319 425 q 322 419 319 419 q 448 415 368 415 q 570 418 523 415 q 572 420 571 418 q 574 423 573 422 l 574 425 l 448 723 l 319 425 z "},"":{"ha":1025,"x_min":-21,"x_max":1036,"o":"m -14 -6 q -20 17 -18 -1 q -17 49 -21 36 q 40 65 0 49 q 90 97 79 81 q 143 203 115 140 l 467 948 q 493 985 474 965 q 523 1006 511 1006 q 542 1002 532 1006 q 555 995 552 999 l 866 225 q 889 165 876 200 q 909 115 902 130 q 936 79 918 94 q 974 59 954 64 q 1007 52 995 54 q 1028 50 1019 50 q 1035 19 1034 40 q 1031 -6 1036 -1 q 943 0 1018 -5 q 828 6 867 6 q 754 4 797 6 q 662 -2 711 1 q 599 -6 612 -5 q 593 25 593 -1 q 599 50 593 50 q 647 58 621 50 q 688 77 673 65 q 702 103 702 89 q 679 167 702 109 q 633 279 656 225 l 610 334 q 600 340 605 340 q 454 342 571 342 q 296 340 349 342 q 286 333 290 340 q 231 205 248 248 q 208 142 219 176 q 197 102 197 109 q 214 77 197 88 q 252 61 230 66 q 291 53 274 56 q 315 50 308 50 q 320 20 321 41 q 316 -6 320 -1 q 152 6 210 6 q 118 5 135 6 q 91 4 101 5 q 62 2 81 4 q 38 0 43 1 q 11 -3 33 -1 q -14 -6 -11 -6 m 319 425 q 322 419 319 419 q 448 415 368 415 q 570 418 523 415 q 572 420 571 418 q 574 423 573 422 l 574 425 l 448 723 l 319 425 m 439 1137 q 505 1211 439 1145 q 621 1314 572 1276 q 648 1320 633 1320 q 683 1315 665 1320 q 718 1296 701 1310 q 734 1262 734 1282 q 694 1215 734 1243 q 605 1163 654 1186 q 512 1123 555 1139 q 460 1106 469 1106 q 446 1117 453 1106 q 439 1137 439 1128 z "},"":{"ha":1025,"x_min":-21,"x_max":1036,"o":"m -14 -6 q -20 17 -18 -1 q -17 49 -21 36 q 40 65 0 49 q 90 97 79 81 q 143 203 115 140 l 467 948 q 493 985 474 965 q 523 1006 511 1006 q 542 1002 532 1006 q 555 995 552 999 l 866 225 q 889 165 876 200 q 909 115 902 130 q 936 79 918 94 q 974 59 954 64 q 1007 52 995 54 q 1028 50 1019 50 q 1035 19 1034 40 q 1031 -6 1036 -1 q 943 0 1018 -5 q 828 6 867 6 q 754 4 797 6 q 662 -2 711 1 q 599 -6 612 -5 q 593 25 593 -1 q 599 50 593 50 q 647 58 621 50 q 688 77 673 65 q 702 103 702 89 q 679 167 702 109 q 633 279 656 225 l 610 334 q 600 340 605 340 q 454 342 571 342 q 296 340 349 342 q 286 333 290 340 q 231 205 248 248 q 208 142 219 176 q 197 102 197 109 q 214 77 197 88 q 252 61 230 66 q 291 53 274 56 q 315 50 308 50 q 320 20 321 41 q 316 -6 320 -1 q 152 6 210 6 q 118 5 135 6 q 91 4 101 5 q 62 2 81 4 q 38 0 43 1 q 11 -3 33 -1 q -14 -6 -11 -6 m 319 425 q 322 419 319 419 q 448 415 368 415 q 570 418 523 415 q 572 420 571 418 q 574 423 573 422 l 574 425 l 448 723 l 319 425 m 331 1135 q 441 1234 348 1147 q 461 1253 451 1243 q 478 1271 471 1263 q 490 1284 485 1278 q 501 1297 496 1291 q 509 1306 507 1303 q 529 1322 522 1322 q 538 1317 532 1322 q 549 1306 543 1312 q 612 1240 585 1267 q 726 1135 697 1156 q 722 1119 726 1126 q 711 1109 718 1112 q 629 1146 696 1113 q 529 1200 562 1179 q 430 1146 495 1178 q 347 1109 364 1114 q 340 1114 343 1111 q 334 1123 336 1118 q 331 1135 331 1129 z "},"":{"ha":1025,"x_min":-21,"x_max":1036,"o":"m -14 -6 q -20 17 -18 -1 q -17 49 -21 36 q 40 65 0 49 q 90 97 79 81 q 143 203 115 140 l 467 948 q 493 985 474 965 q 523 1006 511 1006 q 542 1002 532 1006 q 555 995 552 999 l 866 225 q 889 165 876 200 q 909 115 902 130 q 936 79 918 94 q 974 59 954 64 q 1007 52 995 54 q 1028 50 1019 50 q 1035 19 1034 40 q 1031 -6 1036 -1 q 943 0 1018 -5 q 828 6 867 6 q 754 4 797 6 q 662 -2 711 1 q 599 -6 612 -5 q 593 25 593 -1 q 599 50 593 50 q 647 58 621 50 q 688 77 673 65 q 702 103 702 89 q 679 167 702 109 q 633 279 656 225 l 610 334 q 600 340 605 340 q 454 342 571 342 q 296 340 349 342 q 286 333 290 340 q 231 205 248 248 q 208 142 219 176 q 197 102 197 109 q 214 77 197 88 q 252 61 230 66 q 291 53 274 56 q 315 50 308 50 q 320 20 321 41 q 316 -6 320 -1 q 152 6 210 6 q 118 5 135 6 q 91 4 101 5 q 62 2 81 4 q 38 0 43 1 q 11 -3 33 -1 q -14 -6 -11 -6 m 248 1152 q 277 1224 248 1186 q 418 1297 335 1297 q 470 1290 444 1297 q 512 1276 496 1283 q 555 1253 528 1268 q 681 1204 643 1204 q 733 1216 709 1204 q 772 1240 758 1227 q 797 1267 785 1254 q 812 1282 809 1280 q 821 1275 818 1282 q 825 1261 825 1267 q 796 1188 825 1226 q 654 1114 736 1114 q 616 1117 635 1114 q 580 1127 598 1120 q 550 1141 562 1135 q 518 1158 538 1147 q 502 1167 513 1160 q 485 1176 490 1173 q 470 1184 480 1179 q 454 1192 460 1190 q 438 1198 448 1194 q 422 1203 429 1202 q 408 1206 416 1205 q 392 1208 399 1208 q 339 1196 363 1208 q 301 1171 314 1185 q 276 1144 288 1158 q 260 1128 264 1131 q 253 1133 256 1128 q 249 1142 250 1137 q 248 1152 248 1147 m 319 425 q 322 419 319 419 q 448 415 368 415 q 570 418 523 415 q 572 420 571 418 q 574 423 573 422 l 574 425 l 448 723 l 319 425 z "},"":{"ha":1025,"x_min":-21,"x_max":1036,"o":"m -14 -6 q -20 17 -18 -1 q -17 49 -21 36 q 40 65 0 49 q 90 97 79 81 q 143 203 115 140 l 467 948 q 493 985 474 965 q 523 1006 511 1006 q 542 1002 532 1006 q 555 995 552 999 l 866 225 q 889 165 876 200 q 909 115 902 130 q 936 79 918 94 q 974 59 954 64 q 1007 52 995 54 q 1028 50 1019 50 q 1035 19 1034 40 q 1031 -6 1036 -1 q 943 0 1018 -5 q 828 6 867 6 q 754 4 797 6 q 662 -2 711 1 q 599 -6 612 -5 q 593 25 593 -1 q 599 50 593 50 q 647 58 621 50 q 688 77 673 65 q 702 103 702 89 q 679 167 702 109 q 633 279 656 225 l 610 334 q 600 340 605 340 q 454 342 571 342 q 296 340 349 342 q 286 333 290 340 q 231 205 248 248 q 208 142 219 176 q 197 102 197 109 q 214 77 197 88 q 252 61 230 66 q 291 53 274 56 q 315 50 308 50 q 320 20 321 41 q 316 -6 320 -1 q 152 6 210 6 q 118 5 135 6 q 91 4 101 5 q 62 2 81 4 q 38 0 43 1 q 11 -3 33 -1 q -14 -6 -11 -6 m 252 1211 q 281 1283 252 1254 q 354 1312 311 1312 q 394 1304 375 1312 q 427 1283 414 1297 q 449 1251 441 1270 q 457 1211 457 1232 q 427 1137 457 1167 q 354 1107 397 1107 q 281 1137 311 1107 q 252 1211 252 1167 m 319 425 q 322 419 319 419 q 448 415 368 415 q 570 418 523 415 q 572 420 571 418 q 574 423 573 422 l 574 425 l 448 723 l 319 425 m 594 1211 q 624 1283 594 1254 q 697 1312 654 1312 q 749 1299 726 1312 q 787 1262 773 1286 q 800 1211 800 1239 q 770 1137 800 1167 q 697 1107 741 1107 q 624 1137 654 1107 q 594 1211 594 1167 z "},"":{"ha":1025,"x_min":-21,"x_max":1036,"o":"m -14 -6 q -20 17 -18 -1 q -17 49 -21 36 q 40 65 0 49 q 90 97 79 81 q 143 203 115 140 l 467 948 q 493 985 474 965 q 523 1006 511 1006 q 542 1002 532 1006 q 555 995 552 999 l 866 225 q 889 165 876 200 q 909 115 902 130 q 936 79 918 94 q 974 59 954 64 q 1007 52 995 54 q 1028 50 1019 50 q 1035 19 1034 40 q 1031 -6 1036 -1 q 943 0 1018 -5 q 828 6 867 6 q 754 4 797 6 q 662 -2 711 1 q 599 -6 612 -5 q 593 25 593 -1 q 599 50 593 50 q 647 58 621 50 q 688 77 673 65 q 702 103 702 89 q 679 167 702 109 q 633 279 656 225 l 610 334 q 600 340 605 340 q 454 342 571 342 q 296 340 349 342 q 286 333 290 340 q 231 205 248 248 q 208 142 219 176 q 197 102 197 109 q 214 77 197 88 q 252 61 230 66 q 291 53 274 56 q 315 50 308 50 q 320 20 321 41 q 316 -6 320 -1 q 152 6 210 6 q 118 5 135 6 q 91 4 101 5 q 62 2 81 4 q 38 0 43 1 q 11 -3 33 -1 q -14 -6 -11 -6 m 319 425 q 322 419 319 419 q 448 415 368 415 q 570 418 523 415 q 572 420 571 418 q 574 423 573 422 l 574 425 l 448 723 l 319 425 m 380 1153 q 424 1258 380 1215 q 530 1302 469 1302 q 605 1282 570 1302 q 659 1228 639 1262 q 679 1153 679 1194 q 635 1047 679 1091 q 530 1002 591 1002 q 424 1047 469 1002 q 380 1153 380 1091 m 473 1211 q 461 1199 473 1211 q 450 1153 450 1187 q 473 1095 450 1119 q 530 1071 496 1071 q 571 1082 553 1071 q 600 1112 589 1093 q 610 1153 610 1131 q 587 1211 610 1187 q 530 1235 564 1235 q 473 1211 496 1235 z "},"":{"ha":1369,"x_min":-35,"x_max":1335,"o":"m -31 -6 q -35 17 -35 -1 q -29 49 -35 35 q 33 65 -12 49 q 90 97 77 81 q 164 203 127 143 l 610 918 q 609 922 610 920 q 602 930 607 926 q 588 936 596 934 q 573 940 581 939 q 555 943 565 942 q 538 945 545 944 q 523 946 532 945 q 512 947 513 946 q 507 975 507 955 q 512 1002 507 996 q 729 998 581 998 q 821 1000 751 998 q 966 1003 891 1001 q 1117 1006 1040 1004 q 1223 1008 1194 1008 q 1233 950 1227 982 q 1243 894 1238 918 q 1256 837 1249 869 q 1267 784 1263 804 q 1252 779 1263 781 q 1232 777 1241 777 q 1208 789 1213 777 q 1181 848 1194 824 q 1149 896 1168 873 q 1103 930 1130 919 q 1044 942 1077 942 l 918 942 q 866 939 885 942 q 842 924 847 935 q 834 831 834 905 l 834 559 q 843 551 834 555 q 868 545 852 547 q 899 543 883 543 l 980 543 q 1035 546 1015 543 q 1071 563 1056 550 q 1095 595 1086 576 q 1114 648 1104 614 q 1132 661 1116 661 q 1160 653 1153 661 l 1160 361 q 1133 355 1154 355 q 1112 368 1114 355 q 1093 422 1103 401 q 1075 450 1082 444 q 1059 460 1068 456 q 943 471 1034 471 q 834 450 834 471 l 834 214 q 846 94 834 125 q 882 72 852 79 q 945 64 911 64 l 1045 64 q 1186 114 1137 64 q 1268 258 1231 158 q 1290 267 1271 267 q 1317 264 1301 267 q 1335 258 1332 262 q 1317 208 1332 249 q 1296 148 1303 167 q 1279 96 1290 129 q 1262 40 1268 64 q 1253 -3 1256 16 l 736 -3 q 636 -3 688 -3 q 552 -4 585 -4 q 512 -5 518 -5 q 507 23 507 3 q 512 52 507 43 q 609 77 602 58 q 619 129 617 98 q 621 220 621 159 l 621 342 q 501 342 621 342 q 353 340 406 342 q 346 338 349 340 q 340 333 342 335 q 257 201 281 243 q 222 139 239 170 q 205 100 206 108 q 215 76 203 87 q 247 60 228 65 q 281 53 266 55 q 302 50 296 50 q 308 20 308 42 q 304 -6 309 -2 q 135 6 201 6 q 98 5 115 6 q 61 3 81 5 q 33 1 41 1 q 0 -2 26 1 q -31 -6 -26 -5 m 392 425 q 393 419 391 419 q 509 415 439 415 q 621 418 581 415 l 621 790 l 392 425 z "},"":{"ha":1023,"x_min":62,"x_max":980,"o":"m 62 489 q 104 694 62 597 q 217 861 146 791 q 385 972 288 931 q 588 1013 481 1013 q 751 1005 665 1013 q 904 985 838 998 q 930 875 904 984 q 956 755 956 766 q 942 740 956 748 q 916 732 929 732 q 895 739 901 732 q 887 764 892 751 q 873 796 882 778 q 851 831 864 814 q 823 865 839 848 q 784 897 806 883 q 736 923 762 911 q 675 942 709 935 q 602 948 640 948 q 505 932 549 948 q 429 888 461 916 q 373 821 397 859 q 334 736 349 783 q 312 640 319 690 q 305 534 305 589 q 311 433 305 483 q 330 336 317 384 q 362 247 343 288 q 407 170 380 205 q 467 110 434 135 q 542 70 500 84 q 632 56 584 56 q 821 121 750 56 q 875 193 849 147 q 912 268 901 239 q 926 310 924 297 q 980 292 959 310 q 956 168 980 270 q 918 61 932 66 q 842 34 867 43 q 770 13 817 26 q 680 -5 724 0 q 585 -11 635 -11 q 383 27 479 -11 q 216 131 287 66 q 104 290 146 197 q 62 489 62 384 m 479 -195 q 483 -182 479 -182 q 487 -184 483 -182 q 495 -189 492 -186 q 505 -193 498 -191 q 517 -198 511 -196 q 531 -202 524 -200 q 546 -205 538 -204 q 561 -207 553 -207 q 604 -199 587 -207 q 627 -181 621 -191 q 633 -158 633 -170 q 630 -134 633 -144 q 617 -114 627 -123 q 591 -105 607 -105 q 549 -115 578 -105 q 536 -106 545 -115 q 527 -91 527 -98 q 572 -1 557 -43 l 625 -1 q 603 -39 610 -24 q 640 -37 631 -37 q 671 -43 656 -37 q 697 -60 686 -50 q 715 -85 708 -71 q 722 -115 722 -100 q 679 -213 722 -174 q 564 -252 635 -252 q 516 -244 538 -252 q 485 -227 495 -237 q 481 -212 483 -223 q 479 -195 479 -200 z "},"":{"ha":914,"x_min":52,"x_max":881,"o":"m 58 -5 q 53 23 53 3 q 58 52 52 43 q 155 77 148 58 q 165 129 163 98 q 167 220 167 159 l 167 779 q 166 841 167 821 q 163 884 166 861 q 155 922 161 907 q 151 928 154 925 q 142 933 147 931 q 131 937 136 935 q 118 940 125 939 q 104 942 110 941 q 90 944 98 943 q 77 945 81 945 q 66 946 73 945 q 58 947 59 946 q 53 975 52 955 q 58 1002 53 996 q 275 998 126 998 q 526 1003 312 998 q 768 1008 741 1008 q 781 937 773 975 q 799 851 788 899 q 812 784 809 804 q 804 780 810 782 q 790 777 798 778 q 778 777 783 777 q 753 789 758 777 q 727 848 740 824 q 695 896 714 873 q 649 930 675 919 q 589 942 623 942 l 463 942 q 437 941 448 942 q 415 939 427 941 q 397 933 404 937 q 387 924 390 930 q 380 831 380 905 l 380 559 q 400 547 380 552 q 445 543 420 543 l 526 543 q 581 546 561 543 q 617 563 602 550 q 641 595 632 576 q 659 648 650 614 q 677 661 662 661 q 707 653 699 661 l 707 361 q 679 355 701 355 q 658 368 661 355 q 639 422 650 401 q 621 450 628 444 q 605 460 614 456 q 489 471 579 471 q 380 450 380 471 l 380 214 q 392 94 380 125 q 413 77 396 84 q 449 67 429 70 q 491 64 469 64 l 591 64 q 732 114 682 64 q 814 258 777 158 q 836 267 817 267 q 848 267 841 267 q 862 264 856 266 q 874 261 869 263 q 881 258 880 260 q 863 208 878 249 q 842 148 848 167 q 825 96 836 129 q 808 40 814 64 q 799 -3 802 16 q 58 -5 117 -3 m 272 1262 q 281 1289 272 1278 q 304 1307 290 1301 q 332 1317 318 1314 q 357 1320 346 1320 q 385 1314 372 1320 q 500 1211 434 1276 q 567 1137 567 1145 q 560 1117 567 1128 q 545 1106 553 1106 q 493 1123 536 1106 q 401 1163 450 1139 q 312 1215 351 1186 q 272 1262 272 1243 z "},"":{"ha":914,"x_min":52,"x_max":881,"o":"m 58 -5 q 53 23 53 3 q 58 52 52 43 q 155 77 148 58 q 165 129 163 98 q 167 220 167 159 l 167 779 q 166 841 167 821 q 163 884 166 861 q 155 922 161 907 q 151 928 154 925 q 142 933 147 931 q 131 937 136 935 q 118 940 125 939 q 104 942 110 941 q 90 944 98 943 q 77 945 81 945 q 66 946 73 945 q 58 947 59 946 q 53 975 52 955 q 58 1002 53 996 q 275 998 126 998 q 526 1003 312 998 q 768 1008 741 1008 q 781 937 773 975 q 799 851 788 899 q 812 784 809 804 q 804 780 810 782 q 790 777 798 778 q 778 777 783 777 q 753 789 758 777 q 727 848 740 824 q 695 896 714 873 q 649 930 675 919 q 589 942 623 942 l 463 942 q 437 941 448 942 q 415 939 427 941 q 397 933 404 937 q 387 924 390 930 q 380 831 380 905 l 380 559 q 400 547 380 552 q 445 543 420 543 l 526 543 q 581 546 561 543 q 617 563 602 550 q 641 595 632 576 q 659 648 650 614 q 677 661 662 661 q 707 653 699 661 l 707 361 q 679 355 701 355 q 658 368 661 355 q 639 422 650 401 q 621 450 628 444 q 605 460 614 456 q 489 471 579 471 q 380 450 380 471 l 380 214 q 392 94 380 125 q 413 77 396 84 q 449 67 429 70 q 491 64 469 64 l 591 64 q 732 114 682 64 q 814 258 777 158 q 836 267 817 267 q 848 267 841 267 q 862 264 856 266 q 874 261 869 263 q 881 258 880 260 q 863 208 878 249 q 842 148 848 167 q 825 96 836 129 q 808 40 814 64 q 799 -3 802 16 q 58 -5 117 -3 m 348 1137 q 414 1211 348 1145 q 530 1314 481 1276 q 557 1320 543 1320 q 583 1317 569 1320 q 610 1307 596 1314 q 633 1289 624 1301 q 643 1262 643 1278 q 603 1215 643 1243 q 514 1163 564 1186 q 421 1123 464 1139 q 369 1106 378 1106 q 355 1117 361 1106 q 348 1137 348 1128 z "},"":{"ha":914,"x_min":52,"x_max":881,"o":"m 58 -5 q 53 23 53 3 q 58 52 52 43 q 155 77 148 58 q 165 129 163 98 q 167 220 167 159 l 167 779 q 166 841 167 821 q 163 884 166 861 q 155 922 161 907 q 151 928 154 925 q 142 933 147 931 q 131 937 136 935 q 118 940 125 939 q 104 942 110 941 q 90 944 98 943 q 77 945 81 945 q 66 946 73 945 q 58 947 59 946 q 53 975 52 955 q 58 1002 53 996 q 275 998 126 998 q 526 1003 312 998 q 768 1008 741 1008 q 781 937 773 975 q 799 851 788 899 q 812 784 809 804 q 804 780 810 782 q 790 777 798 778 q 778 777 783 777 q 753 789 758 777 q 727 848 740 824 q 695 896 714 873 q 649 930 675 919 q 589 942 623 942 l 463 942 q 437 941 448 942 q 415 939 427 941 q 397 933 404 937 q 387 924 390 930 q 380 831 380 905 l 380 559 q 400 547 380 552 q 445 543 420 543 l 526 543 q 581 546 561 543 q 617 563 602 550 q 641 595 632 576 q 659 648 650 614 q 677 661 662 661 q 707 653 699 661 l 707 361 q 679 355 701 355 q 658 368 661 355 q 639 422 650 401 q 621 450 628 444 q 605 460 614 456 q 489 471 579 471 q 380 450 380 471 l 380 214 q 392 94 380 125 q 413 77 396 84 q 449 67 429 70 q 491 64 469 64 l 591 64 q 732 114 682 64 q 814 258 777 158 q 836 267 817 267 q 848 267 841 267 q 862 264 856 266 q 874 261 869 263 q 881 258 880 260 q 863 208 878 249 q 842 148 848 167 q 825 96 836 129 q 808 40 814 64 q 799 -3 802 16 q 58 -5 117 -3 m 255 1135 q 365 1234 272 1147 q 390 1258 378 1246 q 408 1278 401 1270 q 423 1294 415 1285 q 433 1306 431 1303 q 453 1322 446 1322 q 462 1317 456 1322 q 473 1306 467 1312 q 536 1240 509 1267 q 650 1135 621 1156 q 646 1119 650 1126 q 635 1109 642 1112 q 553 1146 620 1113 q 453 1200 486 1179 q 354 1146 419 1178 q 271 1109 288 1114 q 264 1114 267 1111 q 258 1123 260 1118 q 255 1135 255 1129 z "},"":{"ha":914,"x_min":52,"x_max":881,"o":"m 58 -5 q 53 23 53 3 q 58 52 52 43 q 155 77 148 58 q 165 129 163 98 q 167 220 167 159 l 167 779 q 166 841 167 821 q 163 884 166 861 q 155 922 161 907 q 151 928 154 925 q 142 933 147 931 q 131 937 136 935 q 118 940 125 939 q 104 942 110 941 q 90 944 98 943 q 77 945 81 945 q 66 946 73 945 q 58 947 59 946 q 53 975 52 955 q 58 1002 53 996 q 275 998 126 998 q 526 1003 312 998 q 768 1008 741 1008 q 781 937 773 975 q 799 851 788 899 q 812 784 809 804 q 804 780 810 782 q 790 777 798 778 q 778 777 783 777 q 753 789 758 777 q 727 848 740 824 q 695 896 714 873 q 649 930 675 919 q 589 942 623 942 l 463 942 q 437 941 448 942 q 415 939 427 941 q 397 933 404 937 q 387 924 390 930 q 380 831 380 905 l 380 559 q 400 547 380 552 q 445 543 420 543 l 526 543 q 581 546 561 543 q 617 563 602 550 q 641 595 632 576 q 659 648 650 614 q 677 661 662 661 q 707 653 699 661 l 707 361 q 679 355 701 355 q 658 368 661 355 q 639 422 650 401 q 621 450 628 444 q 605 460 614 456 q 489 471 579 471 q 380 450 380 471 l 380 214 q 392 94 380 125 q 413 77 396 84 q 449 67 429 70 q 491 64 469 64 l 591 64 q 732 114 682 64 q 814 258 777 158 q 836 267 817 267 q 848 267 841 267 q 862 264 856 266 q 874 261 869 263 q 881 258 880 260 q 863 208 878 249 q 842 148 848 167 q 825 96 836 129 q 808 40 814 64 q 799 -3 802 16 q 58 -5 117 -3 m 176 1211 q 205 1283 176 1254 q 278 1312 235 1312 q 318 1304 299 1312 q 351 1283 338 1297 q 373 1251 365 1270 q 381 1211 381 1232 q 351 1137 381 1167 q 278 1107 321 1107 q 205 1137 235 1107 q 176 1211 176 1167 m 518 1211 q 532 1262 518 1239 q 569 1299 545 1286 q 621 1312 593 1312 q 673 1299 650 1312 q 711 1262 697 1286 q 724 1211 724 1239 q 694 1137 724 1167 q 621 1107 665 1107 q 548 1137 578 1107 q 518 1211 518 1167 z "},"":{"ha":547,"x_min":52,"x_max":494,"o":"m 58 -6 q 53 22 53 1 q 58 50 52 42 q 155 77 147 57 q 165 129 163 98 q 167 220 167 159 l 167 779 q 166 841 167 821 q 163 884 166 861 q 155 922 161 907 q 58 949 147 943 q 53 978 52 958 q 58 1006 53 998 q 275 995 161 995 q 489 1006 385 995 q 494 978 494 998 q 489 949 494 958 q 392 922 400 943 q 382 871 384 901 q 380 779 380 840 l 380 220 q 380 173 380 189 q 381 137 380 158 q 385 102 382 116 q 392 77 387 88 q 489 50 400 57 q 494 22 494 42 q 489 -6 494 1 q 272 5 385 5 q 58 -6 161 5 m 87 1262 q 96 1289 87 1278 q 119 1307 105 1301 q 146 1317 133 1314 q 172 1320 160 1320 q 199 1314 187 1320 q 276 1248 232 1289 q 351 1174 320 1206 q 381 1137 381 1141 q 374 1117 381 1128 q 360 1106 368 1106 q 308 1123 351 1106 q 215 1163 265 1139 q 126 1215 165 1186 q 87 1262 87 1243 z "},"":{"ha":547,"x_min":52,"x_max":494,"o":"m 58 -6 q 53 22 53 1 q 58 50 52 42 q 155 77 147 57 q 165 129 163 98 q 167 220 167 159 l 167 779 q 166 841 167 821 q 163 884 166 861 q 155 922 161 907 q 58 949 147 943 q 53 978 52 958 q 58 1006 53 998 q 275 995 161 995 q 489 1006 385 995 q 494 978 494 998 q 489 949 494 958 q 392 922 400 943 q 382 871 384 901 q 380 779 380 840 l 380 220 q 380 173 380 189 q 381 137 380 158 q 385 102 382 116 q 392 77 387 88 q 489 50 400 57 q 494 22 494 42 q 489 -6 494 1 q 272 5 385 5 q 58 -6 161 5 m 165 1137 q 232 1211 165 1145 q 348 1314 298 1276 q 375 1320 360 1320 q 410 1315 391 1320 q 444 1296 428 1310 q 460 1262 460 1282 q 421 1215 460 1243 q 331 1163 381 1186 q 239 1123 281 1139 q 187 1106 196 1106 q 173 1117 180 1106 q 165 1137 165 1128 z "},"":{"ha":547,"x_min":52,"x_max":494,"o":"m 58 -6 q 53 22 53 1 q 58 50 52 42 q 155 77 147 57 q 165 129 163 98 q 167 220 167 159 l 167 779 q 166 841 167 821 q 163 884 166 861 q 155 922 161 907 q 58 949 147 943 q 53 978 52 958 q 58 1006 53 998 q 275 995 161 995 q 489 1006 385 995 q 494 978 494 998 q 489 949 494 958 q 392 922 400 943 q 382 871 384 901 q 380 779 380 840 l 380 220 q 380 173 380 189 q 381 137 380 158 q 385 102 382 116 q 392 77 387 88 q 489 50 400 57 q 494 22 494 42 q 489 -6 494 1 q 272 5 385 5 q 58 -6 161 5 m 79 1135 q 189 1234 96 1147 q 209 1253 199 1243 q 225 1271 218 1263 q 238 1284 233 1278 q 249 1297 243 1291 q 257 1306 254 1303 q 277 1322 269 1322 q 280 1321 278 1322 q 284 1318 281 1320 q 288 1315 286 1316 q 292 1311 289 1314 q 296 1306 295 1308 q 360 1240 333 1267 q 474 1135 445 1156 q 470 1119 474 1126 q 458 1109 466 1112 q 376 1146 444 1113 q 277 1200 309 1179 q 178 1146 243 1178 q 94 1109 113 1114 q 84 1119 89 1112 q 79 1135 79 1126 z "},"":{"ha":547,"x_min":1,"x_max":550,"o":"m 1 1211 q 31 1283 1 1254 q 103 1312 60 1312 q 155 1299 132 1312 q 193 1262 179 1286 q 207 1211 207 1239 q 177 1137 207 1167 q 103 1107 146 1107 q 31 1137 60 1107 q 1 1211 1 1167 m 59 -6 q 54 22 54 1 q 59 50 54 42 q 157 77 149 57 q 167 129 165 98 q 169 220 169 159 l 169 779 q 168 841 169 821 q 165 884 168 861 q 157 922 162 907 q 59 949 149 943 q 54 978 54 958 q 59 1006 54 998 q 277 995 163 995 q 491 1006 387 995 q 496 978 496 998 q 491 949 496 958 q 393 922 401 943 q 383 871 385 901 q 381 779 381 840 l 381 220 q 381 173 381 189 q 383 137 382 158 q 387 102 384 116 q 393 77 389 88 q 491 50 401 57 q 496 22 496 42 q 491 -6 496 1 q 273 5 387 5 q 59 -6 163 5 m 343 1211 q 373 1283 343 1254 q 447 1312 403 1312 q 487 1304 468 1312 q 520 1283 506 1297 q 542 1251 534 1270 q 550 1211 550 1232 q 520 1137 550 1167 q 447 1107 490 1107 q 395 1121 418 1107 q 357 1158 371 1135 q 343 1211 343 1182 z "},"":{"ha":1162,"x_min":44,"x_max":1097,"o":"m 50 468 q 46 480 47 468 q 46 507 44 492 q 52 529 47 522 l 582 529 q 587 504 587 529 q 582 468 587 478 l 50 468 m 64 -5 q 59 23 59 3 q 64 52 58 43 q 161 77 154 58 q 171 129 170 98 q 173 220 173 159 l 173 779 q 173 841 173 821 q 170 884 172 861 q 161 922 167 907 q 157 928 160 925 q 148 933 153 931 q 137 937 142 935 q 124 940 132 939 q 110 942 116 941 q 96 944 104 943 q 83 945 87 945 q 72 946 79 945 q 64 947 65 946 q 59 975 58 955 q 64 1002 59 996 q 281 998 132 998 q 400 1000 317 998 q 513 1002 484 1002 q 753 969 645 1002 q 937 873 861 936 q 1055 718 1013 811 q 1097 511 1097 625 q 1066 321 1097 406 q 982 175 1036 235 q 853 75 928 115 q 691 15 779 34 q 503 -5 603 -5 l 64 -5 m 386 214 q 398 94 386 125 q 434 69 405 79 q 494 59 463 59 q 767 165 680 59 q 855 494 855 271 q 827 689 855 603 q 747 830 798 775 q 625 913 695 885 q 469 942 555 942 q 443 941 454 942 q 421 939 433 941 q 403 933 410 937 q 393 924 396 930 q 386 831 386 905 l 386 214 z "},"":{"ha":1154,"x_min":44,"x_max":1126,"o":"m 49 -6 q 45 14 45 0 q 45 39 44 28 q 49 50 47 50 q 117 61 73 50 q 170 90 162 72 q 179 126 175 100 q 186 183 184 152 q 189 243 189 214 l 189 781 q 181 858 189 818 q 161 918 174 898 q 116 940 152 930 q 61 949 80 949 q 54 975 55 949 q 58 1006 52 1000 q 94 1003 71 1005 q 135 999 117 1001 q 179 996 153 998 q 229 995 205 995 q 395 1006 310 995 q 473 886 415 964 q 587 738 530 808 q 739 552 644 668 q 882 377 835 437 q 886 439 886 387 l 886 723 q 881 838 886 774 q 869 918 876 902 q 835 938 863 930 q 784 948 807 946 q 746 951 760 951 q 743 962 744 951 q 742 987 741 973 q 746 1007 743 1001 q 833 1000 773 1006 q 931 995 892 995 q 1038 1001 970 995 q 1122 1007 1105 1006 q 1126 979 1126 998 q 1120 949 1126 960 q 1083 948 1105 949 q 1030 938 1061 946 q 994 914 999 929 q 983 836 988 899 q 979 728 979 772 l 979 211 q 985 -1 979 157 q 947 -7 979 -7 q 899 27 926 -7 l 281 789 l 281 239 q 286 153 281 199 q 298 91 292 108 q 319 73 301 81 q 360 60 338 64 q 399 54 382 56 q 422 52 416 52 q 429 22 429 41 q 425 -6 429 3 q 340 0 408 -5 q 234 6 273 6 q 135 1 195 6 q 49 -6 76 -5 m 304 1152 q 333 1224 304 1186 q 474 1297 391 1297 q 527 1290 500 1297 q 569 1276 553 1283 q 610 1253 585 1268 q 736 1204 699 1204 q 790 1216 765 1204 q 828 1240 814 1227 q 853 1267 842 1254 q 869 1282 865 1280 q 878 1275 874 1282 q 881 1261 881 1267 q 852 1188 881 1226 q 711 1114 792 1114 q 659 1121 684 1114 q 617 1135 633 1128 q 574 1158 601 1143 q 556 1168 570 1160 q 537 1178 542 1176 q 519 1187 532 1181 q 500 1196 507 1194 q 484 1202 494 1198 q 465 1206 474 1205 q 448 1208 456 1208 q 395 1196 420 1208 q 357 1171 370 1185 q 331 1144 343 1158 q 316 1128 319 1131 q 310 1133 313 1128 q 305 1142 307 1137 q 304 1152 304 1147 z "},"":{"ha":1154,"x_min":61,"x_max":1094,"o":"m 81 362 q 71 395 81 362 q 61 498 61 429 q 81 635 61 568 q 135 758 100 702 q 219 862 170 814 q 325 943 268 910 q 446 995 381 976 q 577 1013 511 1013 q 708 995 643 1013 q 830 943 773 976 q 936 862 887 910 q 1019 758 985 814 q 1074 635 1054 702 q 1094 498 1094 568 q 1074 362 1094 429 q 1019 239 1054 295 q 936 135 985 182 q 830 55 887 87 q 708 3 773 22 q 577 -15 643 -15 q 446 3 511 -15 q 325 55 381 22 q 219 135 268 87 q 135 239 170 182 q 81 362 100 295 m 304 551 q 311 433 304 491 q 333 318 318 376 q 372 213 347 261 q 429 129 397 165 q 508 71 462 92 q 609 50 554 50 q 690 66 653 50 q 752 112 726 83 q 798 178 778 140 q 828 260 817 215 q 845 351 840 305 q 850 444 850 396 q 843 562 850 503 q 821 677 836 620 q 780 783 806 734 q 722 869 755 831 q 642 927 689 906 q 541 948 595 948 q 461 931 497 948 q 400 886 425 915 q 355 819 374 857 q 325 736 336 781 q 309 645 314 690 q 304 551 304 600 m 396 1215 q 377 1229 396 1215 q 357 1262 357 1243 q 373 1296 357 1282 q 408 1315 389 1310 q 442 1320 426 1320 q 469 1314 457 1320 q 585 1211 519 1276 q 652 1137 652 1145 q 645 1117 652 1128 q 631 1106 637 1106 q 579 1123 622 1106 q 486 1163 536 1139 q 396 1215 436 1186 z "},"":{"ha":1154,"x_min":61,"x_max":1094,"o":"m 81 362 q 71 395 81 362 q 61 498 61 429 q 81 635 61 568 q 135 758 100 702 q 219 862 170 814 q 325 943 268 910 q 446 995 381 976 q 577 1013 511 1013 q 708 995 643 1013 q 830 943 773 976 q 936 862 887 910 q 1019 758 985 814 q 1074 635 1054 702 q 1094 498 1094 568 q 1074 362 1094 429 q 1019 239 1054 295 q 936 135 985 182 q 830 55 887 87 q 708 3 773 22 q 577 -15 643 -15 q 446 3 511 -15 q 325 55 381 22 q 219 135 268 87 q 135 239 170 182 q 81 362 100 295 m 304 551 q 311 433 304 491 q 333 318 318 376 q 372 213 347 261 q 429 129 397 165 q 508 71 462 92 q 609 50 554 50 q 690 66 653 50 q 752 112 726 83 q 798 178 778 140 q 828 260 817 215 q 845 351 840 305 q 850 444 850 396 q 843 562 850 503 q 821 677 836 620 q 780 783 806 734 q 722 869 755 831 q 642 927 689 906 q 541 948 595 948 q 461 931 497 948 q 400 886 425 915 q 355 819 374 857 q 325 736 336 781 q 309 645 314 690 q 304 551 304 600 m 485 1137 q 551 1211 485 1145 q 667 1314 617 1276 q 694 1320 679 1320 q 728 1315 710 1320 q 763 1296 747 1310 q 779 1262 779 1282 q 740 1215 779 1243 q 650 1163 700 1186 q 558 1123 601 1139 q 506 1106 515 1106 q 492 1117 498 1106 q 485 1137 485 1128 z "},"":{"ha":1154,"x_min":61,"x_max":1094,"o":"m 81 362 q 71 395 81 362 q 61 498 61 429 q 81 635 61 568 q 135 758 100 702 q 219 862 170 814 q 325 943 268 910 q 446 995 381 976 q 577 1013 511 1013 q 708 995 643 1013 q 830 943 773 976 q 936 862 887 910 q 1019 758 985 814 q 1074 635 1054 702 q 1094 498 1094 568 q 1074 362 1094 429 q 1019 239 1054 295 q 936 135 985 182 q 830 55 887 87 q 708 3 773 22 q 577 -15 643 -15 q 446 3 511 -15 q 325 55 381 22 q 219 135 268 87 q 135 239 170 182 q 81 362 100 295 m 304 551 q 311 433 304 491 q 333 318 318 376 q 372 213 347 261 q 429 129 397 165 q 508 71 462 92 q 609 50 554 50 q 690 66 653 50 q 752 112 726 83 q 798 178 778 140 q 828 260 817 215 q 845 351 840 305 q 850 444 850 396 q 843 562 850 503 q 821 677 836 620 q 780 783 806 734 q 722 869 755 831 q 642 927 689 906 q 541 948 595 948 q 461 931 497 948 q 400 886 425 915 q 355 819 374 857 q 325 736 336 781 q 309 645 314 690 q 304 551 304 600 m 382 1135 q 492 1234 399 1147 q 513 1253 503 1243 q 529 1271 522 1263 q 542 1284 536 1278 q 553 1297 547 1291 q 561 1306 558 1303 q 581 1322 573 1322 q 584 1321 582 1322 q 588 1318 585 1320 q 591 1315 590 1316 q 596 1311 593 1314 q 600 1306 599 1308 q 664 1240 637 1267 q 778 1135 749 1156 q 774 1119 778 1126 q 762 1109 770 1112 q 719 1127 753 1112 q 643 1165 684 1143 q 581 1200 602 1186 q 481 1146 547 1178 q 398 1109 416 1114 q 388 1119 393 1112 q 382 1135 382 1126 z "},"":{"ha":1154,"x_min":61,"x_max":1094,"o":"m 81 362 q 71 395 81 362 q 61 498 61 429 q 81 635 61 568 q 135 758 100 702 q 219 862 170 814 q 325 943 268 910 q 446 995 381 976 q 577 1013 511 1013 q 708 995 643 1013 q 830 943 773 976 q 936 862 887 910 q 1019 758 985 814 q 1074 635 1054 702 q 1094 498 1094 568 q 1074 362 1094 429 q 1019 239 1054 295 q 936 135 985 182 q 830 55 887 87 q 708 3 773 22 q 577 -15 643 -15 q 446 3 511 -15 q 325 55 381 22 q 219 135 268 87 q 135 239 170 182 q 81 362 100 295 m 299 1152 q 328 1224 299 1186 q 469 1297 387 1297 q 522 1290 496 1297 q 564 1276 548 1283 q 606 1253 580 1268 q 732 1204 694 1204 q 776 1212 755 1204 q 810 1230 796 1219 q 834 1251 824 1240 q 853 1271 845 1262 q 865 1282 861 1280 q 873 1275 869 1282 q 876 1261 876 1267 q 848 1188 876 1226 q 707 1114 787 1114 q 654 1121 680 1114 q 612 1135 628 1128 q 570 1158 596 1143 q 551 1168 566 1160 q 532 1178 537 1176 q 515 1187 527 1181 q 496 1196 503 1194 q 479 1202 490 1198 q 461 1206 469 1205 q 444 1208 452 1208 q 390 1196 415 1208 q 352 1171 366 1185 q 327 1144 339 1158 q 311 1128 315 1131 q 305 1133 308 1128 q 300 1142 302 1137 q 299 1152 299 1147 m 304 551 q 311 433 304 491 q 333 318 318 376 q 372 213 347 261 q 429 129 397 165 q 508 71 462 92 q 609 50 554 50 q 690 66 653 50 q 752 112 726 83 q 798 178 778 140 q 828 260 817 215 q 845 351 840 305 q 850 444 850 396 q 843 562 850 503 q 821 677 836 620 q 780 783 806 734 q 722 869 755 831 q 642 927 689 906 q 541 948 595 948 q 461 931 497 948 q 400 886 425 915 q 355 819 374 857 q 325 736 336 781 q 309 645 314 690 q 304 551 304 600 z "},"":{"ha":1154,"x_min":61,"x_max":1094,"o":"m 81 362 q 71 395 81 362 q 61 498 61 429 q 81 635 61 568 q 135 758 100 702 q 219 862 170 814 q 325 943 268 910 q 446 995 381 976 q 577 1013 511 1013 q 708 995 643 1013 q 830 943 773 976 q 936 862 887 910 q 1019 758 985 814 q 1074 635 1054 702 q 1094 498 1094 568 q 1074 362 1094 429 q 1019 239 1054 295 q 936 135 985 182 q 830 55 887 87 q 708 3 773 22 q 577 -15 643 -15 q 446 3 511 -15 q 325 55 381 22 q 219 135 268 87 q 135 239 170 182 q 81 362 100 295 m 304 551 q 311 433 304 491 q 333 318 318 376 q 372 213 347 261 q 429 129 397 165 q 508 71 462 92 q 609 50 554 50 q 690 66 653 50 q 752 112 726 83 q 798 178 778 140 q 828 260 817 215 q 845 351 840 305 q 850 444 850 396 q 843 562 850 503 q 821 677 836 620 q 780 783 806 734 q 722 869 755 831 q 642 927 689 906 q 541 948 595 948 q 461 931 497 948 q 400 886 425 915 q 355 819 374 857 q 325 736 336 781 q 309 645 314 690 q 304 551 304 600 m 304 1211 q 333 1283 304 1254 q 406 1312 362 1312 q 446 1304 427 1312 q 479 1283 465 1297 q 501 1251 493 1270 q 509 1211 509 1232 q 479 1137 509 1167 q 406 1107 449 1107 q 333 1137 362 1107 q 304 1211 304 1167 m 646 1211 q 675 1283 646 1254 q 749 1312 705 1312 q 822 1283 792 1312 q 852 1211 852 1254 q 822 1137 852 1167 q 749 1107 792 1107 q 675 1137 705 1107 q 646 1211 646 1167 z "},"":{"ha":706,"x_min":82,"x_max":625,"o":"m 82 163 q 298 377 292 371 l 82 593 q 98 631 82 608 q 125 654 114 654 q 135 652 132 654 q 359 436 355 439 l 576 652 q 585 654 578 654 q 610 627 595 654 q 625 588 625 600 q 415 380 419 385 l 625 163 q 611 121 625 144 q 585 97 597 97 q 574 100 577 97 l 354 321 l 131 97 q 121 94 127 94 q 97 122 112 94 q 82 163 82 150 z "},"":{"ha":1153,"x_min":61,"x_max":1094,"o":"m 81 362 q 71 395 81 362 q 61 498 61 429 q 81 635 61 568 q 135 758 100 702 q 219 862 170 814 q 325 943 268 910 q 446 995 381 976 q 577 1013 511 1013 q 708 995 643 1013 q 830 943 773 976 q 936 862 887 910 q 1019 758 985 814 q 1074 635 1054 702 q 1094 498 1094 568 q 1074 362 1094 429 q 1019 239 1054 295 q 936 135 985 182 q 830 55 887 87 q 708 3 773 22 q 577 -15 643 -15 q 446 3 511 -15 q 325 55 381 22 q 219 135 268 87 q 135 239 170 182 q 81 362 100 295 m 249 6 l 822 1027 q 827 1025 823 1027 q 834 1022 831 1023 q 843 1019 838 1021 q 852 1015 848 1017 q 861 1011 856 1013 q 869 1007 865 1009 q 875 1003 872 1005 q 879 999 878 1001 q 880 995 880 997 l 307 -27 q 249 6 246 -5 m 304 551 q 311 433 304 491 q 333 318 318 376 q 372 213 347 261 q 429 129 397 165 q 508 71 462 92 q 609 50 554 50 q 690 66 653 50 q 752 112 726 83 q 798 178 778 140 q 828 260 817 215 q 845 351 840 305 q 850 444 850 396 q 843 562 850 503 q 821 677 836 620 q 780 783 806 734 q 722 869 755 831 q 642 927 689 906 q 541 948 595 948 q 461 931 497 948 q 400 886 425 915 q 355 819 374 857 q 325 736 336 781 q 309 645 314 690 q 304 551 304 600 z "},"":{"ha":1109,"x_min":28,"x_max":1108,"o":"m 33 949 q 28 978 28 958 q 33 1006 28 998 q 251 995 137 995 q 465 1006 361 995 q 470 978 470 998 q 465 949 470 958 q 368 922 376 943 q 357 871 359 901 q 355 779 355 840 l 355 501 q 362 354 355 411 q 393 241 370 297 q 625 96 456 96 q 697 109 662 96 q 764 151 732 122 q 819 223 795 180 q 857 329 842 265 q 871 469 871 392 l 871 728 q 864 835 871 779 q 849 913 858 891 q 735 949 837 941 q 730 978 730 958 q 735 1006 730 998 q 925 995 860 995 q 1024 1000 964 995 q 1103 1006 1085 1005 q 1108 978 1107 998 q 1103 949 1108 958 q 1094 949 1102 949 q 1081 948 1086 948 q 1066 946 1076 947 q 1050 944 1057 945 q 1034 941 1043 943 q 1017 936 1024 939 q 1004 930 1010 934 q 992 923 997 927 q 986 913 988 918 q 971 836 977 891 q 964 729 964 780 l 964 435 q 942 269 964 344 q 881 143 920 195 q 789 55 842 91 q 676 3 736 20 q 549 -14 615 -14 q 365 20 449 -14 q 228 120 281 54 q 179 206 198 157 q 152 316 161 254 q 143 457 143 378 l 143 779 q 142 841 143 821 q 139 884 142 861 q 131 922 136 907 q 33 949 123 943 m 399 1262 q 409 1289 399 1278 q 432 1307 418 1301 q 460 1317 446 1314 q 485 1320 473 1320 q 512 1314 500 1320 q 628 1211 562 1276 q 694 1137 694 1145 q 687 1117 694 1128 q 673 1106 680 1106 q 621 1123 664 1106 q 528 1163 578 1139 q 439 1215 479 1186 q 399 1262 399 1243 z "},"":{"ha":1109,"x_min":28,"x_max":1108,"o":"m 33 949 q 28 978 28 958 q 33 1006 28 998 q 251 995 137 995 q 465 1006 361 995 q 470 978 470 998 q 465 949 470 958 q 368 922 376 943 q 357 871 359 901 q 355 779 355 840 l 355 501 q 362 354 355 411 q 393 241 370 297 q 625 96 456 96 q 697 109 662 96 q 764 151 732 122 q 819 223 795 180 q 857 329 842 265 q 871 469 871 392 l 871 728 q 864 835 871 779 q 849 913 858 891 q 735 949 837 941 q 730 978 730 958 q 735 1006 730 998 q 925 995 860 995 q 1024 1000 964 995 q 1103 1006 1085 1005 q 1108 978 1107 998 q 1103 949 1108 958 q 1094 949 1102 949 q 1081 948 1086 948 q 1066 946 1076 947 q 1050 944 1057 945 q 1034 941 1043 943 q 1017 936 1024 939 q 1004 930 1010 934 q 992 923 997 927 q 986 913 988 918 q 971 836 977 891 q 964 729 964 780 l 964 435 q 942 269 964 344 q 881 143 920 195 q 789 55 842 91 q 676 3 736 20 q 549 -14 615 -14 q 365 20 449 -14 q 228 120 281 54 q 179 206 198 157 q 152 316 161 254 q 143 457 143 378 l 143 779 q 142 841 143 821 q 139 884 142 861 q 131 922 136 907 q 33 949 123 943 m 473 1137 q 539 1211 473 1145 q 654 1314 605 1276 q 682 1320 667 1320 q 716 1315 698 1320 q 751 1296 735 1310 q 767 1262 767 1282 q 727 1215 767 1243 q 638 1163 688 1186 q 546 1123 589 1139 q 494 1106 503 1106 q 479 1117 486 1106 q 473 1137 473 1128 z "},"":{"ha":1109,"x_min":28,"x_max":1108,"o":"m 33 949 q 28 978 28 958 q 33 1006 28 998 q 251 995 137 995 q 465 1006 361 995 q 470 978 470 998 q 465 949 470 958 q 368 922 376 943 q 357 871 359 901 q 355 779 355 840 l 355 501 q 362 354 355 411 q 393 241 370 297 q 625 96 456 96 q 697 109 662 96 q 764 151 732 122 q 819 223 795 180 q 857 329 842 265 q 871 469 871 392 l 871 728 q 864 835 871 779 q 849 913 858 891 q 735 949 837 941 q 730 978 730 958 q 735 1006 730 998 q 925 995 860 995 q 1024 1000 964 995 q 1103 1006 1085 1005 q 1108 978 1107 998 q 1103 949 1108 958 q 1094 949 1102 949 q 1081 948 1086 948 q 1066 946 1076 947 q 1050 944 1057 945 q 1034 941 1043 943 q 1017 936 1024 939 q 1004 930 1010 934 q 992 923 997 927 q 986 913 988 918 q 971 836 977 891 q 964 729 964 780 l 964 435 q 942 269 964 344 q 881 143 920 195 q 789 55 842 91 q 676 3 736 20 q 549 -14 615 -14 q 365 20 449 -14 q 228 120 281 54 q 179 206 198 157 q 152 316 161 254 q 143 457 143 378 l 143 779 q 142 841 143 821 q 139 884 142 861 q 131 922 136 907 q 33 949 123 943 m 401 1135 q 511 1234 418 1147 q 535 1258 524 1246 q 554 1278 547 1270 q 569 1294 561 1285 q 578 1306 576 1303 q 599 1322 591 1322 q 602 1321 600 1322 q 606 1318 604 1320 q 610 1315 608 1316 q 614 1311 611 1314 q 618 1306 617 1308 q 682 1240 654 1267 q 796 1135 767 1156 q 792 1119 796 1126 q 781 1109 787 1112 q 699 1146 766 1113 q 599 1200 631 1179 q 499 1146 565 1178 q 416 1109 434 1114 q 406 1119 411 1112 q 401 1135 401 1126 z "},"":{"ha":1109,"x_min":28,"x_max":1108,"o":"m 33 949 q 28 978 28 958 q 33 1006 28 998 q 251 995 137 995 q 465 1006 361 995 q 470 978 470 998 q 465 949 470 958 q 368 922 376 943 q 357 871 359 901 q 355 779 355 840 l 355 501 q 362 354 355 411 q 393 241 370 297 q 625 96 456 96 q 697 109 662 96 q 764 151 732 122 q 819 223 795 180 q 857 329 842 265 q 871 469 871 392 l 871 728 q 864 835 871 779 q 849 913 858 891 q 735 949 837 941 q 730 978 730 958 q 735 1006 730 998 q 925 995 860 995 q 1024 1000 964 995 q 1103 1006 1085 1005 q 1108 978 1107 998 q 1103 949 1108 958 q 1094 949 1102 949 q 1081 948 1086 948 q 1066 946 1076 947 q 1050 944 1057 945 q 1034 941 1043 943 q 1017 936 1024 939 q 1004 930 1010 934 q 992 923 997 927 q 986 913 988 918 q 971 836 977 891 q 964 729 964 780 l 964 435 q 942 269 964 344 q 881 143 920 195 q 789 55 842 91 q 676 3 736 20 q 549 -14 615 -14 q 365 20 449 -14 q 228 120 281 54 q 179 206 198 157 q 152 316 161 254 q 143 457 143 378 l 143 779 q 142 841 143 821 q 139 884 142 861 q 131 922 136 907 q 33 949 123 943 m 323 1211 q 353 1283 323 1254 q 425 1312 382 1312 q 499 1283 469 1312 q 529 1211 529 1254 q 499 1137 529 1167 q 425 1107 469 1107 q 353 1137 382 1107 q 323 1211 323 1167 m 665 1211 q 695 1283 665 1254 q 769 1312 725 1312 q 842 1283 812 1312 q 872 1211 872 1254 q 842 1137 872 1167 q 769 1107 812 1107 q 695 1137 726 1107 q 665 1211 665 1167 z "},"":{"ha":947,"x_min":-1,"x_max":970,"o":"m 5 949 q 0 978 -1 958 q 5 1006 0 998 q 222 995 109 995 q 436 1006 332 995 q 441 978 441 998 q 436 949 441 958 q 428 949 435 949 q 416 948 420 948 q 404 946 412 947 q 389 944 395 945 q 376 941 384 943 q 363 936 368 939 q 353 929 358 932 q 346 920 348 925 q 343 909 343 915 q 354 884 343 903 l 536 549 q 601 648 541 543 q 728 878 661 753 q 735 913 735 893 q 623 949 735 941 q 617 978 617 958 q 623 1006 618 998 q 668 1002 637 1004 q 711 998 699 999 q 746 996 723 997 q 795 995 770 995 q 889 1000 833 995 q 964 1006 945 1004 q 969 978 969 998 q 964 949 970 958 q 955 949 964 949 q 942 948 946 948 q 927 946 937 947 q 909 943 916 945 q 893 938 903 941 q 876 932 883 935 q 863 923 869 928 q 852 911 857 918 q 713 690 822 867 q 576 453 605 513 q 567 424 567 431 l 567 220 q 567 159 567 179 q 570 115 568 139 q 578 77 573 92 q 676 50 587 57 q 681 22 682 42 q 676 -6 681 1 q 458 5 572 5 q 245 -6 349 5 q 240 22 240 1 q 245 50 239 42 q 342 77 334 57 q 352 129 350 98 q 354 220 354 159 l 354 431 q 347 462 354 447 q 282 588 330 499 q 195 746 234 676 l 155 816 q 108 899 130 863 q 75 929 98 917 q 35 944 52 941 q 5 949 18 948 m 441 1137 q 459 1161 441 1140 q 505 1209 478 1182 q 565 1265 532 1236 q 623 1314 598 1295 q 650 1320 635 1320 q 684 1315 666 1320 q 719 1296 703 1310 q 735 1262 735 1282 q 695 1215 735 1243 q 606 1163 656 1186 q 514 1123 557 1139 q 462 1106 471 1106 q 448 1117 454 1106 q 441 1137 441 1128 z "},"":{"ha":885,"x_min":52,"x_max":852,"o":"m 58 -6 q 53 22 53 1 q 58 50 52 42 q 155 77 147 57 q 165 129 163 98 q 167 220 167 159 l 167 779 q 166 841 167 821 q 163 884 166 861 q 155 922 161 907 q 58 949 147 943 q 53 978 52 958 q 58 1006 53 998 q 275 995 161 995 q 489 1006 385 995 q 494 978 494 998 q 489 949 494 958 q 392 922 400 943 q 380 819 380 892 l 380 785 q 509 789 458 789 q 643 770 581 789 q 752 719 705 752 q 825 633 798 685 q 852 518 852 581 q 827 395 852 452 q 760 301 802 338 q 664 243 718 264 q 553 222 610 222 q 488 234 517 222 q 448 257 460 245 q 443 267 446 260 q 439 281 440 273 q 437 295 437 288 q 442 305 437 305 q 505 299 463 299 q 599 355 561 299 q 637 496 637 410 q 615 609 637 557 q 553 695 593 662 q 463 728 513 728 q 437 727 448 728 q 415 725 427 726 q 397 719 404 723 q 387 709 390 715 q 382 678 384 701 q 380 636 380 655 l 380 616 l 380 220 q 380 173 380 189 q 381 137 380 158 q 385 102 382 116 q 392 77 387 88 q 489 50 400 57 q 494 22 494 42 q 489 -6 494 1 q 272 5 385 5 q 58 -6 161 5 z "},"":{"ha":896,"x_min":28,"x_max":854,"o":"m 33 -6 q 28 22 28 1 q 33 50 28 42 q 131 77 123 57 q 141 129 139 98 q 143 220 143 159 l 143 578 l 53 578 q 45 599 45 582 q 94 650 65 626 l 143 650 l 143 673 q 158 774 143 724 q 200 866 174 824 q 261 945 226 908 q 335 1006 296 981 q 417 1046 374 1031 q 498 1061 459 1061 q 595 1045 547 1061 q 680 1004 643 1030 q 741 938 718 977 q 764 855 764 899 q 759 815 764 834 q 747 783 754 796 q 729 755 741 770 q 709 734 717 741 q 686 714 701 726 q 665 696 681 709 q 640 674 648 682 q 619 654 631 666 q 602 631 608 642 q 597 610 597 621 q 603 586 597 599 q 618 559 608 572 q 641 532 629 545 q 667 505 652 519 q 695 479 682 490 q 722 455 708 468 q 745 435 736 442 q 777 401 765 414 q 806 368 789 389 q 831 328 823 347 q 847 284 840 309 q 854 233 854 259 q 838 148 854 188 q 796 79 823 108 q 736 28 770 50 q 666 -4 703 6 q 595 -15 630 -15 q 542 -10 569 -15 q 492 4 515 -5 q 457 26 469 14 q 444 82 444 53 q 465 153 444 121 q 518 185 486 185 q 536 183 528 185 q 552 177 545 180 q 565 168 558 174 q 576 157 572 161 q 585 143 580 153 q 593 131 591 134 q 600 117 595 127 q 605 106 604 107 q 665 52 632 52 q 714 125 714 52 q 712 149 714 137 q 705 173 710 160 q 695 194 699 185 q 680 217 690 203 q 665 237 670 230 q 646 259 660 244 q 627 278 632 273 q 606 299 623 283 q 587 319 590 315 q 554 350 576 330 q 520 382 533 370 q 490 414 507 394 q 464 449 473 433 q 448 486 454 465 q 441 529 441 507 q 445 553 441 541 q 458 579 449 566 q 475 601 468 593 q 497 626 482 610 q 518 648 512 642 q 568 718 553 687 q 583 798 583 749 q 576 864 583 831 q 555 925 569 897 q 516 971 541 954 q 460 989 492 989 q 376 918 412 989 q 340 739 340 848 l 340 220 q 341 159 340 179 q 344 115 341 139 q 353 77 347 92 q 418 50 361 54 q 423 22 423 42 q 418 -6 422 1 q 241 5 314 5 q 33 -6 137 5 z "},"":{"ha":717,"x_min":47,"x_max":696,"o":"m 47 173 q 71 250 47 216 q 126 295 95 285 q 203 322 151 302 q 317 366 254 342 q 407 401 380 391 l 407 433 l 407 473 q 381 578 407 532 q 317 625 356 625 q 301 623 309 625 q 288 617 294 621 q 276 610 281 614 q 266 599 271 606 q 257 586 261 592 q 250 571 254 581 q 244 555 247 562 q 239 536 241 547 q 234 517 236 525 q 229 496 232 509 q 202 449 223 467 q 144 430 182 430 q 89 451 113 430 q 65 503 65 472 q 87 565 65 528 q 122 592 96 575 q 188 631 149 610 q 279 667 227 652 q 377 682 330 682 q 491 653 439 682 q 574 570 543 623 q 605 450 605 517 l 605 165 q 610 132 605 146 q 623 110 614 117 q 641 103 631 103 q 656 105 648 103 q 668 110 664 108 q 679 115 673 112 q 685 119 685 119 q 693 108 690 117 q 696 93 696 100 q 690 70 696 80 q 654 40 674 55 q 598 8 633 24 q 533 -9 562 -9 q 463 15 497 -9 q 418 67 429 38 q 340 19 399 50 q 246 -12 281 -12 q 166 4 204 -12 q 103 47 129 20 q 62 106 77 73 q 47 173 47 140 m 182 981 q 200 1010 182 995 q 252 1025 217 1025 q 283 1021 268 1025 q 304 1012 298 1017 q 364 932 330 982 q 422 844 399 882 q 445 802 445 806 q 436 785 445 795 q 419 774 427 774 q 376 799 413 774 q 295 856 338 823 q 217 924 252 888 q 182 981 182 961 m 252 189 q 262 146 253 165 q 284 117 271 127 q 314 100 298 106 q 345 94 330 94 q 389 106 370 94 q 407 126 407 117 l 407 339 q 363 319 402 336 q 307 290 325 302 q 264 244 277 271 q 252 189 251 216 z "},"":{"ha":717,"x_min":47,"x_max":696,"o":"m 47 173 q 71 250 47 216 q 126 295 95 285 q 203 322 151 302 q 317 366 254 342 q 407 401 380 391 l 407 433 l 407 473 q 381 578 407 532 q 317 625 356 625 q 301 623 309 625 q 288 617 294 621 q 276 610 281 614 q 266 599 271 606 q 257 586 261 592 q 250 571 254 581 q 244 555 247 562 q 239 536 241 547 q 234 517 236 525 q 229 496 232 509 q 202 449 223 467 q 144 430 182 430 q 89 451 113 430 q 65 503 65 472 q 87 565 65 528 q 122 592 96 575 q 188 631 149 610 q 279 667 227 652 q 377 682 330 682 q 491 653 439 682 q 574 570 543 623 q 605 450 605 517 l 605 165 q 610 132 605 146 q 623 110 614 117 q 641 103 631 103 q 656 105 648 103 q 668 110 664 108 q 679 115 673 112 q 685 119 685 119 q 693 108 690 117 q 696 93 696 100 q 690 70 696 80 q 654 40 674 55 q 598 8 633 24 q 533 -9 562 -9 q 463 15 497 -9 q 418 67 429 38 q 340 19 399 50 q 246 -12 281 -12 q 166 4 204 -12 q 103 47 129 20 q 62 106 77 73 q 47 173 47 140 m 252 189 q 262 146 253 165 q 284 117 271 127 q 314 100 298 106 q 345 94 330 94 q 389 106 370 94 q 407 126 407 117 l 407 339 q 363 319 402 336 q 307 290 325 302 q 264 244 277 271 q 252 189 251 216 m 252 802 q 275 844 252 806 q 333 932 298 882 q 393 1012 368 982 q 414 1021 399 1017 q 445 1025 429 1025 q 497 1010 480 1025 q 515 981 515 995 q 480 924 515 961 q 402 856 446 888 q 321 799 359 823 q 278 774 284 774 q 267 780 273 774 q 256 791 260 785 q 252 802 252 798 z "},"":{"ha":717,"x_min":47,"x_max":696,"o":"m 47 173 q 71 250 47 216 q 126 295 95 285 q 203 322 151 302 q 317 366 254 342 q 407 401 380 391 l 407 433 l 407 473 q 381 578 407 532 q 317 625 356 625 q 301 623 309 625 q 288 617 294 621 q 276 610 281 614 q 266 599 271 606 q 257 586 261 592 q 250 571 254 581 q 244 555 247 562 q 239 536 241 547 q 234 517 236 525 q 229 496 232 509 q 202 449 223 467 q 144 430 182 430 q 89 451 113 430 q 65 503 65 472 q 87 565 65 528 q 122 592 96 575 q 188 631 149 610 q 279 667 227 652 q 377 682 330 682 q 491 653 439 682 q 574 570 543 623 q 605 450 605 517 l 605 165 q 610 132 605 146 q 623 110 614 117 q 641 103 631 103 q 656 105 648 103 q 668 110 664 108 q 679 115 673 112 q 685 119 685 119 q 693 108 690 117 q 696 93 696 100 q 690 70 696 80 q 654 40 674 55 q 598 8 633 24 q 533 -9 562 -9 q 463 15 497 -9 q 418 67 429 38 q 340 19 399 50 q 246 -12 281 -12 q 166 4 204 -12 q 103 47 129 20 q 62 106 77 73 q 47 173 47 140 m 172 810 q 272 928 208 846 q 331 1015 304 970 q 351 1030 340 1030 q 357 1029 354 1030 q 360 1026 359 1027 q 365 1021 361 1025 q 369 1015 368 1017 q 391 983 373 1009 q 425 936 410 956 q 530 810 492 848 q 529 798 530 804 q 526 787 528 792 q 522 779 524 783 q 517 774 519 776 q 443 820 505 779 q 351 887 381 861 q 295 845 331 870 q 227 799 258 819 q 185 774 196 779 q 176 788 180 777 q 172 810 172 798 m 252 189 q 262 146 253 165 q 284 117 271 127 q 314 100 298 106 q 345 94 330 94 q 389 106 370 94 q 407 126 407 117 l 407 339 q 363 319 402 336 q 307 290 325 302 q 264 244 277 271 q 252 189 251 216 z "},"":{"ha":717,"x_min":47,"x_max":696,"o":"m 47 173 q 71 250 47 216 q 126 295 95 285 q 203 322 151 302 q 317 366 254 342 q 407 401 380 391 l 407 433 l 407 473 q 381 578 407 532 q 317 625 356 625 q 301 623 309 625 q 288 617 294 621 q 276 610 281 614 q 266 599 271 606 q 257 586 261 592 q 250 571 254 581 q 244 555 247 562 q 239 536 241 547 q 234 517 236 525 q 229 496 232 509 q 202 449 223 467 q 144 430 182 430 q 89 451 113 430 q 65 503 65 472 q 87 565 65 528 q 122 592 96 575 q 188 631 149 610 q 279 667 227 652 q 377 682 330 682 q 491 653 439 682 q 574 570 543 623 q 605 450 605 517 l 605 165 q 610 132 605 146 q 623 110 614 117 q 641 103 631 103 q 656 105 648 103 q 668 110 664 108 q 679 115 673 112 q 685 119 685 119 q 693 108 690 117 q 696 93 696 100 q 690 70 696 80 q 654 40 674 55 q 598 8 633 24 q 533 -9 562 -9 q 463 15 497 -9 q 418 67 429 38 q 340 19 399 50 q 246 -12 281 -12 q 166 4 204 -12 q 103 47 129 20 q 62 106 77 73 q 47 173 47 140 m 103 817 q 126 895 103 852 q 240 970 174 970 q 331 937 281 970 q 344 928 336 935 l 351 924 q 409 888 378 903 q 458 873 440 873 q 501 885 481 873 q 530 910 520 897 q 549 938 540 924 q 561 954 557 952 q 572 936 572 954 q 547 855 572 903 q 433 778 498 778 q 419 779 427 778 q 407 780 412 779 q 395 784 402 781 q 384 788 388 787 q 373 793 380 789 q 363 798 366 797 q 352 805 360 800 q 342 811 344 810 q 332 818 340 812 q 322 825 323 824 q 214 876 252 876 q 180 869 195 876 q 155 850 165 861 q 138 827 145 838 q 126 806 132 815 q 119 795 121 796 q 107 802 111 795 q 103 817 103 810 m 252 189 q 262 146 253 165 q 284 117 271 127 q 314 100 298 106 q 345 94 330 94 q 389 106 370 94 q 407 126 407 117 l 407 339 q 363 319 402 336 q 307 290 325 302 q 264 244 277 271 q 252 189 251 216 z "},"":{"ha":717,"x_min":47,"x_max":696,"o":"m 47 173 q 71 250 47 216 q 126 295 95 285 q 203 322 151 302 q 317 366 254 342 q 407 401 380 391 l 407 433 l 407 473 q 381 578 407 532 q 317 625 356 625 q 301 623 309 625 q 288 617 294 621 q 276 610 281 614 q 266 599 271 606 q 257 586 261 592 q 250 571 254 581 q 244 555 247 562 q 239 536 241 547 q 234 517 236 525 q 229 496 232 509 q 202 449 223 467 q 144 430 182 430 q 89 451 113 430 q 65 503 65 472 q 87 565 65 528 q 122 592 96 575 q 188 631 149 610 q 279 667 227 652 q 377 682 330 682 q 491 653 439 682 q 574 570 543 623 q 605 450 605 517 l 605 165 q 610 132 605 146 q 623 110 614 117 q 641 103 631 103 q 656 105 648 103 q 668 110 664 108 q 679 115 673 112 q 685 119 685 119 q 693 108 690 117 q 696 93 696 100 q 690 70 696 80 q 654 40 674 55 q 598 8 633 24 q 533 -9 562 -9 q 463 15 497 -9 q 418 67 429 38 q 340 19 399 50 q 246 -12 281 -12 q 166 4 204 -12 q 103 47 129 20 q 62 106 77 73 q 47 173 47 140 m 70 884 q 99 957 70 928 q 172 986 128 986 q 245 957 215 986 q 275 884 275 927 q 245 811 275 841 q 172 781 215 781 q 99 811 128 781 q 70 884 70 841 m 252 189 q 262 146 253 165 q 284 117 271 127 q 314 100 298 106 q 345 94 330 94 q 389 106 370 94 q 407 126 407 117 l 407 339 q 363 319 402 336 q 307 290 325 302 q 264 244 277 271 q 252 189 251 216 m 389 884 q 419 957 389 927 q 492 986 449 986 q 566 957 536 986 q 595 884 595 927 q 582 832 595 856 q 545 794 568 808 q 492 781 521 781 q 419 811 449 781 q 389 884 389 841 z "},"":{"ha":717,"x_min":47,"x_max":696,"o":"m 47 173 q 71 250 47 216 q 126 295 95 285 q 203 322 151 302 q 317 366 254 342 q 407 401 380 391 l 407 433 l 407 473 q 381 578 407 532 q 317 625 356 625 q 301 623 309 625 q 288 617 294 621 q 276 610 281 614 q 266 599 271 606 q 257 586 261 592 q 250 571 254 581 q 244 555 247 562 q 239 536 241 547 q 234 517 236 525 q 229 496 232 509 q 202 449 223 467 q 144 430 182 430 q 89 451 113 430 q 65 503 65 472 q 87 565 65 528 q 122 592 96 575 q 188 631 149 610 q 279 667 227 652 q 377 682 330 682 q 491 653 439 682 q 574 570 543 623 q 605 450 605 517 l 605 165 q 610 132 605 146 q 623 110 614 117 q 641 103 631 103 q 656 105 648 103 q 668 110 664 108 q 679 115 673 112 q 685 119 685 119 q 693 108 690 117 q 696 93 696 100 q 690 70 696 80 q 654 40 674 55 q 598 8 633 24 q 533 -9 562 -9 q 463 15 497 -9 q 418 67 429 38 q 340 19 399 50 q 246 -12 281 -12 q 166 4 204 -12 q 103 47 129 20 q 62 106 77 73 q 47 173 47 140 m 222 926 q 271 1045 222 996 q 390 1094 321 1094 q 509 1045 460 1094 q 559 926 559 996 q 509 807 559 857 q 391 757 460 757 q 325 770 356 757 q 271 807 294 784 q 235 861 249 829 q 222 926 222 892 m 252 189 q 262 146 253 165 q 284 117 271 127 q 314 100 298 106 q 345 94 330 94 q 389 106 370 94 q 407 126 407 117 l 407 339 q 363 319 402 336 q 307 290 325 302 q 264 244 277 271 q 252 189 251 216 m 293 926 q 321 856 293 885 q 391 827 350 827 q 460 856 431 827 q 489 926 489 886 q 460 997 489 968 q 391 1025 431 1025 q 321 997 349 1025 q 293 926 293 968 z "},"":{"ha":1057,"x_min":47,"x_max":1010,"o":"m 47 173 q 71 250 47 216 q 126 295 95 285 q 433 399 220 324 q 441 414 437 403 q 445 433 445 425 q 442 483 445 467 q 395 585 431 546 q 317 625 359 625 q 301 623 309 625 q 288 617 294 621 q 276 610 281 614 q 266 599 271 606 q 257 586 261 592 q 250 571 254 581 q 244 555 247 562 q 239 536 241 547 q 234 517 236 525 q 229 496 232 509 q 202 449 223 467 q 144 430 182 430 q 89 451 113 430 q 65 503 65 472 q 87 565 65 528 q 122 592 96 575 q 188 631 149 610 q 279 667 227 652 q 377 682 330 682 q 445 672 412 682 q 505 644 477 663 q 555 599 533 625 q 645 657 595 636 q 745 679 694 679 q 848 664 802 679 q 924 624 895 648 q 974 568 954 600 q 1002 507 994 537 q 1010 450 1010 477 q 1005 419 1010 433 q 990 395 1000 404 q 969 386 981 387 q 605 368 832 374 q 613 287 605 323 q 635 224 621 250 q 667 179 648 199 q 705 147 686 159 q 745 127 724 135 q 784 117 766 119 q 817 114 801 114 q 987 190 918 114 q 1000 179 995 188 q 1006 163 1006 170 q 1001 134 1006 140 q 976 102 991 119 q 934 64 960 85 q 878 26 907 43 q 807 -2 848 9 q 726 -14 767 -14 q 586 15 649 -14 q 483 97 522 43 q 356 20 427 52 q 246 -12 286 -12 q 166 4 204 -12 q 103 47 129 20 q 62 106 77 73 q 47 173 47 140 m 252 189 q 262 146 253 165 q 284 117 271 127 q 314 100 298 106 q 345 94 330 94 q 412 115 374 94 q 450 155 450 136 q 427 295 427 227 q 429 339 427 316 q 394 327 425 338 q 342 308 363 317 q 307 290 321 299 q 264 244 277 271 q 252 189 251 216 m 606 429 q 695 432 616 427 q 802 441 774 437 q 822 465 822 442 q 817 518 822 492 q 801 567 812 544 q 772 603 791 589 q 729 616 753 616 q 682 602 704 616 q 647 565 661 587 q 624 517 633 543 q 610 468 614 490 q 606 429 606 446 z "},"":{"ha":679,"x_min":47,"x_max":646,"o":"m 47 304 q 68 414 47 359 q 126 517 89 469 q 213 601 164 564 q 322 660 262 638 q 444 681 382 681 q 541 672 500 681 q 597 653 581 663 q 611 636 606 643 q 622 614 616 629 q 627 581 627 599 q 617 536 627 557 q 586 501 607 515 q 539 486 566 486 q 517 490 528 486 q 496 503 506 494 q 479 518 486 512 q 463 537 473 524 q 448 555 452 551 q 401 589 429 576 q 345 602 373 602 q 288 568 313 602 q 251 487 263 534 q 239 392 239 440 q 252 281 239 330 q 288 202 266 233 q 338 151 309 171 q 397 122 368 130 q 457 114 427 114 q 627 190 558 114 q 640 179 635 188 q 646 163 646 170 q 641 134 646 140 q 616 102 632 119 q 574 64 600 85 q 517 26 547 43 q 447 -2 488 9 q 366 -14 407 -14 q 244 8 302 -14 q 143 70 186 31 q 73 171 99 110 q 47 304 47 231 m 263 -182 q 267 -172 263 -172 q 340 -195 313 -195 q 391 -181 376 -195 q 407 -149 407 -168 q 398 -114 407 -129 q 368 -99 389 -99 q 328 -109 355 -99 q 316 -101 324 -109 q 309 -87 309 -93 q 351 -3 336 -41 l 399 -3 q 380 -38 387 -24 q 413 -35 404 -35 q 466 -57 444 -35 q 489 -109 489 -79 q 449 -201 489 -165 q 342 -237 410 -237 q 298 -229 319 -237 q 269 -213 278 -222 q 265 -199 267 -210 q 263 -182 263 -188 z "},"":{"ha":699,"x_min":49,"x_max":652,"o":"m 49 304 q 77 443 49 374 q 151 564 105 512 q 260 647 197 615 q 386 679 322 679 q 490 664 443 679 q 566 624 536 648 q 615 568 595 600 q 644 507 635 537 q 652 450 652 477 q 640 406 652 425 q 610 386 628 387 q 246 368 474 374 q 262 260 246 307 q 301 186 278 213 q 355 142 324 159 q 410 120 385 125 q 458 114 435 114 q 629 190 559 114 q 642 179 636 188 q 647 163 647 170 q 643 134 647 140 q 617 102 633 119 q 575 64 602 85 q 519 26 549 43 q 449 -2 489 9 q 368 -14 409 -14 q 269 0 317 -14 q 182 41 222 14 q 112 106 142 68 q 65 195 82 144 q 49 304 49 245 m 193 981 q 210 1010 193 995 q 263 1025 228 1025 q 294 1021 279 1025 q 315 1012 309 1017 q 375 932 340 982 q 433 844 410 882 q 456 802 456 806 q 447 785 456 795 q 430 774 437 774 q 387 799 424 774 q 306 856 349 823 q 228 924 262 888 q 193 981 193 961 m 248 429 q 337 432 258 427 q 444 441 416 437 q 463 465 463 442 q 458 518 463 492 q 443 567 453 544 q 414 603 433 589 q 371 616 395 616 q 323 602 345 616 q 288 565 302 587 q 265 517 275 543 q 252 468 256 490 q 248 429 248 446 z "},"":{"ha":699,"x_min":49,"x_max":652,"o":"m 49 304 q 77 443 49 374 q 151 564 105 512 q 260 647 197 615 q 386 679 322 679 q 490 664 443 679 q 566 624 536 648 q 615 568 595 600 q 644 507 635 537 q 652 450 652 477 q 640 406 652 425 q 610 386 628 387 q 246 368 474 374 q 262 260 246 307 q 301 186 278 213 q 355 142 324 159 q 410 120 385 125 q 458 114 435 114 q 629 190 559 114 q 642 179 636 188 q 647 163 647 170 q 643 134 647 140 q 617 102 633 119 q 575 64 602 85 q 519 26 549 43 q 449 -2 489 9 q 368 -14 409 -14 q 269 0 317 -14 q 182 41 222 14 q 112 106 142 68 q 65 195 82 144 q 49 304 49 245 m 248 429 q 337 432 258 427 q 444 441 416 437 q 463 465 463 442 q 458 518 463 492 q 443 567 453 544 q 414 603 433 589 q 371 616 395 616 q 323 602 345 616 q 288 565 302 587 q 265 517 275 543 q 252 468 256 490 q 248 429 248 446 m 284 802 q 307 844 284 806 q 365 932 330 882 q 425 1012 399 982 q 446 1021 431 1017 q 477 1025 461 1025 q 529 1010 512 1025 q 547 981 547 995 q 512 924 547 961 q 434 856 477 888 q 353 799 391 823 q 310 774 316 774 q 299 780 305 774 q 288 791 292 785 q 284 802 284 798 z "},"":{"ha":699,"x_min":49,"x_max":652,"o":"m 49 304 q 77 443 49 374 q 151 564 105 512 q 260 647 197 615 q 386 679 322 679 q 490 664 443 679 q 566 624 536 648 q 615 568 595 600 q 644 507 635 537 q 652 450 652 477 q 640 406 652 425 q 610 386 628 387 q 246 368 474 374 q 262 260 246 307 q 301 186 278 213 q 355 142 324 159 q 410 120 385 125 q 458 114 435 114 q 629 190 559 114 q 642 179 636 188 q 647 163 647 170 q 643 134 647 140 q 617 102 633 119 q 575 64 602 85 q 519 26 549 43 q 449 -2 489 9 q 368 -14 409 -14 q 269 0 317 -14 q 182 41 222 14 q 112 106 142 68 q 65 195 82 144 q 49 304 49 245 m 189 810 q 289 928 225 846 q 348 1015 320 970 q 368 1030 357 1030 q 373 1029 371 1030 q 377 1026 376 1027 q 381 1021 378 1025 q 386 1015 384 1017 q 408 983 390 1009 q 442 936 426 956 q 547 810 509 848 q 545 795 547 802 q 540 782 543 787 q 533 774 537 777 q 494 797 526 777 q 425 844 463 817 q 368 887 388 870 q 279 822 338 861 q 202 774 220 782 q 193 788 197 777 q 189 810 189 798 m 248 429 q 337 432 258 427 q 444 441 416 437 q 463 465 463 442 q 458 518 463 492 q 443 567 453 544 q 414 603 433 589 q 371 616 395 616 q 323 602 345 616 q 288 565 302 587 q 265 517 275 543 q 252 468 256 490 q 248 429 248 446 z "},"":{"ha":699,"x_min":49,"x_max":652,"o":"m 49 304 q 77 443 49 374 q 151 564 105 512 q 260 647 197 615 q 386 679 322 679 q 490 664 443 679 q 566 624 536 648 q 615 568 595 600 q 644 507 635 537 q 652 450 652 477 q 640 406 652 425 q 610 386 628 387 q 246 368 474 374 q 262 260 246 307 q 301 186 278 213 q 355 142 324 159 q 410 120 385 125 q 458 114 435 114 q 629 190 559 114 q 642 179 636 188 q 647 163 647 170 q 643 134 647 140 q 617 102 633 119 q 575 64 602 85 q 519 26 549 43 q 449 -2 489 9 q 368 -14 409 -14 q 269 0 317 -14 q 182 41 222 14 q 112 106 142 68 q 65 195 82 144 q 49 304 49 245 m 99 884 q 128 957 99 928 q 201 986 157 986 q 274 957 244 986 q 304 884 304 927 q 274 811 304 841 q 201 781 244 781 q 128 811 157 781 q 99 884 99 841 m 248 429 q 337 432 258 427 q 444 441 416 437 q 463 465 463 442 q 458 518 463 492 q 443 567 453 544 q 414 603 433 589 q 371 616 395 616 q 323 602 345 616 q 288 565 302 587 q 265 517 275 543 q 252 468 256 490 q 248 429 248 446 m 418 884 q 431 936 418 913 q 469 973 445 960 q 521 986 492 986 q 594 957 564 986 q 625 884 625 927 q 594 811 625 841 q 521 781 564 781 q 448 811 477 781 q 418 884 418 841 z "},"":{"ha":478,"x_min":43,"x_max":460,"o":"m 49 -6 q 44 22 44 1 q 49 50 43 42 q 146 77 138 57 q 156 129 154 98 q 158 220 158 159 l 158 395 q 157 430 158 409 q 153 480 157 450 q 144 519 150 509 q 117 537 139 530 q 76 547 94 545 q 49 550 57 550 q 45 575 45 553 q 50 597 45 597 q 212 628 130 604 q 347 677 295 652 q 363 666 354 675 q 372 652 372 656 q 363 612 369 643 q 357 565 358 581 q 355 469 355 532 l 355 220 q 356 163 355 183 q 359 117 356 143 q 368 77 362 92 q 454 50 376 56 q 459 22 460 42 q 454 -6 459 1 q 257 5 351 5 q 49 -6 153 5 m 90 981 q 107 1010 90 995 q 159 1025 125 1025 q 191 1021 176 1025 q 211 1012 205 1017 q 272 932 237 982 q 330 844 307 882 q 353 802 353 806 q 343 785 353 795 q 327 774 334 774 q 283 799 320 774 q 202 856 245 823 q 124 924 159 888 q 90 981 90 961 z "},"":{"ha":478,"x_min":43,"x_max":460,"o":"m 49 -6 q 44 22 44 1 q 49 50 43 42 q 146 77 138 57 q 156 129 154 98 q 158 220 158 159 l 158 395 q 157 430 158 409 q 153 480 157 450 q 144 519 150 509 q 117 537 139 530 q 76 547 94 545 q 49 550 57 550 q 45 575 45 553 q 50 597 45 597 q 212 628 130 604 q 347 677 295 652 q 363 666 354 675 q 372 652 372 656 q 363 612 369 643 q 357 565 358 581 q 355 469 355 532 l 355 220 q 356 163 355 183 q 359 117 356 143 q 368 77 362 92 q 454 50 376 56 q 459 22 460 42 q 454 -6 459 1 q 257 5 351 5 q 49 -6 153 5 m 144 802 q 168 844 144 806 q 225 932 191 882 q 286 1012 260 982 q 307 1021 292 1017 q 337 1025 321 1025 q 390 1010 372 1025 q 407 981 407 995 q 372 924 407 961 q 294 856 338 888 q 214 799 251 823 q 170 774 176 774 q 154 785 163 774 q 144 802 144 795 z "},"":{"ha":478,"x_min":43,"x_max":460,"o":"m 49 -6 q 44 22 44 1 q 49 50 43 42 q 146 77 138 57 q 156 129 154 98 q 158 220 158 159 l 158 395 q 157 430 158 409 q 153 480 157 450 q 144 519 150 509 q 117 537 139 530 q 76 547 94 545 q 49 550 57 550 q 45 575 45 553 q 50 597 45 597 q 212 628 130 604 q 347 677 295 652 q 363 666 354 675 q 372 652 372 656 q 363 612 369 643 q 357 565 358 581 q 355 469 355 532 l 355 220 q 356 163 355 183 q 359 117 356 143 q 368 77 362 92 q 454 50 376 56 q 459 22 460 42 q 454 -6 459 1 q 257 5 351 5 q 49 -6 153 5 m 61 810 q 161 928 97 846 q 220 1015 193 970 q 240 1030 229 1030 q 245 1029 243 1030 q 249 1027 247 1029 q 251 1024 250 1025 q 254 1020 252 1023 q 258 1015 256 1017 q 280 983 262 1009 q 315 936 298 956 q 419 810 382 848 q 417 795 419 802 q 413 782 416 787 q 406 774 410 777 q 367 797 398 777 q 297 844 335 817 q 240 887 260 870 q 151 822 210 861 q 75 774 92 782 q 65 788 68 777 q 61 810 61 798 z "},"":{"ha":478,"x_min":-17,"x_max":501,"o":"m -17 882 q 15 957 -17 926 q 90 987 46 987 q 164 957 133 987 q 196 882 196 926 q 164 808 196 840 q 90 777 133 777 q 15 808 46 777 q -17 882 -17 840 m 50 -6 q 45 22 45 1 q 50 50 45 42 q 147 77 140 57 q 157 129 155 98 q 159 220 159 159 l 159 395 q 159 430 159 409 q 155 480 158 450 q 146 519 151 509 q 103 542 138 534 q 50 550 68 550 q 46 575 46 553 q 52 597 46 597 q 214 628 131 604 q 348 677 297 652 q 359 671 353 676 q 370 660 366 665 q 374 652 374 654 q 365 612 370 643 q 359 565 359 581 q 357 469 357 532 l 357 220 q 357 163 357 183 q 361 117 358 143 q 369 77 363 92 q 456 50 377 56 q 461 22 461 42 q 456 -6 460 1 q 258 5 352 5 q 50 -6 154 5 m 290 882 q 298 923 290 904 q 321 957 307 943 q 354 979 335 970 q 395 987 374 987 q 470 957 438 987 q 501 882 501 926 q 470 808 501 840 q 395 777 438 777 q 342 791 367 777 q 304 830 318 805 q 290 882 290 854 z "},"":{"ha":820,"x_min":50,"x_max":743,"o":"m 50 331 q 70 458 50 399 q 121 556 89 516 q 196 625 154 596 q 283 667 238 654 q 374 681 328 681 q 473 669 421 681 q 431 759 456 715 q 367 848 406 803 q 273 935 329 894 q 147 1007 216 977 q 158 1050 142 1038 q 251 1025 199 1044 q 360 978 302 1007 q 478 903 418 948 q 585 805 538 858 q 743 393 743 629 q 699 188 743 279 q 577 43 656 96 q 399 -9 498 -9 q 301 3 350 -9 q 207 41 253 15 q 127 106 161 68 q 71 203 92 145 q 50 331 50 261 m 175 816 l 557 1076 q 561 1072 558 1074 q 566 1066 564 1069 q 571 1060 568 1063 q 576 1053 574 1056 q 582 1046 578 1050 q 586 1039 585 1042 q 589 1032 588 1036 q 590 1027 591 1029 q 589 1024 590 1025 l 205 762 q 175 816 167 808 m 260 322 q 264 252 260 286 q 278 192 269 218 q 297 143 286 165 q 321 104 309 121 q 348 77 334 88 q 376 60 362 66 q 403 55 390 55 q 455 72 432 55 q 492 116 478 89 q 516 182 507 144 q 528 259 525 220 q 532 342 532 298 q 488 570 532 481 q 401 616 454 616 q 345 599 370 616 q 304 553 320 582 q 278 485 289 524 q 264 406 268 446 q 260 322 260 366 z "},"":{"ha":905,"x_min":39,"x_max":899,"o":"m 44 -6 q 39 22 39 1 q 44 50 39 42 q 141 77 134 57 q 151 129 149 98 q 153 220 153 159 l 153 395 q 153 430 153 409 q 149 480 152 450 q 140 519 145 509 q 97 542 132 534 q 44 550 62 550 q 40 575 40 553 q 45 597 40 597 q 208 628 125 604 q 342 677 291 652 q 358 668 349 677 q 368 652 368 658 q 365 638 367 648 q 361 616 363 628 q 357 593 359 604 q 354 573 355 581 q 353 565 353 566 q 354 556 353 557 q 365 564 357 556 q 464 641 400 604 q 577 677 528 677 q 653 668 621 677 q 708 637 685 659 q 745 589 730 616 q 769 518 760 561 q 781 429 777 476 q 784 319 784 382 l 784 220 q 784 182 784 195 q 785 151 784 170 q 787 121 785 132 q 790 98 788 111 q 796 77 793 86 q 893 50 804 57 q 898 22 899 42 q 893 -6 898 1 q 685 5 789 5 q 495 -6 599 5 q 490 22 490 1 q 495 50 490 42 q 574 77 566 56 q 585 129 583 98 q 587 220 587 159 l 587 340 q 582 420 587 385 q 566 488 577 456 q 534 537 555 519 q 485 555 513 555 q 424 540 456 555 q 371 505 392 525 q 351 469 351 484 l 351 220 q 351 163 351 183 q 355 117 352 143 q 363 77 357 92 q 450 50 371 56 q 455 22 455 42 q 450 -6 454 1 q 252 5 346 5 q 44 -6 148 5 m 217 817 q 240 895 217 852 q 354 970 288 970 q 445 937 395 970 q 458 928 450 935 l 465 924 q 523 888 492 903 q 572 873 554 873 q 615 885 595 873 q 644 910 634 897 q 663 938 654 924 q 675 954 671 952 q 686 936 686 954 q 661 855 686 903 q 547 778 612 778 q 533 779 541 778 q 521 780 526 779 q 509 784 516 781 q 498 788 502 787 q 487 793 494 789 q 477 798 479 797 q 466 805 474 800 q 456 811 458 810 q 446 818 454 812 q 436 825 437 824 q 328 876 366 876 q 294 869 309 876 q 269 850 279 861 q 252 827 259 838 q 240 806 245 815 q 233 795 235 796 q 221 802 225 795 q 217 817 217 810 z "},"":{"ha":808,"x_min":49,"x_max":760,"o":"m 49 330 q 76 465 49 400 q 151 576 104 529 q 264 651 198 623 q 403 679 330 679 q 547 653 480 679 q 660 583 613 627 q 733 476 707 538 q 760 342 760 413 q 732 206 760 271 q 658 94 705 141 q 545 18 611 46 q 406 -11 479 -11 q 261 16 328 -11 q 148 87 194 42 q 75 196 101 133 q 49 330 49 258 m 223 981 q 241 1010 223 995 q 293 1025 258 1025 q 324 1021 309 1025 q 345 1012 339 1017 q 405 932 370 982 q 463 844 440 882 q 486 802 486 806 q 477 785 486 795 q 460 774 468 774 q 417 799 454 774 q 336 856 379 823 q 258 924 293 888 q 223 981 223 961 m 264 360 q 270 277 264 319 q 288 194 275 235 q 318 123 300 154 q 362 72 336 92 q 420 53 389 53 q 468 64 448 53 q 502 95 489 75 q 524 139 515 115 q 536 193 532 162 q 542 250 541 224 q 544 307 544 275 q 534 413 544 360 q 507 512 525 465 q 457 588 488 559 q 386 616 425 616 q 339 606 359 616 q 305 574 318 595 q 284 531 292 554 q 271 475 275 507 q 266 418 267 444 q 264 360 264 392 z "},"":{"ha":808,"x_min":49,"x_max":760,"o":"m 49 330 q 76 465 49 400 q 151 576 104 529 q 264 651 198 623 q 403 679 330 679 q 547 653 480 679 q 660 583 613 627 q 733 476 707 538 q 760 342 760 413 q 732 206 760 271 q 658 94 705 141 q 545 18 611 46 q 406 -11 479 -11 q 261 16 328 -11 q 148 87 194 42 q 75 196 101 133 q 49 330 49 258 m 264 360 q 270 277 264 319 q 288 194 275 235 q 318 123 300 154 q 362 72 336 92 q 420 53 389 53 q 468 64 448 53 q 502 95 489 75 q 524 139 515 115 q 536 193 532 162 q 542 250 541 224 q 544 307 544 275 q 534 413 544 360 q 507 512 525 465 q 457 588 488 559 q 386 616 425 616 q 339 606 359 616 q 305 574 318 595 q 284 531 292 554 q 271 475 275 507 q 266 418 267 444 q 264 360 264 392 m 339 802 q 362 844 339 806 q 419 932 385 882 q 480 1012 454 982 q 501 1021 486 1017 q 532 1025 516 1025 q 584 1010 567 1025 q 602 981 602 995 q 567 924 602 961 q 489 856 532 888 q 408 799 446 823 q 365 774 371 774 q 348 785 357 774 q 339 802 339 795 z "},"":{"ha":808,"x_min":49,"x_max":760,"o":"m 49 330 q 76 465 49 400 q 151 576 104 529 q 264 651 198 623 q 403 679 330 679 q 547 653 480 679 q 660 583 613 627 q 733 476 707 538 q 760 342 760 413 q 732 206 760 271 q 658 94 705 141 q 545 18 611 46 q 406 -11 479 -11 q 261 16 328 -11 q 148 87 194 42 q 75 196 101 133 q 49 330 49 258 m 228 810 q 328 928 264 846 q 387 1015 359 970 q 407 1030 396 1030 q 412 1029 410 1030 q 415 1027 414 1029 q 418 1024 417 1025 q 421 1020 419 1023 q 425 1015 424 1017 q 440 993 431 1006 q 459 965 450 980 q 481 936 469 951 q 587 810 549 848 q 583 788 587 798 q 572 774 578 777 q 533 797 565 777 q 465 844 502 817 q 407 887 427 870 q 351 845 387 870 q 283 799 315 819 q 241 774 252 779 q 232 788 236 777 q 228 810 228 798 m 264 360 q 270 277 264 319 q 288 194 275 235 q 318 123 300 154 q 362 72 336 92 q 420 53 389 53 q 468 64 448 53 q 502 95 489 75 q 524 139 515 115 q 536 193 532 162 q 542 250 541 224 q 544 307 544 275 q 534 413 544 360 q 507 512 525 465 q 457 588 488 559 q 386 616 425 616 q 339 606 359 616 q 305 574 318 595 q 284 531 292 554 q 271 475 275 507 q 266 418 267 444 q 264 360 264 392 z "},"":{"ha":808,"x_min":49,"x_max":760,"o":"m 49 330 q 76 465 49 400 q 151 576 104 529 q 264 651 198 623 q 403 679 330 679 q 547 653 480 679 q 660 583 613 627 q 733 476 707 538 q 760 342 760 413 q 732 206 760 271 q 658 94 705 141 q 545 18 611 46 q 406 -11 479 -11 q 261 16 328 -11 q 148 87 194 42 q 75 196 101 133 q 49 330 49 258 m 176 817 q 199 895 176 852 q 313 970 246 970 q 326 970 319 970 q 338 968 333 969 q 351 965 344 967 q 362 961 358 962 q 373 956 366 960 q 383 950 380 951 q 394 944 386 949 q 404 938 402 939 q 414 930 406 937 q 424 924 423 924 q 461 899 441 910 q 500 881 481 888 q 532 873 519 873 q 574 885 555 873 q 603 910 593 897 q 622 938 613 924 q 633 954 631 952 q 646 936 646 954 q 620 855 646 903 q 506 778 572 778 q 492 779 499 778 q 480 780 486 779 q 468 784 475 781 q 457 788 461 787 q 446 793 453 789 q 435 798 438 797 q 425 805 433 800 q 415 811 417 810 q 405 818 414 812 q 395 825 396 824 q 287 876 325 876 q 253 869 269 876 q 228 850 237 861 q 211 827 218 838 q 199 806 204 815 q 191 795 195 796 q 180 802 184 795 q 176 817 176 810 m 264 360 q 270 277 264 319 q 288 194 275 235 q 318 123 300 154 q 362 72 336 92 q 420 53 389 53 q 468 64 448 53 q 502 95 489 75 q 524 139 515 115 q 536 193 532 162 q 542 250 541 224 q 544 307 544 275 q 534 413 544 360 q 507 512 525 465 q 457 588 488 559 q 386 616 425 616 q 339 606 359 616 q 305 574 318 595 q 284 531 292 554 q 271 475 275 507 q 266 418 267 444 q 264 360 264 392 z "},"":{"ha":808,"x_min":49,"x_max":760,"o":"m 49 330 q 76 465 49 400 q 151 576 104 529 q 264 651 198 623 q 403 679 330 679 q 547 653 480 679 q 660 583 613 627 q 733 476 707 538 q 760 342 760 413 q 732 206 760 271 q 658 94 705 141 q 545 18 611 46 q 406 -11 479 -11 q 261 16 328 -11 q 148 87 194 42 q 75 196 101 133 q 49 330 49 258 m 135 884 q 164 957 135 928 q 237 986 194 986 q 311 957 281 986 q 340 884 340 927 q 327 832 340 856 q 289 794 313 808 q 237 781 265 781 q 185 794 209 781 q 149 832 162 808 q 135 884 135 856 m 264 360 q 270 277 264 319 q 288 194 275 235 q 318 123 300 154 q 362 72 336 92 q 420 53 389 53 q 468 64 448 53 q 502 95 489 75 q 524 139 515 115 q 536 193 532 162 q 542 250 541 224 q 544 307 544 275 q 534 413 544 360 q 507 512 525 465 q 457 588 488 559 q 386 616 425 616 q 339 606 359 616 q 305 574 318 595 q 284 531 292 554 q 271 475 275 507 q 266 418 267 444 q 264 360 264 392 m 454 884 q 468 936 454 913 q 505 973 481 960 q 557 986 529 986 q 631 957 601 986 q 661 884 661 927 q 653 844 661 863 q 631 811 645 825 q 598 789 617 797 q 557 781 578 781 q 484 811 514 781 q 454 884 454 841 z "},"":{"ha":899,"x_min":87,"x_max":816,"o":"m 87 363 q 91 394 87 374 q 103 427 94 415 l 802 427 q 812 420 808 427 q 816 406 816 414 q 795 339 816 366 l 96 339 q 87 363 87 339 m 382 31 q 368 44 382 31 q 354 97 354 58 q 382 163 354 136 q 448 191 410 191 q 515 163 487 191 q 543 97 543 136 q 515 31 543 58 q 448 3 487 3 q 382 31 410 3 m 382 590 q 368 604 382 590 q 354 656 354 618 q 382 723 354 695 q 448 751 410 751 q 515 723 487 751 q 543 656 543 695 q 515 590 543 618 q 448 562 487 562 q 382 590 410 562 z "},"":{"ha":808,"x_min":49,"x_max":760,"o":"m 49 330 q 76 465 49 400 q 151 576 104 529 q 264 651 198 623 q 403 679 330 679 q 547 653 480 679 q 660 583 613 627 q 733 476 707 538 q 760 342 760 413 q 732 206 760 271 q 658 94 705 141 q 545 18 611 46 q 406 -11 479 -11 q 261 16 328 -11 q 148 87 194 42 q 75 196 101 133 q 49 330 49 258 m 182 6 l 567 691 q 570 690 568 691 q 584 685 578 687 q 598 678 589 682 q 612 670 608 674 q 615 663 616 666 l 231 -24 q 182 6 179 -5 m 264 360 q 270 277 264 319 q 288 194 275 235 q 318 123 300 154 q 362 72 336 92 q 420 53 389 53 q 468 64 448 53 q 502 95 489 75 q 524 139 515 115 q 536 193 532 162 q 542 250 541 224 q 544 307 544 275 q 534 413 544 360 q 507 512 525 465 q 457 588 488 559 q 386 616 425 616 q 339 606 359 616 q 305 574 318 595 q 284 531 292 554 q 271 475 275 507 q 266 418 267 444 q 264 360 264 392 z "},"":{"ha":859,"x_min":13,"x_max":823,"o":"m 18 550 q 14 575 14 553 q 18 597 13 597 q 181 628 98 604 q 316 677 265 652 q 332 666 323 675 q 340 652 340 656 q 332 612 337 643 q 325 565 326 581 q 325 469 325 565 l 325 333 q 330 225 325 269 q 349 149 336 182 q 386 100 362 116 q 444 85 409 85 q 477 91 459 85 q 508 104 494 96 q 531 123 522 113 q 541 141 541 133 l 541 395 q 537 462 541 419 q 526 520 534 505 q 484 542 518 534 q 431 550 449 550 q 427 575 428 553 q 431 597 426 597 q 594 628 511 604 q 729 677 678 652 q 745 666 736 675 q 753 652 753 656 q 745 612 750 643 q 739 565 739 581 q 738 529 738 550 q 738 489 738 508 q 739 469 739 470 l 739 164 q 739 156 739 163 q 739 148 739 149 q 739 140 739 146 q 739 132 739 134 q 741 125 740 130 q 743 118 741 121 q 746 113 744 116 q 751 106 748 109 q 821 91 764 91 q 823 71 823 88 q 814 43 823 56 q 739 31 784 39 q 657 13 694 22 q 590 -4 621 3 q 553 -11 559 -11 q 544 -1 548 -11 q 541 26 541 9 l 541 50 q 539 57 541 54 q 534 58 538 60 q 505 40 522 50 q 460 19 488 31 q 396 0 432 7 q 322 -7 359 -7 q 245 7 279 -7 q 190 47 212 22 q 154 107 168 72 q 134 181 140 142 q 127 264 127 220 l 127 395 q 124 462 127 419 q 112 520 120 505 q 70 542 104 534 q 18 550 36 550 m 203 981 q 221 1010 203 995 q 273 1025 239 1025 q 304 1021 290 1025 q 325 1012 319 1017 q 386 932 351 982 q 444 844 420 882 q 467 802 467 806 q 457 785 467 795 q 441 774 448 774 q 397 799 434 774 q 316 856 359 823 q 238 924 273 888 q 203 981 203 961 z "},"":{"ha":859,"x_min":13,"x_max":823,"o":"m 18 550 q 14 575 14 553 q 18 597 13 597 q 181 628 98 604 q 316 677 265 652 q 332 666 323 675 q 340 652 340 656 q 332 612 337 643 q 325 565 326 581 q 325 469 325 565 l 325 333 q 330 225 325 269 q 349 149 336 182 q 386 100 362 116 q 444 85 409 85 q 477 91 459 85 q 508 104 494 96 q 531 123 522 113 q 541 141 541 133 l 541 395 q 537 462 541 419 q 526 520 534 505 q 484 542 518 534 q 431 550 449 550 q 427 575 428 553 q 431 597 426 597 q 594 628 511 604 q 729 677 678 652 q 745 666 736 675 q 753 652 753 656 q 745 612 750 643 q 739 565 739 581 q 738 529 738 550 q 738 489 738 508 q 739 469 739 470 l 739 164 q 739 156 739 163 q 739 148 739 149 q 739 140 739 146 q 739 132 739 134 q 741 125 740 130 q 743 118 741 121 q 746 113 744 116 q 751 106 748 109 q 821 91 764 91 q 823 71 823 88 q 814 43 823 56 q 739 31 784 39 q 657 13 694 22 q 590 -4 621 3 q 553 -11 559 -11 q 544 -1 548 -11 q 541 26 541 9 l 541 50 q 539 57 541 54 q 534 58 538 60 q 505 40 522 50 q 460 19 488 31 q 396 0 432 7 q 322 -7 359 -7 q 245 7 279 -7 q 190 47 212 22 q 154 107 168 72 q 134 181 140 142 q 127 264 127 220 l 127 395 q 124 462 127 419 q 112 520 120 505 q 70 542 104 534 q 18 550 36 550 m 377 802 q 391 829 377 805 q 426 885 406 853 q 472 953 446 917 q 518 1012 498 989 q 539 1021 524 1017 q 570 1025 554 1025 q 622 1010 605 1025 q 640 981 640 995 q 605 924 640 961 q 527 856 570 888 q 446 799 484 823 q 403 774 409 774 q 386 785 395 774 q 377 802 377 795 z "},"":{"ha":859,"x_min":13,"x_max":823,"o":"m 18 550 q 14 575 14 553 q 18 597 13 597 q 181 628 98 604 q 316 677 265 652 q 332 666 323 675 q 340 652 340 656 q 332 612 337 643 q 325 565 326 581 q 325 469 325 565 l 325 333 q 330 225 325 269 q 349 149 336 182 q 386 100 362 116 q 444 85 409 85 q 477 91 459 85 q 508 104 494 96 q 531 123 522 113 q 541 141 541 133 l 541 395 q 537 462 541 419 q 526 520 534 505 q 484 542 518 534 q 431 550 449 550 q 427 575 428 553 q 431 597 426 597 q 594 628 511 604 q 729 677 678 652 q 745 666 736 675 q 753 652 753 656 q 745 612 750 643 q 739 565 739 581 q 738 529 738 550 q 738 489 738 508 q 739 469 739 470 l 739 164 q 739 156 739 163 q 739 148 739 149 q 739 140 739 146 q 739 132 739 134 q 741 125 740 130 q 743 118 741 121 q 746 113 744 116 q 751 106 748 109 q 821 91 764 91 q 823 71 823 88 q 814 43 823 56 q 739 31 784 39 q 657 13 694 22 q 590 -4 621 3 q 553 -11 559 -11 q 544 -1 548 -11 q 541 26 541 9 l 541 50 q 539 57 541 54 q 534 58 538 60 q 505 40 522 50 q 460 19 488 31 q 396 0 432 7 q 322 -7 359 -7 q 245 7 279 -7 q 190 47 212 22 q 154 107 168 72 q 134 181 140 142 q 127 264 127 220 l 127 395 q 124 462 127 419 q 112 520 120 505 q 70 542 104 534 q 18 550 36 550 m 233 810 q 333 928 269 846 q 392 1015 364 970 q 412 1030 401 1030 q 417 1029 415 1030 q 421 1026 420 1027 q 425 1021 422 1025 q 430 1015 428 1017 q 445 993 436 1006 q 464 965 454 980 q 486 936 474 951 q 591 810 553 848 q 587 788 591 798 q 577 774 583 777 q 538 797 570 777 q 469 844 507 817 q 412 887 432 870 q 323 822 382 861 q 246 774 264 782 q 237 788 241 777 q 233 810 233 798 z "}}}
